<?xml version="1.0" encoding="UTF-8"?>
<svg width="259px" height="162px" viewBox="0 0 259 162" version="1.1" xmlns="http://www.w3.org/2000/svg" xmlns:xlink="http://www.w3.org/1999/xlink">
    <title>Group 9</title>
    <defs>
        <rect id="path-1" x="-6.59905323e-13" y="0" width="252.216718" height="156" rx="24.304"></rect>
        <filter x="-2.0%" y="-2.6%" width="104.0%" height="106.4%" filterUnits="objectBoundingBox" id="filter-2">
            <feOffset dx="0" dy="1" in="SourceAlpha" result="shadowOffsetOuter1"></feOffset>
            <feGaussianBlur stdDeviation="1.5" in="shadowOffsetOuter1" result="shadowBlurOuter1"></feGaussianBlur>
            <feColorMatrix values="0 0 0 0 0   0 0 0 0 0   0 0 0 0 0  0 0 0 0.5 0" type="matrix" in="shadowBlurOuter1"></feColorMatrix>
        </filter>
        <linearGradient x1="13.8230393%" y1="12.0393928%" x2="78.9477412%" y2="78.2008538%" id="linearGradient-3">
            <stop stop-color="#387EB8" offset="0%"></stop>
            <stop stop-color="#366994" offset="100%"></stop>
        </linearGradient>
        <linearGradient x1="19.8473775%" y1="20.5791813%" x2="89.7915638%" y2="88.4290372%" id="linearGradient-4">
            <stop stop-color="#FFE052" offset="0%"></stop>
            <stop stop-color="#FFC331" offset="100%"></stop>
        </linearGradient>
        <filter id="filter-5">
            <feColorMatrix in="SourceGraphic" type="matrix" values="0 0 0 0 0.129412 0 0 0 0 0.141176 0 0 0 0 0.160784 0 0 0 1.000000 0"></feColorMatrix>
        </filter>
        <filter id="filter-6">
            <feColorMatrix in="SourceGraphic" type="matrix" values="0 0 0 0 0.635294 0 0 0 0 0.580392 0 0 0 0 0.372549 0 0 0 1.000000 0"></feColorMatrix>
        </filter>
        <linearGradient x1="140.88299%" y1="50%" x2="-326.566025%" y2="77.1636941%" id="linearGradient-7">
            <stop stop-color="#B29F79" offset="0%"></stop>
            <stop stop-color="#4B6126" offset="100%"></stop>
        </linearGradient>
    </defs>
    <g id="Page-1" stroke="none" stroke-width="1" fill="none" fill-rule="evenodd">
        <g id="IT-SKILLS-DARK" transform="translate(-111.000000, -716.000000)">
            <g id="Group-9" transform="translate(114.000000, 718.000000)">
                <g id="Group-8" transform="translate(-0.000000, 0.000000)">
                    <g id="Rectangle">
                        <use fill="black" fill-opacity="1" filter="url(#filter-2)" xlink:href="#path-1"></use>
                        <use fill="#3B4353" fill-rule="evenodd" xlink:href="#path-1"></use>
                    </g>
                    <path d="M18.7987616,0.398867183 L227.645358,0.0427759172 C241.4983,0.0262502284 252.74856,11.235042 252.78319,25.0879504 L253,134.16 L253,134.16 L132.595805,62.7329752 C132.34829,62.5861428 132.098268,62.4435803 131.845848,62.3053508 L18.7987616,0.398867183 L18.7987616,0.398867183 Z" id="Rectangle" fill="#D8D8D8" opacity="0.0348837209"></path>
                    <g id="python-seeklogo.com" transform="translate(24.819620, 52.000000)" fill-rule="nonzero">
                        <path d="M35.1097261,0 C17.1542154,0 18.2754733,7.87899206 18.2754733,7.87899206 L18.2954902,16.0415467 L35.4299976,16.0415467 L35.4299976,18.4923386 L11.489728,18.4923386 C11.489728,18.4923386 0,17.1738362 0,35.5061002 C0,53.8383604 10.0284908,53.1882598 10.0284908,53.1882598 L16.0135582,53.1882598 L16.0135582,44.681379 C16.0135582,44.681379 15.6909477,34.5338853 25.8819134,34.5338853 L42.8763019,34.5338853 C42.8763019,34.5338853 52.4243861,34.6900621 52.4243861,25.1965709 L52.4243861,9.4993503 C52.4243861,9.49934898 53.8740488,0 35.1097261,0 L35.1097261,0 L35.1097261,0 Z M25.661727,5.48896359 C27.3664849,5.48896359 28.744337,6.88316585 28.744337,8.60815324 C28.744337,10.3331406 27.3664849,11.7273429 25.661727,11.7273429 C23.956969,11.7273429 22.579117,10.3331406 22.579117,8.60815324 C22.579117,6.88316585 23.956969,5.48896359 25.661727,5.48896359 L25.661727,5.48896359 L25.661727,5.48896359 Z" id="Shape" fill="url(#linearGradient-3)"></path>
                        <path d="M35.3459708,70.4 C53.3014862,70.4 52.1802233,62.5210084 52.1802233,62.5210084 L52.1602065,54.3584547 L35.0256996,54.3584547 L35.0256996,51.9076629 L58.9659685,51.9076629 C58.9659685,51.9076629 70.4556962,53.2261614 70.4556962,34.8938964 C70.4556962,16.5616396 60.4272056,17.2117403 60.4272056,17.2117403 L54.4421383,17.2117403 L54.4421383,25.7186184 C54.4421383,25.7186184 54.7647539,35.8661111 44.5737835,35.8661111 L27.5793938,35.8661111 C27.5793938,35.8661111 18.0313101,35.7099347 18.0313101,45.2034313 L18.0313101,60.9006506 C18.0313101,60.9006506 16.5816476,70.4 35.3459708,70.4 L35.3459708,70.4 L35.3459708,70.4 Z M44.7939696,64.9110369 C43.0892114,64.9110369 41.7113599,63.5168353 41.7113599,61.7918475 C41.7113599,60.0668594 43.0892114,58.6726581 44.7939696,58.6726581 C46.4987283,58.6726581 47.8765795,60.0668594 47.8765795,61.7918475 C47.8765795,63.5168353 46.4987283,64.9110369 44.7939696,64.9110369 L44.7939696,64.9110369 L44.7939696,64.9110369 Z" id="Shape" fill="url(#linearGradient-4)"></path>
                    </g>
                    <text id="+" font-family="OpenSans-Bold, Open Sans" font-size="70.56" font-weight="bold" fill="#A2945F">
                        <tspan x="112.088608" y="105.4">+</tspan>
                    </text>
                    <g id="java-seeklogo.com" transform="translate(157.724684, 36.000000)" fill-rule="nonzero">
                        <path d="M19.861712,64.3622642 C19.861712,64.3622642 16.6386516,66.2625166 22.1554544,66.9055371 C28.838906,67.6785448 32.2547408,67.567687 39.6199501,66.1544247 C39.6199501,66.1544247 41.5563323,67.3853826 44.2606297,68.4515523 C27.7497763,75.6257259 6.89331529,68.0360089 19.861712,64.3622642" id="Path" fill="#5382A1"></path>
                        <path d="M17.9692796,54.9433962 C17.9692796,54.9433962 14.3593632,57.7110251 19.8725332,58.3016533 C27.002016,59.0634506 32.6323233,59.1257582 42.3749205,57.1827047 C42.3749205,57.1827047 43.7224532,58.5976726 45.8413664,59.3714614 C25.9066916,65.4089412 3.70304981,59.8475848 17.9692796,54.9433962" id="Path" fill="#5382A1"></path>
                        <path d="M34.5864531,39.1484682 C38.6880989,43.7439192 33.5087857,47.8792453 33.5087857,47.8792453 C33.5087857,47.8792453 43.9235647,42.647247 39.1405268,36.0955401 C34.6733176,29.9856689 31.2475633,26.9499147 49.7932084,16.4830189 C49.7932084,16.4830189 20.6826626,23.5581934 34.5864531,39.1484682" id="Path" fill="#E76F00"></path>
                        <path d="M56.8609034,70.543265 C56.8609034,70.543265 59.2460133,72.4349847 54.2341452,73.8984689 C44.7039351,76.6775136 14.5683936,77.5166974 6.19686682,74.0091931 C3.18751819,72.7489949 8.83089931,71.0001661 10.6060922,70.6332011 C12.4574394,70.2467606 13.5154171,70.3187534 13.5154171,70.3187534 C10.1687159,68.049346 -8.11629351,74.7748527 4.22753707,76.7009275 C37.8909591,81.9559476 65.5927427,74.334582 56.8609034,70.543265" id="Path" fill="#5382A1"></path>
                        <path d="M21.7548642,45.5375933 C21.7548642,45.5375933 6.60026907,49.0025669 16.3882438,50.2608266 C20.5210292,50.7934668 28.7596309,50.672963 36.43368,50.0540013 C42.7053374,49.5447264 49.00284,48.4619221 49.00284,48.4619221 C49.00284,48.4619221 46.7913763,49.3735979 45.1914361,50.4252485 C29.8022101,54.3213964 0.0730797116,52.5088623 8.63171431,48.5235803 C15.8697634,45.1555291 21.7548642,45.5375933 21.7548642,45.5375933" id="Path" fill="#5382A1"></path>
                        <path d="M48.5312685,60.8111382 C64.39318,52.6463091 57.0592561,44.7999832 51.9402761,45.8570701 C50.6855971,46.1157552 50.1261643,46.3399037 50.1261643,46.3399037 C50.1261643,46.3399037 50.5919407,45.6171207 51.481564,45.3042609 C61.6085496,41.7774773 69.3968554,55.7060603 48.2124716,61.2226415 C48.2124716,61.2228671 48.4578928,61.0054903 48.5312685,60.8111382" id="Path" fill="#5382A1"></path>
                        <path d="M39.6829422,0 C39.6829422,0 48.2832673,8.62514683 31.5259075,21.8881861 C18.0882062,32.5274254 28.4616929,38.5936347 31.5203301,45.5245283 C23.6765212,38.4294655 17.9202154,32.1836542 21.7819956,26.3706321 C27.4501789,17.8376348 43.1529671,13.7005256 39.6829422,0" id="Path" fill="#E76F00"></path>
                        <path d="M22.8942272,82.9395949 C37.9621793,83.8945396 61.1007267,82.4097647 61.6487342,75.3509434 C61.6487342,75.3509434 60.595342,78.0268876 49.195883,80.1520136 C36.3350705,82.548195 20.4730713,82.2684321 11.0651574,80.7327505 C11.0651574,80.7325272 12.9910769,82.3108541 22.8942272,82.9395949" id="Path" fill="#5382A1"></path>
                    </g>
                    <g filter="url(#filter-5)" id="Group-2-Copy-5">
                        <g transform="translate(24.819620, 12.790606)" id="Group-3">
                            <g id="Group">
                                <text id="IT" fill-rule="nonzero" font-family="CinzelRoman-Bold, Cinzel" font-size="9.402316" font-weight="bold" fill="#A1956B">
                                    <tspan x="20.6764782" y="9">IT </tspan>
                                </text>
                                <text id="Skills" fill-rule="nonzero" font-family="CinzelRoman-Black, Cinzel" font-size="9.402316" font-weight="700" fill="#A2945F">
                                    <tspan x="20.7050839" y="17.8187881">Skills</tspan>
                                </text>
                                <g filter="url(#filter-6)" id="ajustes">
                                    <g transform="translate(0.000000, 1.515434)">
                                        <path d="M11.3504385,10.647632 L11.012993,10.647632 C10.8860675,10.6478647 10.7725248,10.56776 10.7289253,10.4471569 C10.6914995,10.3478503 10.6513128,10.2507161 10.6080585,10.1545129 C10.5542973,10.0375173 10.5788388,9.89899244 10.6694122,9.80818125 L10.9099188,9.56456985 C11.2669591,9.20020013 11.2663072,8.61258461 10.9083849,8.2490683 L10.0414568,7.37206726 C9.68165562,7.01021899 9.10055918,7.01021899 8.74075795,7.37206726 L8.50025136,7.61505799 C8.41029147,7.70633468 8.27358771,7.73112253 8.15789759,7.67712459 C8.06279933,7.63336764 7.96678075,7.59271402 7.86830803,7.55299139 C7.74847654,7.50919565 7.66875505,7.39390694 7.6692152,7.26500238 L7.6692152,6.92363608 C7.6692152,6.40945311 7.25718661,5.9926371 6.74890938,5.9926371 L5.52183495,5.9926371 C5.01355771,5.9926371 4.60152912,6.40945311 4.60152912,6.92363608 L4.60152912,7.26500238 C4.6017592,7.39340265 4.52257455,7.50826465 4.4033566,7.55237073 C4.30519065,7.59023135 4.20917207,7.63088497 4.1140738,7.67464193 C3.99838369,7.72875624 3.86164158,7.70396839 3.77172004,7.61257533 L3.53090668,7.36927426 C3.17114379,7.00765874 2.59027743,7.00765874 2.23051455,7.36927426 L1.36358646,8.2490683 C1.00589427,8.61305011 1.00589427,9.20089838 1.36358646,9.56488019 L1.60378628,9.80818125 C1.69435971,9.89899244 1.7189012,10.0375173 1.66514,10.1545129 C1.62188563,10.2507161 1.58169894,10.3478503 1.5439664,10.4474672 C1.50006015,10.5687686 1.38544373,10.6489509 1.25775129,10.647632 L0.920305824,10.647632 C0.412028587,10.647632 0,11.064448 0,11.578631 L0,12.8199629 C0,13.3341459 0.412028587,13.7509619 0.920305824,13.7509619 L1.25775129,13.7509619 C1.3846768,13.7507292 1.49821954,13.8308339 1.54181902,13.951437 C1.57924479,14.0507436 1.61943148,14.1478778 1.66268586,14.2440811 C1.71644705,14.3610766 1.69190557,14.4996015 1.60133213,14.5904127 L1.36082555,14.8340241 C1.00336342,15.1979671 1.00336342,15.7855826 1.36082555,16.1495256 L2.22775363,17.0265267 C2.58755486,17.3883749 3.1686513,17.3883749 3.52845253,17.0265267 L3.76895912,16.7835359 C3.85891901,16.6922592 3.99562277,16.6674714 4.11131289,16.7214693 C4.20641115,16.7652263 4.30242973,16.8058799 4.40090245,16.8456025 C4.52134748,16.888894 4.6017592,17.0042991 4.60152912,17.1335916 L4.60152912,17.4749578 C4.60152912,17.9891408 5.01355771,18.4059568 5.52183495,18.4059568 L6.74890938,18.4059568 C7.25718661,18.4059568 7.6692152,17.9891408 7.6692152,17.4749578 L7.6692152,17.1335916 C7.66898512,17.0051913 7.74816977,16.8903293 7.86738772,16.8462232 C7.96555368,16.8083626 8.06157225,16.767709 8.15667052,16.723952 C8.27236063,16.6698377 8.40910274,16.6946255 8.49902429,16.7860186 L8.73983764,17.0293197 C9.10009903,17.3903533 9.680812,17.3896551 10.0402298,17.027768 L10.9071579,16.150767 C11.2648501,15.7867852 11.2648501,15.1989369 10.9071579,14.8349551 L10.666958,14.591654 C10.5763846,14.5008428 10.5518431,14.3623179 10.6056043,14.2453224 C10.6488587,14.1491192 10.6890454,14.0519849 10.7283118,13.952368 C10.7716045,13.8311442 10.885569,13.7504964 11.012993,13.7509619 L11.3504385,13.7509619 C11.8587157,13.7509619 12.2707443,13.3341459 12.2707443,12.8199629 L12.2707443,11.578631 C12.2707443,11.064448 11.8587157,10.647632 11.3504385,10.647632 Z M11.6572071,12.8199629 C11.6572071,12.9913443 11.5198515,13.1302959 11.3504385,13.1302959 L11.012993,13.1302959 C10.6316413,13.1317312 10.2903612,13.3701833 10.1540409,13.73048 C10.1215235,13.8173732 10.0863601,13.9029087 10.0485125,13.9871253 C9.89079511,14.3393533 9.96395943,14.7534927 10.2325737,15.0286029 L10.4724667,15.2715936 C10.5923366,15.392701 10.5924516,15.5892194 10.4726968,15.710482 C10.4726201,15.7105596 10.4725434,15.7106372 10.4724667,15.7107148 L9.60553866,16.5877158 C9.48574551,16.7088621 9.29156099,16.7088621 9.17176784,16.5877158 L8.93126126,16.3447251 C8.65942592,16.072757 8.24988983,15.9987038 7.90174581,16.1585253 C7.81861151,16.1966962 7.73394338,16.2323845 7.6486617,16.2652798 C7.29277177,16.4031453 7.05721183,16.7480804 7.05567799,17.1335916 L7.05567799,17.4749578 C7.05567799,17.6463392 6.91832234,17.7852908 6.74890938,17.7852908 L5.52183495,17.7852908 C5.35242198,17.7852908 5.21506634,17.6463392 5.21506634,17.4749578 L5.21506634,17.1335916 C5.21364753,16.7478088 4.9779342,16.4025634 4.62177585,16.2646592 C4.53588064,16.2317639 4.45132754,16.196192 4.36807821,16.1579046 C4.01989584,15.9984323 3.61055148,16.0724855 3.33856276,16.3441044 L3.09836294,16.5867848 C2.97864649,16.7080474 2.78438527,16.7081638 2.66451544,16.5870176 C2.66443875,16.58694 2.66436205,16.5868624 2.66428536,16.5867848 L1.79735727,15.7107148 C1.67760248,15.5895297 1.67760248,15.393089 1.79735727,15.2719039 L2.03755709,15.0286029 C2.30617136,14.7534927 2.37933567,14.3393533 2.22161826,13.9871253 C2.18388572,13.9030251 2.14860733,13.8173732 2.11608986,13.7311006 C1.98011467,13.3706876 1.63906467,13.1320028 1.25775129,13.1302959 L0.920305824,13.1302959 C0.75089286,13.1302959 0.613537216,12.9913443 0.613537216,12.8199629 L0.613537216,11.578631 C0.613537216,11.4072496 0.75089286,11.268298 0.920305824,11.268298 L1.25775129,11.268298 C1.63910302,11.2668627 1.9803831,11.0284106 2.1167034,10.668114 C2.14922087,10.5812207 2.18438422,10.4956852 2.2222318,10.4114686 C2.37994921,10.0592406 2.30674655,9.64510126 2.03817063,9.36999107 L1.79705051,9.12700033 C1.67718067,9.00589288 1.67706563,8.80937452 1.79682043,8.6881119 C1.79689712,8.68803431 1.79697381,8.68795673 1.79705051,8.68787915 L2.66397859,7.81087811 C2.78377173,7.68973187 2.97795626,7.68973187 3.0977494,7.81087811 L3.33825599,8.05386884 C3.61009133,8.32583692 4.01962742,8.39989013 4.36777144,8.24006864 C4.45090573,8.20189768 4.53557387,8.16620939 4.62085554,8.13331409 C4.97724397,7.99587537 5.21334076,7.65082387 5.21506634,7.26500238 L5.21506634,6.92363608 C5.21506634,6.75225469 5.35242198,6.61330309 5.52183495,6.61330309 L6.74890938,6.61330309 C6.91832234,6.61330309 7.05567799,6.75225469 7.05567799,6.92363608 L7.05567799,7.26500238 C7.05709679,7.65078508 7.29281012,7.99603053 7.64896847,8.13393476 C7.73486368,8.16683005 7.81941678,8.20240197 7.90266611,8.24068931 C8.25081014,8.4005108 8.66034623,8.32645759 8.93218156,8.05448951 L9.17238138,7.81180911 C9.29263468,7.69147749 9.48620567,7.69147749 9.60645896,7.81180911 L10.473387,8.68881015 C10.5931418,8.80999518 10.5931418,9.00643597 10.473387,9.127621 L10.2331872,9.37092207 C9.96461131,9.64603226 9.89140865,10.0601716 10.0491261,10.4123996 C10.0868586,10.4964998 10.122137,10.5821517 10.1546545,10.6684243 C10.2909364,11.0284494 10.6319097,11.2667463 11.012993,11.268298 L11.3504385,11.268298 C11.5198515,11.268298 11.6572071,11.4072496 11.6572071,11.578631 L11.6572071,12.8199629 L11.6572071,12.8199629 Z" id="Shape" fill="#000000" fill-rule="nonzero"></path>
                                        <path d="M8.87987693,12.0747531 C8.87682172,12.0005833 8.87162787,11.9267226 8.86276778,11.8531709 C8.85299112,11.7740564 8.84138134,11.69556 8.82518875,11.6186089 C8.81449553,11.5682352 8.80044158,11.5184796 8.78699868,11.468415 C8.76988953,11.4047526 8.75064173,11.3420173 8.72925529,11.2802091 C8.71428479,11.2372525 8.69870324,11.1946048 8.68281617,11.1522662 C8.6434804,11.0532959 8.5984925,10.956682 8.54808161,10.863004 C8.54410984,10.8558961 8.54166567,10.84817 8.53769391,10.8410621 C8.45822037,10.6979762 8.36618231,10.5623459 8.26272541,10.4359096 C8.25386531,10.4247841 8.24378313,10.4142767 8.23461752,10.4034603 C8.19245568,10.3530866 8.14907176,10.3042582 8.1035492,10.257593 C8.0797186,10.2325607 8.05466591,10.2090736 8.02961323,10.1849684 C7.99906117,10.1562276 7.96850911,10.1277958 7.93795706,10.1006002 C7.9008745,10.0680351 7.86310452,10.0365129 7.82460893,10.0060337 L7.77450356,9.96833076 C7.3017487,9.61015243 6.72694996,9.41669286 6.13630235,9.41700153 C6.1057503,9.41700153 6.07519824,9.42163752 6.04464619,9.42287368 C5.97957031,9.42472792 5.91418891,9.42843641 5.84850199,9.43523531 C5.81397817,9.4389438 5.77914882,9.44296133 5.744625,9.44790599 C5.6450253,9.46115611 5.5461894,9.47985308 5.44857558,9.50384238 C3.97745593,9.88836645 3.0930503,11.4064523 3.47319425,12.8945226 C3.72372111,13.8751092 4.48110656,14.6406033 5.45071423,14.8932056 C5.45560256,14.8932056 5.46079641,14.8947508 5.46599026,14.895987 C5.57150942,14.9226031 5.67840342,14.9432702 5.7861758,14.9577951 C5.85736209,14.9667573 5.92854837,14.9686116 6.00004018,14.972011 C6.04770139,14.9744833 6.09169635,14.9815913 6.1414962,14.9815913 C6.22856956,14.9815913 6.31900364,14.9757195 6.41127085,14.9664483 C6.42104751,14.9664483 6.43082417,14.9636669 6.44182291,14.9624308 C6.5160644,14.9540867 6.59122246,14.9429612 6.66790812,14.9275091 C6.69846017,14.9216374 6.72687358,14.9139113 6.75620356,14.9071124 C6.80997517,14.8944418 6.86344127,14.881153 6.91843497,14.8647738 C6.96120785,14.8517941 7.00275864,14.8366511 7.04461496,14.8218172 C7.08647127,14.8069832 7.12985519,14.7909131 7.17323911,14.7742249 C7.21662303,14.7575367 7.25297998,14.7383761 7.29239213,14.7198337 C7.34371958,14.6960375 7.39474151,14.6725504 7.44515241,14.6447368 L7.44698553,14.6447368 C7.73211259,14.4903322 7.9954713,14.2979543 8.23003471,14.0727022 C8.29339203,14.0129028 8.3485003,13.944682 8.39379373,13.8699714 C8.63225252,13.483284 8.78890818,13.05082 8.85390768,12.5998135 C8.86246226,12.5401686 8.87010027,12.4805238 8.87468308,12.4196427 C8.87896037,12.3637063 8.88201557,12.308079 8.88323765,12.2524516 C8.88323765,12.2348363 8.88569737,12.2181481 8.88569737,12.2005328 C8.88598734,12.156958 8.88171005,12.1167827 8.87987693,12.0747531 Z M8.27097446,12.2771749 C8.27097446,12.3028253 8.26883582,12.3284757 8.26730822,12.353817 C8.26180885,12.4286049 8.25233771,12.5033928 8.23981137,12.5784897 C8.12562306,13.2210242 7.73123421,13.7772978 7.16621214,14.0927898 C7.12832759,14.1128775 7.09105408,14.131729 7.05378058,14.1490353 L7.02842237,14.1613969 C6.85091493,14.2429064 6.66355445,14.3002721 6.47115288,14.3319874 C6.45770997,14.3341507 6.44396155,14.3366231 6.43021312,14.3384773 C6.39202306,14.34404 6.35444403,14.3486756 6.31717052,14.3520751 C6.26798171,14.3564017 6.21848738,14.358874 6.16807649,14.3598011 C6.14669005,14.3598011 6.12560913,14.3598011 6.10422269,14.3598011 C6.03192889,14.3589513 5.95974966,14.3544315 5.88791414,14.3462033 L5.85125167,14.3418767 C5.76723352,14.3307513 5.68390279,14.3148743 5.60164138,14.2942845 C4.45739053,13.9980302 3.76721959,12.8195802 4.06006105,11.662145 C4.25357013,10.8973462 4.8436067,10.299893 5.59950274,10.1033816 L5.59950274,10.1030726 C5.7750243,10.0583003 5.95528142,10.0354313 6.13630235,10.0350836 C6.22364304,10.0355858 6.31090735,10.0415734 6.39752243,10.053008 C6.42074199,10.0557893 6.44365603,10.0601159 6.46657007,10.0635153 C6.53256251,10.0740227 6.59794391,10.0873115 6.66240875,10.1039997 C6.68348966,10.1095624 6.70457058,10.1145071 6.72534598,10.1203789 C6.88780653,10.1678166 7.04419487,10.2344149 7.19126482,10.3187831 C7.21478991,10.3326899 7.23770395,10.3472148 7.26092351,10.3617398 C7.30919576,10.3926438 7.3559404,10.4235479 7.40207401,10.4587786 C7.42682117,10.477012 7.45187386,10.4949364 7.47570446,10.5144059 C7.53566287,10.5628481 7.59306254,10.6144193 7.64771253,10.6689264 C7.66940449,10.6911773 7.68926333,10.7155915 7.71034425,10.7387696 C7.74547911,10.7773997 7.77969741,10.8169569 7.81238811,10.8586774 C7.83499663,10.8874182 7.85668859,10.9170861 7.87807503,10.9470631 C7.90862709,10.991565 7.93917914,11.0379211 7.96667599,11.0848953 C7.98195202,11.1105457 7.99722805,11.135578 8.0128096,11.1618465 C8.05222175,11.2352051 8.08731842,11.3108428 8.11790867,11.3883734 C8.13012949,11.4192775 8.14051719,11.4501816 8.15151593,11.4810857 C8.17137476,11.5379492 8.18848391,11.5954308 8.20345442,11.6535305 C8.21109243,11.6844346 8.21964701,11.7119392 8.22606294,11.7419162 C8.2438977,11.8254344 8.25684414,11.9099571 8.26486405,11.9950206 C8.26669718,12.0175806 8.26669718,12.0404496 8.26822478,12.0630096 C8.27250207,12.134089 8.27372415,12.2054774 8.27097446,12.2771749 Z" id="Shape" fill="#000000" fill-rule="nonzero"></path>
                                        <path d="M17.2895522,6.40840528 L16.3408108,6.40840528 C16.2142994,6.40970222 16.1011368,6.32910127 16.0596576,6.20821891 C15.9661033,5.92476141 15.8529029,5.6482845 15.720886,5.3809243 C15.6648515,5.26545857 15.6881929,5.12664794 15.778806,5.03639623 L16.4515225,4.35496913 C16.8046232,3.99750981 16.8046232,3.41823575 16.4515225,3.06077643 L15.1688362,1.76536307 C14.8154715,1.40817077 14.242833,1.40817077 13.8894683,1.76536307 L13.2170535,2.44526436 C13.1279487,2.5368893 12.9909167,2.56061565 12.8767736,2.50416066 C12.6124383,2.36992745 12.3390529,2.25480503 12.0586539,2.15963258 C11.938666,2.11809238 11.8584227,2.00350399 11.8595539,1.87522145 L11.8595539,0.915486469 C11.8595539,0.409870921 11.454378,0 10.9545542,0 L9.14455479,0 C8.64473099,0 8.23955508,0.409870921 8.23955508,0.915486469 L8.23955508,1.87522145 C8.24083716,2.00319883 8.16119719,2.11767278 8.04166181,2.15963258 C7.76141356,2.25476688 7.48810365,2.36981302 7.22384373,2.50385549 C7.10970064,2.56073009 6.97240465,2.53711817 6.88326217,2.44526436 L6.20964072,1.76475275 C5.85586125,1.40859037 5.28405226,1.40859037 4.93027279,1.76475275 L3.64999986,3.05986094 C3.2967106,3.41735841 3.2967106,3.99686134 3.64999986,4.35435881 L4.63916455,5.35681649 C4.75881305,5.47407505 4.9498057,5.47102343 5.06572108,5.34995035 C5.17880834,5.23185259 5.1790723,5.04433045 5.06632442,4.92592753 L4.0765564,3.92377501 C3.95879331,3.80460919 3.95879331,3.61144154 4.0765564,3.49227572 L5.35682932,2.19716753 C5.47463012,2.07803985 5.66558506,2.07803985 5.78338586,2.19716753 L6.45730898,2.87767914 C6.72997785,3.15514783 7.14778605,3.22449593 7.49383531,3.04979059 C7.73279295,2.92875565 7.97985787,2.82484794 8.23322008,2.73883035 C8.59891538,2.61359943 8.84447197,2.26579087 8.84288822,1.87522145 L8.84288822,0.915486469 C8.84288822,0.746960668 8.97795943,0.610324313 9.14455479,0.610324313 L10.9545542,0.610324313 C11.1211496,0.610324313 11.2562208,0.746960668 11.2562208,0.915486469 L11.2562208,1.87522145 C11.2546747,2.26571458 11.5002313,2.61340871 11.8658889,2.73852519 C12.1193643,2.82458092 12.3665423,2.92856492 12.6055754,3.04979059 C12.9517,3.22358044 13.3689426,3.15415605 13.6418,2.87737397 L14.3157232,2.19716753 C14.433524,2.07803985 14.6244789,2.07803985 14.7422797,2.19716753 L16.0225526,3.49258088 C16.1401272,3.61170856 16.1401272,3.80464733 16.0225526,3.92377501 L15.3498362,4.60550726 C15.0758098,4.88148829 15.0072938,5.30394715 15.1796962,5.65404443 C15.2993447,5.89577101 15.4020622,6.14569881 15.4870944,6.40199688 C15.6108155,6.77200599 15.9546776,7.02040799 16.3408108,7.0187296 L17.2895522,7.0187296 C17.4561476,7.0187296 17.5912188,7.15536595 17.5912188,7.32389175 L17.5912188,9.15486469 C17.5912188,9.32339049 17.4561476,9.46002685 17.2895522,9.46002685 L16.3408108,9.46002685 C15.9547908,9.45846289 15.6110794,9.70686489 15.4873961,10.0767596 C15.4023639,10.3331721 15.2995333,10.5832143 15.1796962,10.8250172 C15.0075954,11.1751145 15.0762623,11.5973444 15.3501378,11.8732492 L16.0228543,12.5549814 C16.1406174,12.6741473 16.1406174,12.8673149 16.0228543,12.9864807 L14.741978,14.2815889 C14.6242149,14.4005259 14.4334862,14.4005259 14.3157232,14.2815889 L13.3244468,13.2809622 C13.2085314,13.1598891 13.0175388,13.1568375 12.8978903,13.2740961 C12.7782041,13.3913546 12.7751874,13.5845604 12.8911028,13.7055954 C12.8935161,13.7081129 12.8960049,13.7106305 12.8984936,13.7130718 L13.8894683,14.7136985 C14.242833,15.0708908 14.8154715,15.0708908 15.1688362,14.7136985 L16.4491091,13.4188955 C16.8023984,13.061398 16.8023984,12.4818951 16.4491091,12.1243976 L15.7772977,11.4435809 C15.6867977,11.3534054 15.6633809,11.2148237 15.719076,11.099358 C15.8517716,10.8319596 15.9655753,10.5554064 16.0596576,10.2717582 C16.100722,10.1503799 16.2139978,10.0692068 16.3408108,10.0703512 L17.2895522,10.0703512 C17.789376,10.0703512 18.1945519,9.66048024 18.1945519,9.15486469 L18.1945519,7.32389175 C18.1945519,6.81827621 17.789376,6.40840528 17.2895522,6.40840528 Z" id="Path" fill="#000000" fill-rule="nonzero"></path>
                                        <path d="M12.889215,4.937746 C11.4541524,3.49063076 9.13067725,3.49063076 7.69561461,4.937746 C7.58723803,5.05115148 7.5903456,5.23189369 7.70257133,5.34140955 C7.81204262,5.44824907 7.98560758,5.44824907 8.09507887,5.34140955 C9.300499,4.10686712 11.2680512,4.09355678 12.4897508,5.31164864 C13.7114503,6.5297405 13.7246222,8.51797615 12.5192021,9.75251858 C12.5094556,9.76251025 12.4996385,9.77243055 12.4897508,9.78227948 C12.377525,9.89183103 12.3744175,10.0725376 12.4828293,10.185943 C12.5912412,10.2993485 12.7700679,10.3024887 12.8822936,10.1929372 C12.8846243,10.1906534 12.886955,10.1882982 12.889215,10.185943 C14.321276,8.73579459 14.321276,6.38789444 12.889215,4.937746 Z" id="Path" fill="#000000" fill-rule="nonzero"></path>
                                    </g>
                                </g>
                            </g>
                            <rect id="Rectangle-Copy-3" fill="url(#linearGradient-7)" x="33.2016722" y="1.7825348" width="14.3863899" height="7.70481913"></rect>
                            <rect id="Rectangle-Copy-2" fill="#A79870" x="48.5121761" y="1.7825348" width="3.80816203" height="7.70481913"></rect>
                            <rect id="Rectangle-Copy-20" fill="#A79870" x="51.471118" y="3.14220877" width="1.26938734" height="5.13654609"></rect>
                        </g>
                    </g>
                </g>
                <ellipse id="Oval" fill="#171B23" cx="86.8686709" cy="68.4" rx="14.0110759" ry="14"></ellipse>
                <text id="2" font-family="OpenSans-Bold, Open Sans" font-size="12.544" font-weight="bold" fill="#FFFFFF">
                    <tspan x="83.2886084" y="72.2">2</tspan>
                </text>
            </g>
        </g>
    </g>
</svg>