<?xml version="1.0" encoding="UTF-8"?>
<svg width="286px" height="235px" viewBox="0 0 286 235" version="1.1" xmlns="http://www.w3.org/2000/svg" xmlns:xlink="http://www.w3.org/1999/xlink">
    <title>Artboard Copy 9</title>
    <defs>
        <linearGradient x1="49.9918241%" y1="100%" x2="49.9918241%" y2="-0.0776833077%" id="linearGradient-1">
            <stop stop-color="#808080" stop-opacity="0.25" offset="0%"></stop>
            <stop stop-color="#808080" stop-opacity="0.12" offset="54%"></stop>
            <stop stop-color="#808080" stop-opacity="0.1" offset="100%"></stop>
        </linearGradient>
    </defs>
    <g id="Artboard-Copy-9" stroke="none" stroke-width="1" fill="none" fill-rule="evenodd">
        <g id="undraw_programming_2svr-copy" transform="translate(44.000000, 67.000000)">
            <rect id="Rectangle" fill="#3F3D56" fill-rule="nonzero" x="28" y="48" width="4" height="15"></rect>
            <rect id="Rectangle" fill="#3F3D56" fill-rule="nonzero" x="162" y="48" width="4" height="15"></rect>
            <polygon id="Path" fill="#65617D" fill-rule="nonzero" points="199 117.639175 199 121.123711 159.063303 121.498969 158.637437 121.50701 143.458758 121.649072 143.095984 121.654433 138.482444 121.694639 138.345746 121.694639 110.222867 121.96 64.0585469 122.396907 64.0191149 122.396907 52.2815324 122.509485 52.1553501 122.512165 0 123 0 118.979381 12.2633421 111.474227 36.8688904 111.265155 37.3946499 111.262474 37.5681506 111.259794 38.0939102 111.251753 49.9077279 111.152577 50.4361162 111.149897 50.6043593 111.147216 51.1301189 111.144536 54.9182166 111.112371 55.018111 111.109691 64.3634875 111.029278 64.4397226 111.029278 137.362576 110.402062 139.14753 110.38866 139.326288 110.38866 140.688005 110.375258 150.585429 110.292165 151.111189 110.284124 151.597517 110.278763 151.849881 110.278763 154.928203 110.254639 155.538085 110.246598 156.355641 110.241237 158.918719 110.217113 162.985469 110.182268 163.511229 110.176907 164.42605 110.171546 164.596922 110.171546 184.236671 110"></polygon>
            <polygon id="Path" fill="#000000" fill-rule="nonzero" opacity="0.2" points="199 117.639175 199 121.123711 159.063303 121.498969 158.637437 121.50701 143.458758 121.649072 143.095984 121.654433 138.482444 121.694639 138.345746 121.694639 110.222867 121.96 64.0585469 122.396907 64.0191149 122.396907 52.2815324 122.509485 52.1553501 122.512165 0 123 0 118.979381 12.2633421 111.474227 36.8688904 111.265155 37.3946499 111.262474 37.5681506 111.259794 38.0939102 111.251753 49.9077279 111.152577 50.4361162 111.149897 50.6043593 111.147216 51.1301189 111.144536 54.9182166 111.112371 55.018111 111.109691 64.3634875 111.029278 64.4397226 111.029278 137.362576 110.402062 139.14753 110.38866 139.326288 110.38866 140.688005 110.375258 150.585429 110.292165 151.111189 110.284124 151.597517 110.278763 151.849881 110.278763 154.928203 110.254639 155.538085 110.246598 156.355641 110.241237 158.918719 110.217113 162.985469 110.182268 163.511229 110.176907 164.42605 110.171546 164.596922 110.171546 184.236671 110"></polygon>
            <path d="M50,105 L50,112.025753 C50.0002801,112.704982 49.6536712,113.323668 49.1096035,113.615082 C48.9111237,113.723607 48.6941439,113.782331 48.4736061,113.787212 L39.5950824,113.999505 C39.3579668,114.005918 39.1227883,113.94993 38.9082052,113.835982 C38.354255,113.54966 37.9993482,112.925221 38,112.238046 L38,105 L50,105 Z" id="Path" fill="#3F3D56" fill-rule="nonzero"></path>
            <path d="M50,105 L50,112.025753 C50.0002801,112.704982 49.6536712,113.323668 49.1096035,113.615082 C48.9111237,113.723607 48.6941439,113.782331 48.4736061,113.787212 L39.5950824,113.999505 C39.3579668,114.005918 39.1227883,113.94993 38.9082052,113.835982 C38.354255,113.54966 37.9993482,112.925221 38,112.238046 L38,105 L50,105 Z" id="Path" fill="#000000" fill-rule="nonzero" opacity="0.1"></path>
            <path d="M50,105 L50,112.025753 C50.0002801,112.704982 49.6536712,113.323668 49.1096035,113.615082 C48.9111237,113.723607 48.6941439,113.782331 48.4736061,113.787212 L39.5950824,113.999505 C39.3579668,114.005918 39.1227883,113.94993 38.9082052,113.835982 C38.354255,113.54966 37.9993482,112.925221 38,112.238046 L38,105 L50,105 Z" id="Path" fill="#3F3D56" fill-rule="nonzero"></path>
            <rect id="Rectangle" fill="#3F3D56" fill-rule="nonzero" x="151" y="105" width="12" height="9"></rect>
            <rect id="Rectangle" fill="#000000" fill-rule="nonzero" opacity="0.1" x="151" y="105" width="12" height="9"></rect>
            <rect id="Rectangle" fill="#3F3D56" fill-rule="nonzero" x="151" y="105" width="12" height="9"></rect>
            <polygon id="Path" fill="#000000" fill-rule="nonzero" opacity="0.1" points="32 48 32 49 28 48.9144852 28 48"></polygon>
            <path d="M64.9888662,5.49072025 L58.9067365,48.0371432 C58.8268949,48.5998141 58.3256344,49.0142194 57.7425268,49 L9.04286363,47.7699309 L8.11842254,47.7465823 C7.79289099,47.7390685 7.48602511,47.5970045 7.27453147,47.3559016 C7.06303783,47.1147988 6.96690347,46.7974423 7.01015887,46.483161 L13.8382353,1.94432024 C13.9294818,1.37239889 14.4547417,0.963426018 15.0477346,1.00259148 L63.9232281,4.22470473 C64.2420324,4.24269844 64.5385663,4.3897571 64.7410044,4.63026071 C64.9434426,4.87076432 65.0333197,5.18277557 64.9888662,5.49072025 L64.9888662,5.49072025 Z" id="Path" fill="#65617D" fill-rule="nonzero"></path>
            <polygon id="Path" fill="#00B0FF" fill-rule="nonzero" points="19.0205131 5 14 44.6050683 57.6340507 46 63 7.7898634"></polygon>
            <rect id="Rectangle" fill="#65617D" fill-rule="nonzero" x="73" y="3" width="54" height="46" rx="1.066"></rect>
            <rect id="Rectangle" fill="#00B0FF" fill-rule="nonzero" x="75" y="5" width="49" height="38"></rect>
            <polygon id="Path" fill="#000000" fill-rule="nonzero" opacity="0.1" points="166 47 166 47.9066986 162 48 162 47"></polygon>
            <path d="M188.998276,46.1222086 C189.012646,46.342062 188.936705,46.5582627 188.788007,46.7208389 C188.639309,46.883415 188.430724,46.9782949 188.210463,46.9835485 L139.050937,48 C138.627347,48.0085761 138.268787,47.6889658 138.228986,47.2671604 L134.003682,3.33882707 C133.982602,3.11858562 134.052663,2.89932273 134.197547,2.73211166 C134.34243,2.56490058 134.549487,2.46433972 134.770487,2.45385288 L183.557115,0.0273954406 L184.082324,0.00113507872 C184.516293,-0.0217292148 184.890292,0.30348591 184.92791,0.736425211 L188.998276,46.1222086 Z" id="Path" fill="#65617D" fill-rule="nonzero"></path>
            <polygon id="Path" fill="#00B0FF" fill-rule="nonzero" points="138 5.19192308 182.261739 3 186 42.9487179 142.087826 44"></polygon>
            <path d="M190.997783,46.1383585 C191.016263,46.3582889 190.918597,46.5745653 190.727359,46.7371983 C190.536121,46.8998314 190.267864,46.9947446 189.984591,47 L184,0.0274050332 L184.675462,0.00113547618 C185.233583,-0.0217368233 185.714575,0.303592177 185.762955,0.736683074 L190.997783,46.1383585 Z" id="Path" fill="#000000" fill-rule="nonzero" opacity="0.1"></path>
            <path d="M16,1.00313305 L9.28232325,48 L8.24952137,47.9765381 C7.88583179,47.9689879 7.54299582,47.8262346 7.30671139,47.5839618 C7.07042697,47.3416891 6.96302397,47.0227927 7.01134967,46.7069866 L14.639797,1.95203806 C14.7405814,1.37309539 15.3332043,0.959669769 16,1.00313305 L16,1.00313305 Z" id="Path" fill="#000000" fill-rule="nonzero" opacity="0.1"></path>
            <rect id="Rectangle" fill="#000000" fill-rule="nonzero" opacity="0.1" x="28" y="59" width="4" height="4"></rect>
            <polygon id="Path" fill="#000000" fill-rule="nonzero" opacity="0.1" points="50 106 50 106.797753 38 107 38 106"></polygon>
            <path d="M73,60.0463576 L73,104.602649 C72.993315,105.167539 72.543354,105.627861 71.977193,105.649007 L21.0626566,107 L21.0493734,107 C20.4728136,106.992858 20.0071631,106.528545 20,105.953642 L20,60.0463576 C20.0071631,59.4714548 20.4728136,59.0071425 21.0493734,59 L71.9506266,59 C72.5271864,59.0071425 72.9928369,59.4714548 73,60.0463576 Z" id="Path" fill="#65617D" fill-rule="nonzero"></path>
            <path d="M21,59 L21,107 L20.9875,107 C20.4449354,106.992858 20.0067407,106.528545 20,105.953642 L20,60.0463576 C20.0067407,59.4714548 20.4449354,59.0071425 20.9875,59 L21,59 Z" id="Path" fill="#000000" fill-rule="nonzero" opacity="0.1"></path>
            <polygon id="Path" fill="#D4DFEC" fill-rule="nonzero" points="23 62 70 62 70 100.949097 23 102"></polygon>
            <rect id="Rectangle" fill="#000000" fill-rule="nonzero" opacity="0.1" x="162" y="59" width="4" height="4"></rect>
            <polygon id="Path" fill="#000000" fill-rule="nonzero" opacity="0.1" points="163 106 163 107 151 106.803432 151 106"></polygon>
            <path d="M179,60.0463576 L179,105.953642 C178.99273,106.533666 178.51918,107 177.937556,107 L177.937556,107 L127.022602,105.649007 C126.456555,105.627861 126.006684,105.167539 126,104.602649 L126,60.0463576 C126.007162,59.4714548 126.472719,59.0071425 127.049163,59 L177.940212,59 C178.520802,59.0014024 178.992744,59.4673646 179,60.0463576 Z" id="Path" fill="#65617D" fill-rule="nonzero"></path>
            <path d="M179,60.0463576 L179,105.953642 C178.993157,106.533666 178.54744,107 178,107 L178,107 L178,59 L178,59 C178.54744,59 178.993157,59.4663343 179,60.0463576 Z" id="Path" fill="#000000" fill-rule="nonzero" opacity="0.1"></path>
            <polygon id="Path" fill="#D4DFEC" fill-rule="nonzero" points="176 62 129 62 129 100.949097 176 102"></polygon>
            <path d="M125,60.0463576 L125,104.602649 C124.993315,105.167539 124.543354,105.627861 123.977193,105.649007 L73.0626566,107 L73.0626566,107 C72.4809161,107 72.0072718,106.533666 72,105.953642 L72,60.0463576 C72.0071631,59.4714548 72.4728136,59.0071425 73.0493734,59 L123.950627,59 C124.527186,59.0071425 124.992837,59.4714548 125,60.0463576 Z" id="Path" fill="#65617D" fill-rule="nonzero"></path>
            <polygon id="Path" fill="#D4DFEC" fill-rule="nonzero" points="76 62 123 62 123 100.949097 76 102"></polygon>
            <polygon id="Path" fill="#000000" fill-rule="nonzero" opacity="0.1" points="199 119 199 121.6 159.063303 121.88 158.637437 121.886 143.458758 121.992 143.095984 121.996 138.482444 122.026 138.345746 122.026 110.222867 122.224 64.0585469 122.55 64.0191149 122.55 52.2815324 122.634 52.1553501 122.636 0 123 0 120 53.235786 119.734 53.3619683 119.734 64.1374108 119.678 64.187358 119.678 138.603369 119.304 138.679604 119.304 138.724293 119.302 138.847847 119.302 140.107041 119.296 140.490845 119.296 160.072761 119.196 161.229432 119.192 161.487054 119.19"></polygon>
            <circle id="Oval" fill="#FBBEBE" fill-rule="nonzero" cx="100" cy="49" r="13"></circle>
            <path d="M52,122.908201 C52,122.87935 52.0158378,122.847877 52.0263963,122.816403 C52.2903595,121.874812 52.760214,120.282762 53.111285,119.010696 C53.1561588,118.853327 53.1983929,118.69858 53.2379873,118.551703 C53.6260132,117.117022 54.3809479,113.757193 54.8006494,111.661563 C54.9484688,110.924551 55.0646126,110.350154 55.0883693,110.061644 C55.1411619,109.618388 55.9356911,107.722092 56.8358056,105.542531 C57.4666776,104.010806 58.1556215,102.337449 58.6597912,100.926373 C58.9898214,100.088211 59.2485319,99.2240246 59.4332033,98.3428988 C59.4727759,98.1587545 59.4727759,97.9683832 59.4332033,97.7842388 C59.3539582,97.4844221 59.3114166,97.1761985 59.306501,96.8662529 L59.306501,96.8662529 C59.2457894,95.2401065 59.7341213,92.669746 60.489056,91.5917682 C61.4129272,90.2803598 62.0728352,85.3861836 62.0728352,85.3861836 C62.0728352,85.3861836 63.4401645,85.5828948 63.6566143,84.4603292 C63.6794868,84.3393331 63.6883432,84.2161328 63.6830106,84.0931349 C63.6824524,83.9956359 63.6745111,83.8983169 63.6592539,83.8020022 C63.4243267,82.1653645 67.544792,80.4238141 69.8623888,80.0487513 C70.124074,80.00419 70.3888137,79.9796384 70.6542783,79.9753124 C71.2172511,79.9144091 71.7710119,79.7876353 72.3040482,79.5976268 C72.5504139,79.5224394 72.814377,79.4350121 73.0959378,79.3353451 C74.0673223,79.0101158 75.2287603,78.5799738 76.4614684,78.1078668 C81.0966619,76.3217285 86.7085192,73.9113599 86.7085192,73.9113599 C86.7481137,73.7251399 86.7929875,73.5467883 86.8431405,73.3710596 C87.4053809,71.1283444 89.0076532,69.2850539 91.1589385,68.4060673 L91.1589385,68.4060673 C91.1589385,68.2329614 91.1589385,68.0572326 91.1589385,67.8815039 C91.1589385,66.9766321 91.1193441,66.0455321 91.0797496,65.117055 C91.0797496,64.9360806 91.0639118,64.7551062 91.0533533,64.5741319 C91.0533533,64.5216755 91.0533533,64.4665964 91.0533533,64.41414 C91.0533533,64.3616837 91.0533533,64.3223415 91.0533533,64.2777536 C91.0533533,64.0941564 91.0348758,63.9105592 91.0243173,63.7295848 L90.9768039,63.6928654 C90.5712733,63.3885195 90.2228072,63.015639 89.9473475,62.5912823 C89.7940033,62.3433121 89.6683184,62.0794722 89.5725198,61.8044373 C89.2425658,60.9153024 89.1660165,59.9238776 88.9442874,58.9849092 L88.896774,58.7908207 C88.6079692,57.8433197 88.2552188,56.9162385 87.8409213,56.0158805 C87.2575627,54.5943138 86.8088252,53.130782 86.3627275,51.6488904 C86.0917253,50.7518871 85.8180834,49.8531352 85.541802,48.9526347 L85.1247401,47.5782787 C85.0455512,47.315997 84.9663622,47.0537153 84.9056507,46.7914336 L84.9056507,46.7914336 C84.8761765,46.6703442 84.8532667,46.5477696 84.8370203,46.4242393 C84.7629442,46.0218063 84.7846393,45.6077351 84.9003714,45.2151207 C85.0029505,44.9471129 85.1192459,44.6844888 85.2488028,44.4282757 C85.3040483,44.3119748 85.3482343,44.1907983 85.3807844,44.0663269 L85.3807844,44.0663269 C85.3893672,44.0387562 85.3964168,44.0107371 85.4019015,43.9823968 C85.420708,43.8891203 85.4304316,43.7942611 85.4309374,43.6991326 C85.4218007,43.3551605 85.3757872,43.0131362 85.2936766,42.6788568 C85.2920518,42.6746345 85.2920518,42.669965 85.2936766,42.6657427 C85.2905554,42.6419198 85.2861496,42.6182804 85.2804784,42.5949267 C85.233166,42.3347437 85.2014347,42.0720002 85.1854517,41.8080816 C85.0925906,40.3879017 85.4104026,38.9709535 86.1014039,37.7243558 L86.1515569,37.6299344 C86.2970925,37.3765088 86.4593443,37.1329291 86.6372492,36.9007913 L86.6372492,36.9007913 C86.7190778,36.790633 86.803546,36.6857203 86.9012124,36.5808076 C86.5316639,36.9322651 85.9245486,36.7775189 85.5813964,36.3998333 C85.5246694,36.3407572 85.4758712,36.2746382 85.4362167,36.203122 C85.4133729,36.1651582 85.3930912,36.1257292 85.3755052,36.0850953 C85.362307,36.0536215 85.3517485,36.0195248 85.3411899,35.9854282 C85.1564157,35.3428381 85.4784508,34.6582829 85.9007919,34.1363423 C86.3168403,33.6279453 86.8322629,33.2085978 87.4159406,32.9036184 L87.4159406,32.9036184 C87.4500173,32.8832157 87.4852734,32.8648241 87.5215258,32.8485393 C87.7456486,32.7368168 87.9787408,32.643823 88.2183887,32.5705207 L88.2183887,32.5705207 C88.359524,32.5240886 88.5031697,32.4855601 88.6486486,32.4551167 L87.6693452,32.365941 L87.2734005,32.3292215 C87.6765961,30.7399514 89.0597664,29.5865468 90.7049219,29.4677283 L90.9900021,29.4677283 C91.1287557,29.4698534 91.2672086,29.4812446 91.4044243,29.501825 C90.9549678,29.3061072 90.6758127,28.8528839 90.7049219,28.3661453 C91.3961066,28.9037796 92.2531591,29.187335 93.1307435,29.1687272 L93.2310495,29.1687272 C93.1853791,28.8846851 93.1554183,28.5983682 93.1413021,28.3110661 L93.1413021,28.3110661 C93.1149056,27.9215817 93.1149056,27.5307742 93.1413021,27.1412898 C93.6200757,27.5924739 94.2755075,27.8095594 94.9309725,27.7340464 L94.381929,26.9734295 C94.8712451,27.3613331 95.488992,27.5531493 96.1135275,27.511107 L96.2402299,27.4979929 C96.3464936,27.4869463 96.4515929,27.4667624 96.554346,27.4376681 L96.5781027,27.4376681 C96.5279497,27.3747205 96.483076,27.3091501 96.4382022,27.2409568 L96.4223645,27.209483 C96.3125847,27.037932 96.223961,26.8538884 96.1584013,26.6613143 C96.1320612,26.5867805 96.1108945,26.51054 96.0950501,26.4331292 L96.0950501,26.4331292 C95.9799307,25.9562782 96.021559,25.4553257 96.2138335,25.0036941 C97.0664346,25.7118546 98.0008643,26.679674 99.1174286,25.9479081 C100.233993,25.2161422 100.270948,23.87326 102.021024,24.0096465 C103.000588,24.1014689 103.851738,24.7169091 104.240954,25.6148104 C104.747064,25.0464654 105.561432,24.8618415 106.265552,25.1558174 C106.957711,25.4818286 107.368029,26.2058186 107.289729,26.9629383 C108.015628,26.7819639 108.796959,26.6036123 109.493821,26.8763853 C110.190684,27.1491582 110.639422,28.0330475 110.243477,28.6231813 C110.232686,28.6416815 110.220323,28.6592309 110.206522,28.6756377 C109.881847,29.0926655 109.163867,29.3208506 109.240417,29.845414 L109.351281,29.9240985 L109.694433,30.1706433 C111.040646,31.1358399 112.351663,32.1499957 113.627485,33.2131108 C114.282114,33.7586567 114.978976,34.4143609 115.02385,35.2667764 C115.031719,35.4758915 115.010399,35.6850817 114.960499,35.888384 L114.960499,35.888384 C114.918265,36.0929637 114.860193,36.2975434 114.815319,36.5021231 C114.702415,37.0231856 114.672134,37.5585763 114.725572,38.0889273 L114.725572,38.0889273 C114.744049,38.2436735 114.767806,38.3957969 114.796842,38.5505431 C115.200705,40.5779805 116.831998,42.2513377 116.993015,44.3207402 L116.993015,44.4676179 C117.002728,44.6889641 116.996554,44.9107167 116.974538,45.1311906 C116.853115,46.3901427 116.267117,47.5992612 115.791983,48.8031342 C115.762947,48.876573 115.733911,48.9500119 115.707515,49.0234508 C114.791563,51.3839859 114.263636,53.8992673 113.859772,56.409303 C113.729485,57.2998383 113.553278,58.1831412 113.331846,59.0557252 C113.091026,60.0543593 112.632358,60.9882347 111.988273,61.7913232 C111.730904,62.0933157 111.432388,62.3581505 111.101357,62.5781682 C110.878557,62.719896 110.644634,62.843568 110.401855,62.9479854 C110.401855,62.9479854 110.401855,62.9479854 110.401855,62.9637223 C110.430891,63.1237142 110.454647,63.283706 110.483683,63.4436978 C110.499521,63.5276279 110.512719,63.6115581 110.528557,63.7059795 L110.528557,63.7059795 C110.527413,63.7111635 110.527413,63.7165324 110.528557,63.7217164 C110.750286,64.9623088 111.003691,66.176673 111.270294,67.3307124 L111.404915,67.9051093 C114.730851,69.0984909 115.124156,71.5429562 115.147913,72.4793019 C115.157258,72.6041504 115.157258,72.7295161 115.147913,72.8543647 C115.147913,72.8543647 120.163213,72.9855055 122.142937,74.4280548 C122.51293,74.6776144 122.912852,74.8802663 123.333411,75.0313026 C124.131745,75.3310034 124.947021,75.5840994 125.775071,75.7892967 C126.200051,75.899455 126.64351,76.0069905 127.094887,76.1119032 C127.886776,76.2928776 128.726179,76.4686063 129.536546,76.6364666 C131.698405,77.0692313 133.733561,77.4233116 134.765657,77.6855933 C137.228433,78.3045781 142.861408,83.6708613 142.861408,83.6708613 C142.861408,83.6708613 143.521316,89.0843553 144.181224,89.8738232 C144.841132,90.6632911 146.028966,93.4382313 146.028966,93.4382313 L150.394917,101.151936 L152.242659,104.39636 L153.430494,104.39636 C153.594151,104.39636 153.916186,104.627168 154.277815,104.947152 C154.591932,105.22517 154.940363,105.571382 155.24656,105.88612 L155.75337,106.423798 L156.070125,106.772632 C156.070125,106.772632 157.989138,106.819843 158.509145,108.327963 C160.071807,108.283375 161.99082,108.385665 163.334392,108.983667 C163.517733,109.063859 163.694278,109.158586 163.862319,109.266931 C164.419494,109.587581 164.815169,110.126384 164.952487,110.751445 C164.979339,110.87573 164.995237,111.002103 165,111.129131 C165,111.278632 165,111.428132 165,111.57501 C164.904973,113.560482 163.603635,115.212857 162.407882,116.324931 L162.49235,116.474432 C162.49235,116.474432 162.452755,116.568853 162.376206,116.736713 C162.355089,116.786547 162.328693,116.841626 162.299657,116.904574 L162.299657,116.904574 C162.143918,117.235049 161.895793,117.730761 161.571118,118.310403 C160.882195,119.565044 160.033135,120.726057 159.044991,121.764653 L158.968441,121.843338 L143.727207,121.982347 L143.682333,121.929891 L140.725945,118.425807 L139.255671,116.684257 L139.210797,116.629178 L139.168563,117.046206 L139.026023,118.436299 L138.68287,121.796127 L138.664393,121.963987 L138.664393,122.008575 L138.624799,122.396752 L138.653834,122.008575 L138.577285,122.008575 L110.333224,122.270857 L63.9760097,122.779683 L63.9760097,123 L63.9390549,123 L63.9390549,122.779683 L52.1267023,122.905579 L52,122.908201 Z" id="Path" fill="url(#linearGradient-1)" fill-rule="nonzero"></path>
            <path d="M113,76.613055 C113,76.613055 86.6538471,79.7336812 89.169309,76.613055 C90.0801709,75.4844285 90.3317171,72.1401574 90.2814079,68.3303929 C90.2655207,67.1731606 90.2231551,65.97432 90.1622544,64.7806805 C89.8709904,59.0595324 89.169309,53.4684104 89.169309,53.4684104 C89.169309,53.4684104 112.205644,42.8062707 109.557789,51.2579668 C108.498647,54.672452 108.845516,59.4678143 109.650464,63.9693177 C109.886123,65.2825812 110.158852,66.5698395 110.44482,67.7920848 C111.142726,70.7733044 111.995569,73.7174807 113,76.613055 L113,76.613055 Z" id="Path" fill="#FBBEBE" fill-rule="nonzero"></path>
            <path d="M113,75.590724 C113,75.590724 86.6538471,78.761595 89.169309,75.590724 C90.0801709,74.4439256 90.3317171,71.0458088 90.2814079,67.1747036 C94.2982032,65.4624333 99.4085625,66.7387089 99.4085625,66.7387089 C104.789003,65.6685399 108.239158,65.8772889 110.44482,66.6277284 C111.142726,69.6569483 111.995569,72.6485283 113,75.590724 L113,75.590724 Z" id="Path" fill="#000000" fill-rule="nonzero" opacity="0.1"></path>
            <path d="M63.8665917,124 L63.8665917,123.779685 L110.270752,123.278732 L138.543415,123.016452 L138.622684,123.016452 L138.593619,123.404626 L138.633254,123.016452 L138.683457,123.016452 L138.683457,122.971865 L139.045453,119.444206 L139.182853,118.109204 L139.22513,117.692179 L139.262122,117.343348 L140.895067,111.937768 L142.528011,106.540057 L143.90201,101.994754 L146,95.0495947 C146,95.0495947 144.810963,92.2956605 144.150387,91.5088222 C143.48981,90.7219839 142.829234,85.3452552 142.829234,85.3452552 C142.829234,85.3452552 137.190555,80.0131141 134.725285,79.3993802 C133.692143,79.1371007 131.652284,78.7882691 129.485594,78.3502624 C128.674406,78.1876491 127.84208,78.0145447 127.041462,77.8257035 C126.589628,77.7234145 126.14572,77.6158799 125.720309,77.5083454 C124.892335,77.3030625 124.076387,77.0526431 123.276177,76.7582262 C122.856625,76.606931 122.45731,76.4052242 122.08714,76.1576062 C120.145046,74.74392 115.27792,74.5839295 115.090316,74.5839295 L115.090316,74.5839295 C115.089802,74.5778204 115.089802,74.5716792 115.090316,74.56557 L115.090316,74.5419648 C115.097137,74.4319115 115.097137,74.3215461 115.090316,74.2114927 C115.090316,74.106581 115.090316,73.9833096 115.066535,73.8443015 C115.066535,73.8023368 115.066535,73.7577493 115.048039,73.7131618 C115.034828,73.6187412 115.018974,73.519075 114.995193,73.4141632 C114.98717,73.3672909 114.976586,73.3208864 114.963486,73.2751551 C114.886914,72.9591223 114.776175,72.6522239 114.633197,72.3597998 C114.614701,72.3178351 114.590921,72.2732476 114.569782,72.2312829 C114.440239,71.9890008 114.289955,71.7582198 114.12059,71.541488 C114.08624,71.4969005 114.049248,71.4496902 114.009613,71.4051027 C113.793168,71.1517678 113.552472,70.9198755 113.290907,70.7126849 C113.219564,70.6576062 113.14558,70.5999048 113.068953,70.5474489 C113.026206,70.5130271 112.981186,70.4814831 112.934195,70.4530283 L112.69903,70.3009062 L112.479719,70.1750121 C112.286831,70.0701003 112.083373,69.9678113 111.86142,69.8707679 C111.79272,69.8392944 111.718735,69.8104436 111.644751,69.7815929 C111.570766,69.7527422 111.454505,69.7081546 111.356739,69.6714355 L111.340885,69.6714355 L111.142713,69.5927517 C110.992101,69.5429186 110.838848,69.4983311 110.677667,69.4537436 L110.431933,69.3907965 L110.167702,69.3304722 L109.903472,69.2753936 C109.639241,69.2229377 109.356514,69.1757274 109.060576,69.1390082 L108.759353,69.1022891 L108.450204,69.0708156 L108.130485,69.0445876 L107.676008,69.0183597 L107.147547,69 C104.816841,69 102.492691,69.2450788 100.214139,69.7317598 C98.6312283,69.3821287 97.0098976,69.2340606 95.3892902,69.2911303 L95.1594097,69.2911303 L94.8951792,69.3068671 L94.7260717,69.3068671 L94.3852143,69.3383406 C94.2715952,69.3383406 94.1553338,69.3619458 94.0417147,69.3776825 C93.9280956,69.3934193 93.8091918,69.4065333 93.6955727,69.4248928 L93.5211806,69.4537436 C93.3494308,69.4825943 93.1750387,69.5140679 92.9927196,69.550787 C92.9345889,69.5612782 92.8764582,69.5743921 92.8183275,69.5901289 C92.5884469,69.639962 92.3585664,69.7002863 92.1313282,69.7684789 C92.0177091,69.7999525 91.90409,69.8366716 91.7904708,69.8760135 C91.7323401,69.8917503 91.6768517,69.9127326 91.6213633,69.933715 L91.4522558,69.9940392 L91.2857906,70.0596091 L91.0876177,70.1382929 C90.9872101,70.1802576 90.8894448,70.2248452 90.7916796,70.2720555 C90.7361911,70.2956606 90.6807027,70.3218885 90.6278566,70.3507393 C90.5750105,70.37959 90.5195221,70.4031952 90.4693183,70.4320459 C89.8718774,70.7384722 89.3197445,71.1250238 88.8284469,71.5808299 L88.6936894,71.7093468 L88.5615741,71.8431093 C88.516655,71.8876968 88.4743781,71.9349071 88.4321012,71.9821174 C88.2599002,72.1689706 88.099304,72.3660438 87.9512017,72.5722462 C87.9089248,72.6273249 87.8692902,72.6824036 87.8296557,72.740105 C87.6619722,72.9855762 87.5101741,73.2413771 87.3751792,73.505961 C87.3408292,73.5689081 87.3091216,73.634478 87.2774139,73.697425 C87.0617911,74.140516 86.8849851,74.6012048 86.7489529,75.0743921 C86.6996299,75.2492451 86.6547107,75.424098 86.6141954,75.598951 C86.6141954,75.598951 81.0204357,78.048641 76.3805481,79.8216501 C75.1465917,80.2937531 73.9839775,80.7212686 73.0116093,81.0438723 C72.7288826,81.1382929 72.4646521,81.2248451 72.2189178,81.3061518 C71.685726,81.4974556 71.1312463,81.6242644 70.5674772,81.6838342 C70.3017437,81.6881601 70.0367359,81.7127115 69.7747857,81.7572724 C67.6424455,82.1008585 63.9881377,83.5932285 63.5891497,85.0908442 C63.5567559,85.2104359 63.5477859,85.3350875 63.5627266,85.4580354 C63.5627266,85.4580354 63.5627266,85.4763949 63.5627266,85.4868861 C63.8269571,87.3228422 61.9773436,87.0605628 61.9773436,87.0605628 C61.9773436,87.0605628 61.3167674,91.9127326 60.3919606,93.2241298 C59.7234575,94.1683358 59.2663387,96.2744397 59.208208,97.8638532 L59.208208,97.8638532 C59.1749857,98.3590542 59.2141455,98.8564212 59.3244694,99.3404865 C59.3244694,99.3536004 59.3244694,99.3667144 59.3244694,99.3772056 C59.4301616,99.7286601 59.1765004,100.688603 58.7458046,101.918693 C58.2781167,103.269433 57.596402,104.948021 56.9411103,106.532189 C55.9528883,108.924177 55.0227969,111.095851 54.9646662,111.5732 C54.9408855,111.785646 54.8721855,112.165951 54.7770625,112.656414 C54.391286,114.654983 53.5351792,118.460658 53.1124104,120.000238 C52.7979761,121.149022 52.3408573,122.722699 52.026423,123.80329 C52.026423,123.834764 52.0079269,123.866237 52,123.895088 L63.8454533,123.779685 L63.8454533,124 L63.8824455,124 L63.8665917,124 Z" id="Path" fill="#00B0FF" fill-rule="nonzero"></path>
            <path d="M67,92 C67,92 82.4451613,100.977305 88,99.9122013 L67,92 Z" id="Path" fill="#000000" fill-rule="nonzero" opacity="0.1"></path>
            <path d="M99,88 C99,88 114.246,94.0899051 119.328,94.9357252 C124.41,95.7815454 99,88 99,88 Z" id="Path" fill="#000000" fill-rule="nonzero" opacity="0.1"></path>
            <path d="M114,72.8083317 C106.695896,74.3687355 92.9440299,74.0326935 87,73.796003 C89.1786381,64.7374791 99.8023321,67.8173772 99.8023321,67.8173772 C112.952239,64.7725443 113.959701,71.0901343 114,72.8083317 Z" id="Path" fill="#000000" fill-rule="nonzero" opacity="0.1"></path>
            <path d="M114,72.8083317 C106.695896,74.3687355 92.9440299,74.0326935 87,73.796003 C89.1786381,64.7374791 99.8023321,67.8173772 99.8023321,67.8173772 C112.952239,64.7725443 113.959701,71.0901343 114,72.8083317 Z" id="Path" fill="#00B0FF" fill-rule="nonzero"></path>
            <path d="M155,109.246438 C155,109.246438 164.802526,107.792955 164.994788,111.945763 C165.187051,116.098571 159.995959,119 159.995959,119 L155,109.246438 Z" id="Path" fill="#FBBEBE" fill-rule="nonzero"></path>
            <path d="M109.89461,64.9427877 C109.498035,65.1239627 109.092619,65.2841985 108.679964,65.4228618 C105.770212,66.4492271 102.836167,67.4838696 99.7725599,67.8590999 C96.7089529,68.2343302 93.49419,67.9032446 90.8219689,66.3416243 C90.5413884,66.1796334 90.2709442,65.999948 90.012205,65.8036103 C89.7152915,59.733708 89,53.801758 89,53.801758 C89,53.801758 112.483155,42.4896673 109.783942,51.4565685 C108.709655,55.0791965 109.074049,60.1668783 109.89461,64.9427877 Z" id="Path" fill="#000000" fill-rule="nonzero" opacity="0.1"></path>
            <path d="M97.0572391,28.437524 C96.2748191,28.639836 95.4407629,28.4680812 94.8078872,27.9743212 L95.3702252,28.7392675 C94.6994206,28.8150587 94.0286467,28.5971231 93.5372196,28.143721 C93.4862247,28.8284918 93.5152505,29.5167238 93.6237332,30.1950477 C92.6932578,30.2389857 91.7771462,29.9575295 91.0391413,29.4009858 C91.0096056,29.8900542 91.2944546,30.3453431 91.7528779,30.5417881 C89.8193651,30.3156536 88.0145215,31.5287729 87.5353431,33.3765893 L88.9465951,33.5036392 C87.8374904,33.7355456 86.8420573,34.33018 86.124091,35.1896974 C85.6915233,35.719072 85.3616905,36.3966715 85.5509388,37.0425086 C85.7401872,37.6883456 86.6539864,38.1012579 87.1514392,37.6407019 C85.7190518,39.3144693 85.1154137,41.5224239 85.502275,43.6729258 C85.6305954,44.1256158 85.6727514,44.5975563 85.6266382,45.0651811 C85.5374211,45.5019152 85.2562521,45.880418 85.1156676,46.3065646 C84.8453128,47.0794516 85.1021499,47.9185104 85.3427656,48.6887505 L86.6107296,52.7702289 C87.0703328,54.2445372 87.5272324,55.7214924 88.1274201,57.1481571 C88.5524277,58.0501503 88.9137485,58.979619 89.2088393,59.9300207 C89.5494863,61.2111074 89.5630041,62.6139501 90.2902585,63.7335775 C90.78868,64.4381579 91.4549437,65.0132329 92.2314059,65.4090482 C94.9052149,66.9071784 98.1359548,67.2248032 101.196371,66.8648284 C104.256787,66.5048537 107.192841,65.5122762 110.104562,64.5276394 C110.751406,64.3368856 111.37232,64.0702636 111.953789,63.7335775 C113.967932,62.4419034 114.416721,59.800324 114.792514,57.4737225 C115.211564,54.8797868 115.771198,52.2911448 116.763401,49.8507278 C117.352774,48.3975944 118.115175,46.9232861 117.985404,45.3669247 C117.820488,43.2997167 116.149695,41.624246 115.736052,39.5914474 C115.597582,38.9119509 115.604025,38.2117708 115.754977,37.534827 C115.883259,37.1315035 115.955106,36.7130168 115.968557,36.2907966 C115.922597,35.4385035 115.20886,34.7820789 114.538381,34.2341762 C113.083872,33.0448478 111.582501,31.920809 110.03427,30.8620598 C109.955867,30.3326851 110.691232,30.1050541 111.023768,29.6868481 C111.494185,29.0965954 111.007547,28.1596023 110.29381,27.8843275 C109.580073,27.6090527 108.779823,27.78904 108.036348,27.9716743 C108.135819,27.206571 107.710242,26.4683394 106.989811,26.1562848 C106.26938,25.8442302 105.425145,26.0324439 104.91375,26.6191221 C104.511588,25.716327 103.639183,25.0995782 102.637362,25.0098232 C100.84491,24.8721858 100.809764,26.2141505 99.6634594,26.9526281 C98.517155,27.6911057 97.5709132,26.7170564 96.6895566,26.0076944 C96.3599658,26.8237883 96.5001264,27.7500397 97.0572391,28.437524 L97.0572391,28.437524 Z" id="Path" fill="#3F3D56" fill-rule="nonzero"></path>
            <path d="M161,117.949087 C161,117.949087 160.771396,118.507374 160.350149,119.315836 C159.712945,120.559649 158.937188,121.723499 158.038426,122.784059 L157.969074,122.860428 L157.552964,122.860428 L142.721977,123 L142.367513,123 L142.323847,122.947331 L139.447036,119.447507 L138.363095,118.12816 L138.319429,118.072858 L138.22696,117.962254 L138.175588,117.899052 L138.108805,117.817416 L136,115.252458 L136.770574,111.960674 L138.083119,106.414677 L138.116511,106.280372 L138.373369,105.227001 L138.555738,104.436973 L139.167061,101.861482 L141.263023,93 L144.987465,94.9750702 L148.914826,102.085323 L151.023631,105.903792 L152.179492,105.903792 C152.397822,105.903792 152.898695,106.335674 153.402137,106.833392 C153.581938,107.009831 153.761738,107.196805 153.915853,107.360077 C154.373061,107.844628 154.735231,108.260709 154.735231,108.260709 C154.735231,108.260709 156.607726,108.302844 157.111168,109.814431 C157.137162,109.88758 157.15861,109.962343 157.175383,110.038272 C157.342497,110.632426 157.559941,111.210468 157.825234,111.765801 C158.156581,112.505794 158.572691,113.345857 158.993938,114.18592 C159.777355,115.726475 160.573616,117.193294 160.866434,117.725246 L160.902394,117.791081 L161,117.949087 Z" id="Path" fill="#00B0FF" fill-rule="nonzero"></path>
            <path d="M139.99278,104.058521 L139.966339,104.434328 L139.966339,104.460608 L139.921388,105.065052 L139.569717,109.929514 L139.144009,115.789994 L139.022378,117.440389 L138.757964,120.972445 L138.757964,121.017121 L110.465592,121.279923 L64.0370181,121.779246 L64.0370181,122 L64,122 L64,121.779246 L64,121.705662 L64.1189866,117.931828 L64.3463832,110.55761 L64.5420501,104.305555 L64.5605591,103.682715 C64.5839383,102.922961 64.9207151,102.206215 65.4918447,101.700702 C66.0629743,101.195189 66.8181681,100.945421 67.5801748,101.010021 C68.8282121,101.115141 70.4490741,101.243914 72.3872338,101.380571 L73.1804778,101.438388 C84.3731514,102.211025 105.058312,103.209672 125.931207,101.963991 C126.370136,101.940339 126.811708,101.914059 127.253281,101.882523 C130.489716,101.680165 133.723508,101.419991 136.92557,101.094117 C137.744997,101.008786 138.560371,101.288543 139.15233,101.858124 C139.744289,102.427706 140.052037,103.228615 139.99278,104.045381 L139.99278,104.058521 Z" id="Path" fill="#000000" fill-rule="nonzero" opacity="0.1"></path>
            <path d="M64,123.988935 L64,123.756579 L110.455848,123.228244 L138.760003,122.951629 L138.83936,122.951629 L138.83936,122.904604 L139.103885,119.186898 L139.217631,117.527207 L139.651451,111.272941 L139.992688,106.321531 L139.992688,106.19982 C140.008461,105.971666 139.998695,105.742366 139.96359,105.516581 C139.96507,105.507425 139.96507,105.498075 139.96359,105.48892 C139.890924,105.022083 139.709201,104.581216 139.434541,104.205426 C138.842385,103.411378 137.900314,102.993064 136.942717,103.098965 C133.739322,103.441968 130.504183,103.715817 127.266399,103.928811 C126.824643,103.962004 126.382887,103.989666 125.943775,104.014561 C105.062187,105.311886 84.3684106,104.260749 73.1710753,103.461331 L72.3775008,103.400476 C70.4385339,103.256636 68.8169968,103.123861 67.5684397,103.010448 C66.1458237,102.884917 64.8623849,103.903432 64.5951808,105.369975 C64.5684719,105.519732 64.5525557,105.671374 64.5475664,105.823624 L64.3676895,111.953414 L64.1216814,119.717999 L64.0052905,123.690191 L64.0052905,123.767643 L64.0052905,124 L64,123.988935 Z" id="Path" fill="#3F3D56" fill-rule="nonzero"></path>
            <path d="M139.995746,107.893055 L139.670684,111.979772 L139.187055,118.071194 L139.065488,119.596049 L138.80121,123.010977 L138.785353,123.18159 L138.785353,123.226909 L138.785353,123.226909 L138.745711,123.621452 L138.774782,123.226909 L138.698141,123.226909 L110.420409,123.493492 L64,124 L64,123.925357 L64.1294962,120.097225 L64.393774,112.616906 L64.5629119,107.645133 C64.57981,107.070482 64.8842412,106.543618 65.3716022,106.245572 C65.6708628,106.060563 66.0207689,105.976525 66.3705725,106.005647 C66.9255561,106.050967 67.607393,106.104283 68.4028694,106.162931 C69.6951882,106.258901 71.2887838,106.370866 73.1440145,106.488163 C76.5796268,106.706761 80.889999,106.941354 85.8293524,107.133294 C99.5718019,107.66646 118.124109,107.84507 135.746157,106.288225 C136.538991,106.218914 137.358252,106.141605 138.159014,106.064296 C138.475976,106.032411 138.795323,106.093505 139.078701,106.24024 C139.158969,106.280571 139.235097,106.328789 139.30598,106.384195 C139.536042,106.552349 139.718303,106.778486 139.834536,107.039989 C139.861498,107.092017 139.883616,107.146455 139.900606,107.202605 C139.979995,107.423472 140.012411,107.658721 139.995746,107.893055 Z" id="Path" fill="#000000" fill-rule="nonzero" opacity="0.1"></path>
            <path d="M50,110 L50,110.671579 C50.0002801,111.170025 49.6536712,111.624043 49.1096035,111.837895 L38.9082052,112 C38.354255,111.789885 37.9993482,111.331645 38,110.827368 L38,110.195789 L50,110 Z" id="Path" fill="#000000" fill-rule="nonzero" opacity="0.1"></path>
            <polygon id="Path" fill="#3F3D56" fill-rule="nonzero" points="49 113.793175 36 114 36 112.206825 49 112"></polygon>
            <polygon id="Path" fill="#000000" fill-rule="nonzero" opacity="0.1" points="49 113.793175 36 114 36 112.206825 49 112"></polygon>
            <polygon id="Path" fill="#3F3D56" fill-rule="nonzero" points="51 113.793175 38 114 38 112.206825 51 112"></polygon>
            <g id="Group" opacity="0.1" transform="translate(85.000000, 26.000000)" fill="#000000" fill-rule="nonzero">
                <path d="M12.0585714,1.13447607 C11.7944654,0.802642921 11.618981,0.413001087 11.5476333,7.42943531e-15 C11.4824827,0.403738195 11.5214853,0.816786374 11.6611751,1.20244008 C11.7953584,1.19046554 11.928281,1.16773269 12.0585714,1.13447607 Z" id="Path"></path>
                <path d="M8.62528385,2.87017218 C8.5743024,2.54971295 8.54091397,2.2268672 8.52525893,1.90299212 C8.52525893,2.22451414 8.52525893,2.54865016 8.52525893,2.87278618 L8.62528385,2.87017218 Z" id="Path"></path>
                <path d="M30.6577984,11.5930907 C30.6727617,11.360205 30.7052887,11.1286863 30.7551199,10.9003807 C30.8829927,10.5027785 30.9557179,10.0905228 30.97139,9.67441461 C30.9653267,9.58101337 30.9508539,9.48830105 30.928136,9.39733059 C30.8821786,9.63781861 30.8091875,9.87830662 30.7551199,10.1161806 C30.6471433,10.6010972 30.6143441,11.0988444 30.6577984,11.5930907 Z" id="Path"></path>
                <path d="M25.0347763,3.51583022 L25.3294443,3.72233623 C25.5778687,3.54858843 25.8103206,3.3544319 26.0242119,3.1420282 C26.231227,2.86517515 26.2703552,2.50275908 26.1269402,2.19053214 C26.1000123,2.25020463 26.065504,2.30640239 26.0242119,2.35782815 C25.6916967,2.77084017 24.9563784,2.99825819 25.0347763,3.51583022 Z" id="Path"></path>
                <path d="M2.82113553,6.03049838 C2.72253224,6.22114648 2.64374794,6.42078964 2.58594182,6.62649042 C3.00883547,6.39824098 3.46433122,6.23175592 3.93762983,6.13244439 L2.82113553,6.03049838 Z" id="Path"></path>
                <path d="M6.54909106,3.1864662 C6.37151558,3.09187218 6.20161662,2.98438983 6.04085637,2.86494418 C6.03405,2.96835554 6.0422395,3.07217916 6.06518676,3.1733962 C6.22659834,3.16595525 6.38836074,3.17032436 6.54909106,3.1864662 Z" id="Path"></path>
                <path d="M32.9799984,18.5881552 C32.86916,19.8559452 32.258197,21.0766833 31.7634792,22.2791234 C30.7713402,24.6892316 30.2117414,27.2457237 29.7927181,29.8100579 C29.4169488,32.107764 28.9817053,34.7165362 26.9541733,35.9895543 C26.3748438,36.3242159 25.7545811,36.5876521 25.1077674,36.7737543 C22.1935281,37.7487764 19.2549584,38.7264124 16.1866266,39.0819165 C13.1182948,39.4374205 9.89857395,39.1263545 7.22223169,37.6468304 C6.44625085,37.2553223 5.78016777,36.6875074 5.28120771,35.9921683 C4.55940631,34.8864462 4.54588943,33.5010261 4.1998573,32.23585 C3.90479749,31.2963979 3.54350091,30.3776027 3.1185069,29.4859219 C2.5210608,28.0795898 2.06148687,26.6105217 1.60461633,25.1649796 C1.18108742,23.8213835 0.758459631,22.4769161 0.336732973,21.1315773 C0.197836759,20.7268766 0.0947379708,20.3115006 0.0285481065,19.8899273 C-0.0768835582,20.5591113 0.128573019,21.2596633 0.336732973,21.9157774 C0.758459631,23.2628588 1.18108742,24.6073262 1.60461633,25.9491796 C2.06148687,27.4051777 2.5210608,28.8637898 3.1185069,30.2701219 C3.54350091,31.1618027 3.90479749,32.080598 4.1998573,33.0200501 C4.54048268,34.2852262 4.55399956,35.6706462 5.28120771,36.7763683 C5.78016777,37.4717074 6.44625085,38.0395224 7.22223169,38.4310304 C9.89857395,39.9105545 13.1264049,40.2216205 16.1866266,39.8661165 C19.2468482,39.5106125 22.1827146,38.5329764 25.1077674,37.5579544 C25.7545811,37.3718521 26.3748438,37.108416 26.9541733,36.7737543 C28.9681884,35.5007362 29.4169488,32.8919641 29.7927181,30.5942579 C30.2117414,28.0299238 30.7713402,25.4734316 31.7634792,23.0633235 C32.3528152,21.6308514 33.1151672,20.1748533 32.9854051,18.6352072 C32.9854051,18.6195232 32.9799984,18.6038392 32.9799984,18.5881552 Z" id="Path"></path>
                <path d="M0.623290831,17.5765371 C0.623290831,17.5765371 0.623290831,17.5582391 0.623290831,17.5477831 C0.672060117,17.0868458 0.629860812,16.6211462 0.498935534,16.175433 C0.445002138,15.8885748 0.409788682,15.5987195 0.393503869,15.307585 C0.362380785,15.8603574 0.397761732,16.4147546 0.498935534,16.9596331 C0.54218955,17.1635251 0.590850318,17.3700311 0.623290831,17.5765371 Z" id="Path"></path>
                <path d="M1.44782052,11.1826927 C1.6557364,10.8449513 1.89170752,10.5241149 2.15340166,10.2233546 C1.65868385,10.6808047 0.744942751,10.2730206 0.553003054,9.63781861 C0.482257067,9.89474318 0.482257067,10.1650941 0.553003054,10.4220187 C0.688498172,10.8124686 1.02999147,11.1027682 1.44782052,11.1826927 L1.44782052,11.1826927 Z" id="Path"></path>
            </g>
            <path d="M151.5,105 C151.5,105 152.625,108.431231 151.5,111.41491 C150.375,114.398589 151.5,105 151.5,105 Z" id="Path" fill="#000000" fill-rule="nonzero" opacity="0.1"></path>
            <path d="M154.901063,108 C154.901063,108 155.34901,111.351731 154.338604,111.946319 C153.328197,112.540907 154.901063,108 154.901063,108 Z" id="Path" fill="#000000" fill-rule="nonzero" opacity="0.1"></path>
            <line x1="25" y1="69.1314376" x2="51" y2="68.8685624" id="Path" stroke="#00B0FF" stroke-width="0.5"></line>
            <line x1="25" y1="71.1301233" x2="51" y2="70.8698767" id="Path" stroke="#00B0FF" stroke-width="0.5"></line>
            <line x1="25" y1="74.1314376" x2="51" y2="73.8685624" id="Path" stroke="#00B0FF" stroke-width="0.5"></line>
        </g>
    </g>
</svg>