<?xml version="1.0" encoding="UTF-8"?>
<svg width="286px" height="235px" viewBox="0 0 286 235" version="1.1" xmlns="http://www.w3.org/2000/svg" xmlns:xlink="http://www.w3.org/1999/xlink">
    <title>Artboard</title>
    <g id="Artboard" stroke="none" stroke-width="1" fill="none" fill-rule="evenodd">
        <g id="undraw_Online_learning_re_qw08-Copy" transform="translate(27.000000, 31.000000)" fill-rule="nonzero">
            <path d="M210.797136,109 L73.202864,109 C71.9862558,109 71,109.997769 71,111.228575 C71,112.459381 71.9862558,113.457146 73.202864,113.457146 L77.1002387,113.457146 L77.1002387,166.771429 C77.1002387,168.002235 78.0864945,169 79.3031026,169 C80.5197108,169 81.5059666,168.002235 81.5059666,166.771429 L81.5394433,113.457146 L202.155131,113.457146 L202.155131,166.771429 C202.155131,168.002235 203.141387,169 204.357995,169 C205.574603,169 206.560859,168.002235 206.560859,166.771429 L206.560859,114.632241 L207.20176,113.457143 L210.797136,113.457143 C212.013744,113.457143 213,112.459377 213,111.228571 C213,109.997765 212.013744,109 210.797136,109 L210.797136,109 Z" id="Path" fill="#CCCCCC"></path>
            <path d="M149.004901,111 L107.995099,111 C106.341727,110.998101 105.001871,109.638014 105,107.959677 L105,85.0403231 C105.001871,83.3619862 106.341727,82.001899 107.995099,82 L149.004901,82 C150.658273,82.001899 151.998129,83.3619862 152,85.0403231 L152,107.959677 C151.998129,109.638014 150.658273,110.998101 149.004901,111 L149.004901,111 Z" id="Path" fill="#3F3D56"></path>
            <path d="M149.299854,84 L107.700146,84 C107.313783,84.0008067 107.000785,84.3099122 107,84.6914405 L107,107.308559 C107.000794,107.690084 107.313787,107.999184 107.700146,108 L149.299854,108 C149.686213,107.999184 149.999206,107.690084 150,107.308559 L150,84.6914405 C149.999215,84.3099122 149.686217,84.0008067 149.299854,84 Z" id="Path" fill="#FFFFFF"></path>
            <path d="M132,100.306482 C132,100.306482 126.674016,99.1805972 123.744722,101.244699 C120.815429,103.308802 127.472914,108 127.472914,108 L132,100.306482 Z" id="Path" fill="#2F2E41"></path>
            <circle id="Oval" fill="#A0616A" cx="129" cy="93" r="5"></circle>
            <path d="M125.66621,86.7236545 C126.314024,85.5902673 127.523637,84.9269147 128.79755,85.0064251 C129.451087,85.0909011 130.088838,85.2749048 130.689951,85.5524198 L133.80477,86.8047774 C134.61077,87.1288378 135.493513,87.5257883 135.843262,88.3413996 C136.167876,89.0983975 135.925687,89.9726504 135.680523,90.7607763 L134.515149,94.5070593 C134.386069,93.6591717 134.164536,92.8290136 133.854757,92.0323546 C133.539922,91.2303532 132.971027,90.5617761 132.240647,90.1354197 C131.43157,89.7076136 130.477951,89.7164725 129.569675,89.761527 C128.283318,89.8253354 126.884683,89.9940213 125.970717,90.9292004 C125.485547,91.4602986 125.156617,92.122444 125.022177,92.8386402 C124.889857,93.5510106 124.823256,94.2746915 124.823264,95 C124.295764,94.0654066 123.851416,93.0835203 123.495659,92.0663577 C123.203019,91.3089703 123.03626,90.5061806 123.002384,89.6916889 C122.971807,88.8702241 123.236241,88.0659926 123.745067,87.432949 C124.271944,86.8019406 125.100267,86.533233 125.8828,86.7394695 L125.66621,86.7236545 Z" id="Path" fill="#2F2E41"></path>
            <path d="M139.887836,103.839146 C139.797712,103.50299 139.521942,103.255685 139.188162,103.211691 C139.177355,103.203894 139.16605,103.196867 139.154324,103.190659 L132.146352,99.1180905 C131.730638,98.8765294 131.205227,99.0167713 130.953648,99.436445 L129.037008,102.654364 L126.150177,99.6608075 L126.104292,99.6132015 C125.798454,99.2960904 125.317202,99.2524478 124.962925,99.509696 L119.20343,103.691943 C119.193363,103.691943 119.183128,103.695448 119.173061,103.695448 C118.605211,103.793595 118.179339,104.287636 118.148716,104.883757 L118,108 L141,108 L139.887836,103.839146 Z" id="Path" fill="#64AAFF"></path>
            <path d="M153.581758,107.428572 L149.090657,107.428572 C149.090655,107.191879 148.879,107 148.617909,107 L147.199669,107 C146.938579,107 146.726925,107.19188 146.726921,107.428572 L145.308681,107.428572 C145.308677,107.19188 145.097023,107 144.835933,107 L143.417689,107 C143.1566,107 142.944947,107.19188 142.944945,107.428572 L141.526701,107.428572 C141.526699,107.191879 141.315044,107 141.053953,107 L139.635713,107 C139.374623,107 139.162969,107.19188 139.162965,107.428572 L137.744725,107.428572 C137.744721,107.191883 137.533073,107 137.271987,107 L135.853744,107 C135.592654,107 135.381001,107.19188 135.380999,107.428572 L133.962756,107.428572 C133.962754,107.191879 133.751098,107 133.490008,107 L132.071767,107 C131.810677,107 131.599022,107.191879 131.59902,107.428572 L130.180769,107.428572 C130.180765,107.19188 129.969111,107 129.708021,107 L128.289778,107 C128.028688,107 127.817034,107.19188 127.81703,107.428572 L126.39879,107.428572 C126.398788,107.191879 126.187132,107 125.926042,107 L124.507802,107 C124.246711,107 124.035056,107.191879 124.035054,107.428572 L122.61681,107.428572 C122.616808,107.19188 122.405155,107 122.144066,107 L120.725822,107 C120.464732,107 120.253078,107.19188 120.253074,107.428572 L118.834834,107.428572 C118.83483,107.19188 118.623176,107 118.362086,107 L116.943846,107 C116.682755,107 116.4711,107.191879 116.471098,107.428572 L115.052854,107.428572 C115.052852,107.19188 114.841199,107 114.58011,107 L113.161866,107 C112.900776,107 112.689122,107.19188 112.689118,107.428572 L111.270888,107.428572 C111.270885,107.19188 111.05923,107 110.798141,107 L109.37989,107 C109.118799,107 108.907144,107.191879 108.907142,107.428572 L104.416041,107.428572 C103.633628,107.429674 103,108.004985 103,108.714286 C103,109.423587 103.633628,109.998898 104.416041,110 L153.581758,110 C154.365031,110 155,109.424366 155,108.714286 C155,108.004206 154.365031,107.428572 153.581758,107.428572 Z" id="Path" fill="#3F3D56"></path>
            <path d="M97,99.002733 L97,107.997267 L72.966246,107.997267 C71.2128445,108.054475 69.5658804,107.210033 68.6710916,105.795027 C67.7763028,104.380021 67.7763028,102.619979 68.6710916,101.204973 C69.5658804,99.7899668 71.2128445,98.9455246 72.966246,99.002733 L97,99.002733 Z" id="Path" fill="#F2F2F2"></path>
            <path d="M98,108.635037 C98,108.836568 97.8353665,109 97.6323535,109 L73.0367639,109 C70.255036,109 68,106.761424 68,104 C68,101.238576 70.255036,99 73.0367639,99 L97.6323535,99 C97.835399,99 98,99.1633995 98,99.364963 C98,99.5665265 97.835399,99.7299261 97.6323535,99.7299261 L73.0367639,99.7299261 C70.6626363,99.7320437 68.7391562,101.643201 68.7391562,104 C68.7391562,106.356799 70.6626363,108.267956 73.0367639,108.270074 L97.6323535,108.270074 C97.8353657,108.270154 98,108.433507 98,108.635037 L98,108.635037 Z" id="Path" fill="#64AAFF"></path>
            <path d="M96.9294641,102.072008 L72.071512,102.072008 C72.0460219,102.072185 72.0223928,102.0585 72.0095969,102.036147 C71.996801,102.013795 71.996801,101.986205 72.0095969,101.963853 C72.0223928,101.9415 72.0460219,101.927815 72.071512,101.927992 L96.9294641,101.927992 C96.9684982,101.928264 97,101.960423 97,102 C97,102.039577 96.9684982,102.071736 96.9294641,102.072008 L96.9294641,102.072008 Z" id="Path" fill="#CCCCCC"></path>
            <path d="M96.9294641,104.072008 L72.071512,104.072008 C72.0460219,104.072185 72.0223928,104.0585 72.0095969,104.036147 C71.996801,104.013795 71.996801,103.986205 72.0095969,103.963853 C72.0223928,103.9415 72.0460219,103.927815 72.071512,103.927992 L96.9294641,103.927992 C96.9684982,103.928264 97,103.960423 97,104 C97,104.039577 96.9684982,104.071736 96.9294641,104.072008 Z" id="Path" fill="#CCCCCC"></path>
            <path d="M96.9294641,105.072008 L72.071512,105.072008 C72.0460219,105.072185 72.0223928,105.0585 72.0095969,105.036147 C71.996801,105.013795 71.996801,104.986205 72.0095969,104.963853 C72.0223928,104.9415 72.0460219,104.927815 72.071512,104.927992 L96.9294641,104.927992 C96.9684982,104.928264 97,104.960423 97,105 C97,105.039577 96.9684982,105.071736 96.9294641,105.072008 L96.9294641,105.072008 Z" id="Path" fill="#CCCCCC"></path>
            <path d="M96.9294641,107.072008 L72.071512,107.072008 C72.0460219,107.072185 72.0223928,107.0585 72.0095969,107.036147 C71.996801,107.013795 71.996801,106.986205 72.0095969,106.963853 C72.0223928,106.9415 72.0460219,106.927815 72.071512,106.927992 L96.9294641,106.927992 C96.9684982,106.928264 97,106.960423 97,107 C97,107.039577 96.9684982,107.071736 96.9294641,107.072008 L96.9294641,107.072008 Z" id="Path" fill="#CCCCCC"></path>
            <path d="M93,89.002733 L93,97.997267 L68.966246,97.997267 C67.2128445,98.0544754 65.5658804,97.2100332 64.6710916,95.7950273 C63.7763028,94.3800213 63.7763028,92.6199787 64.6710916,91.2049727 C65.5658804,89.7899668 67.2128445,88.9455246 68.966246,89.002733 L93,89.002733 Z" id="Path" fill="#F2F2F2"></path>
            <path d="M94,98.635037 C94,98.8365682 93.8353665,99 93.6323535,99 L69.0367641,99 C67.2373017,99 65.5745297,98.0470055 64.6747985,96.5 C63.7750672,94.9529947 63.7750672,93.0470053 64.6747985,91.5 C65.5745297,89.9529945 67.2373017,89 69.0367641,89 L93.6323535,89 C93.835399,89 94,89.1633995 94,89.364963 C94,89.5665265 93.835399,89.7299261 93.6323535,89.7299261 L69.0367641,89.7299261 C66.6626366,89.7320437 64.7391565,91.6432005 64.7391565,94 C64.7391565,96.3567995 66.6626366,98.2679563 69.0367641,98.2700739 L93.6323535,98.2700739 C93.8353657,98.2701539 94,98.4335066 94,98.635037 L94,98.635037 Z" id="Path" fill="#3F3D56"></path>
            <path d="M91.9294641,92.0720077 L67.071512,92.0720077 C67.0460219,92.0721853 67.0223928,92.0584997 67.0095969,92.0361474 C66.996801,92.0137952 66.996801,91.9862048 67.0095969,91.9638526 C67.0223928,91.9415003 67.0460219,91.9278147 67.071512,91.9279923 L91.9294641,91.9279923 C91.9684982,91.9282643 92,91.9604235 92,92 C92,92.0395765 91.9684982,92.0717357 91.9294641,92.0720077 L91.9294641,92.0720077 Z" id="Path" fill="#CCCCCC"></path>
            <path d="M91.9294641,94.0720077 L67.071512,94.0720077 C67.0460219,94.0721853 67.0223928,94.0584997 67.0095969,94.0361474 C66.996801,94.0137952 66.996801,93.9862048 67.0095969,93.9638526 C67.0223928,93.9415003 67.0460219,93.9278147 67.071512,93.9279923 L91.9294641,93.9279923 C91.9684982,93.9282643 92,93.9604235 92,94 C92,94.0395765 91.9684982,94.0717357 91.9294641,94.0720077 L91.9294641,94.0720077 Z" id="Path" fill="#CCCCCC"></path>
            <path d="M91.9294641,95.0720077 L67.071512,95.0720077 C67.0460219,95.0721853 67.0223928,95.0584997 67.0095969,95.0361474 C66.996801,95.0137952 66.996801,94.9862048 67.0095969,94.9638526 C67.0223928,94.9415003 67.0460219,94.9278147 67.071512,94.9279923 L91.9294641,94.9279923 C91.9684982,94.9282643 92,94.9604235 92,95 C92,95.0395765 91.9684982,95.0717357 91.9294641,95.0720077 L91.9294641,95.0720077 Z" id="Path" fill="#CCCCCC"></path>
            <path d="M91.9294641,97.0720077 L67.071512,97.0720077 C67.0460219,97.0721853 67.0223928,97.0584997 67.0095969,97.0361474 C66.996801,97.0137952 66.996801,96.9862048 67.0095969,96.9638526 C67.0223928,96.9415003 67.0460219,96.9278147 67.071512,96.9279923 L91.9294641,96.9279923 C91.9684982,96.9282643 92,96.9604235 92,97 C92,97.0395765 91.9684982,97.0717357 91.9294641,97.0720077 L91.9294641,97.0720077 Z" id="Path" fill="#CCCCCC"></path>
            <path d="M119,142 L119,133.428571 C119,132.6396 118.40304,132 117.666667,132 L87.3333333,132 C86.5969598,132 86,132.6396 86,133.428571 L86,142 L119,142 Z" id="Path" fill="#CCCCCC"></path>
            <rect id="Rectangle" fill="#CCCCCC" x="86" y="145" width="33" height="11"></rect>
            <path d="M86,159 L86,167.571429 C86,168.3604 86.5969598,169 87.3333333,169 L117.666667,169 C118.40304,169 119,168.3604 119,167.571429 L119,159 L86,159 Z" id="Path" fill="#CCCCCC"></path>
            <circle id="Oval" fill="#FFFFFF" cx="103" cy="138" r="1"></circle>
            <circle id="Oval" fill="#FFFFFF" cx="103" cy="151" r="1"></circle>
            <circle id="Oval" fill="#FFFFFF" cx="103" cy="164" r="1"></circle>
            <path d="M116,124.002733 L116,132.997267 L91.966246,132.997267 C90.2128445,133.054475 88.5658804,132.210033 87.6710916,130.795027 C86.7763028,129.380021 86.7763028,127.619979 87.6710916,126.204973 C88.5658804,124.789967 90.2128445,123.945525 91.966246,124.002733 L116,124.002733 Z" id="Path" fill="#F2F2F2"></path>
            <path d="M117,131.635035 C117,131.836566 116.835389,132 116.632405,132 L92.0402449,132 C90.2400374,132.001482 88.5759372,131.048813 87.6754017,129.501198 C86.7748661,127.953584 86.7748661,126.046416 87.6754017,124.498802 C88.5759372,122.951187 90.2400374,121.998518 92.0402449,122 L116.632405,122 C116.835422,122 117,122.163401 117,122.364965 C117,122.566528 116.835422,122.729928 116.632405,122.729928 L92.0402449,122.729928 C89.6664484,122.732045 87.7432365,124.643201 87.7432365,127 C87.7432365,129.356799 89.6664484,131.267955 92.0402449,131.270072 L116.632405,131.270072 C116.835389,131.270152 117,131.433505 117,131.635035 L117,131.635035 Z" id="Path" fill="#3F3D56"></path>
            <path d="M115.929464,126.072008 L91.071512,126.072008 C91.0460219,126.072185 91.0223928,126.0585 91.0095969,126.036147 C90.996801,126.013795 90.996801,125.986205 91.0095969,125.963853 C91.0223928,125.9415 91.0460219,125.927815 91.071512,125.927992 L115.929464,125.927992 C115.968498,125.928264 116,125.960423 116,126 C116,126.039577 115.968498,126.071736 115.929464,126.072008 L115.929464,126.072008 Z" id="Path" fill="#CCCCCC"></path>
            <path d="M115.929464,127.072008 L91.071512,127.072008 C91.0460219,127.072185 91.0223928,127.0585 91.0095969,127.036147 C90.996801,127.013795 90.996801,126.986205 91.0095969,126.963853 C91.0223928,126.9415 91.0460219,126.927815 91.071512,126.927992 L115.929464,126.927992 C115.968498,126.928264 116,126.960423 116,127 C116,127.039577 115.968498,127.071736 115.929464,127.072008 L115.929464,127.072008 Z" id="Path" fill="#CCCCCC"></path>
            <path d="M115.929464,129.072008 L91.071512,129.072008 C91.0460219,129.072185 91.0223928,129.0585 91.0095969,129.036147 C90.996801,129.013795 90.996801,128.986205 91.0095969,128.963853 C91.0223928,128.9415 91.0460219,128.927815 91.071512,128.927992 L115.929464,128.927992 C115.968498,128.928264 116,128.960423 116,129 C116,129.039577 115.968498,129.071736 115.929464,129.072008 L115.929464,129.072008 Z" id="Path" fill="#CCCCCC"></path>
            <path d="M115.929464,130.072008 L91.071512,130.072008 C91.0460219,130.072185 91.0223928,130.0585 91.0095969,130.036147 C90.996801,130.013795 90.996801,129.986205 91.0095969,129.963853 C91.0223928,129.9415 91.0460219,129.927815 91.071512,129.927992 L115.929464,129.927992 C115.968498,129.928264 116,129.960423 116,130 C116,130.039577 115.968498,130.071736 115.929464,130.072008 L115.929464,130.072008 Z" id="Path" fill="#CCCCCC"></path>
            <path d="M85,62.4342134 L85,2.56579006 C85.0015971,1.14941121 86.1394163,0.00161108566 87.5434787,0 L134.456521,0 C135.86058,0.00162046466 136.998394,1.1494151 137,2.56579006 L137,62.4342134 C136.998401,63.8505909 135.860582,64.9983889 134.456521,65 L87.5434787,65 C86.1394176,64.9983889 85.0015989,63.8505909 85,62.4342134 Z M87.5434787,0.570175947 C86.4514222,0.571409213 85.5664404,1.46415406 85.5652179,2.56579006 L85.5652179,62.4342134 C85.5664423,63.5358486 86.451423,64.4285923 87.5434787,64.4298275 L134.456521,64.4298275 C135.548576,64.4285904 136.433556,63.5358478 136.434782,62.4342134 L136.434782,2.56579006 C136.433558,1.46415484 135.548577,0.571411089 134.456521,0.570175947 L87.5434787,0.570175947 Z" id="Shape" fill="#E6E6E6"></path>
            <path d="M113,27.7912438 L113,16.2087594 C113.000787,15.541487 113.575455,15.0007404 114.284587,15 L124.715413,15 C125.424545,15.0007404 125.999213,15.541487 126,16.2087594 L126,27.7912438 C125.999213,28.4585157 125.424544,28.9992613 124.715413,29 L114.284587,29 C113.575456,28.9992613 113.000787,28.4585157 113,27.7912438 Z" id="Path" fill="#64AAFF"></path>
            <path d="M93,32.7912245 L93,21.2087562 C93.0007869,20.5414855 93.575454,20.0007404 94.2845838,20 L104.715416,20 C105.424546,20.0007404 105.999213,20.5414855 106,21.2087562 L106,32.7912406 C105.999213,33.4585118 105.424547,33.9992578 104.715416,34 L94.2845838,34 C93.5754467,33.9992578 93.0007775,33.458502 93,32.7912245 L93,32.7912245 Z" id="Path" fill="#CCCCCC"></path>
            <path d="M109,50.7912406 L109,39.2087562 C109.000789,38.541485 109.575457,38.0007404 110.284587,38 L120.715413,38 C121.424543,38.0007404 121.999211,38.541485 122,39.2087562 L122,50.7912406 C121.999213,51.458513 121.424545,51.9992596 120.715413,52 L110.284587,52 C109.575455,51.9992596 109.000787,51.458513 109,50.7912406 Z" id="Path" fill="#FF6584"></path>
            <path d="M171.431162,107.000764 L161.160826,107.000764 C161.063361,107.000696 160.967186,107.019351 160.879761,107.055281 L158.287596,108.137457 C158.113217,108.199268 158,108.341989 158,108.5 C158,108.658011 158.113217,108.800732 158.287596,108.862543 L160.879761,109.944719 C160.967186,109.98065 161.063361,109.999304 161.160826,109.999237 L171.431165,109.999237 C171.725685,110.013448 171.97919,109.827582 172,109.582176 L172,107.41784 C171.9792,107.172427 171.72569,106.986551 171.431162,107.000764 Z" id="Path" fill="#3F3D56"></path>
            <path d="M171,107.41784 L171,109.582176 C170.984084,109.827582 170.790198,110.013448 170.564943,109.999237 L169,109.999237 L169,107.000763 L170.564943,107.000763 C170.790203,106.986553 170.984092,107.172428 171,107.41784 Z" id="Path" fill="#64AAFF"></path>
            <path d="M171.248777,86.3171946 C172.22331,85.8796613 173.330968,85.8954102 174.293643,86.3604871 C175.256319,86.8255639 175.982581,87.6957973 176.290083,88.7526923 C176.337431,88.9183567 176.373653,89.0872449 176.398486,89.2581358 L191.27405,96.9324791 L194.716632,94.5589977 L199,99.6892733 L193.743567,104.130772 C192.445546,105.219003 190.615046,105.292451 189.240316,104.311464 L174.147654,93.4529923 C174.035345,93.5025438 173.92066,93.5460541 173.804055,93.5833509 C172.788004,93.9030561 171.689112,93.7566197 170.783315,93.1808125 C169.877518,92.6050052 169.250857,91.6545223 169.060687,90.5680338 C169.032829,90.412124 169.014451,90.2545413 169.005661,90.0962244 C168.919908,88.4724031 169.814846,86.9646805 171.248777,86.3171946 L171.248777,86.3171946 Z" id="Path" fill="#FFB8B8"></path>
            <path d="M202.760877,132 L186.479307,132 C186.479307,132.46 169.699137,132.833333 169.699137,132.833333 C169.43576,133.028257 169.195721,133.251908 168.98362,133.5 C168.346257,134.247171 167.997895,135.191617 168,136.166667 L168,136.833333 C168.000871,139.134169 169.898289,140.999154 172.239139,141 L202.760871,141 C205.101234,140.998 206.997966,139.133691 207,136.833333 L207,136.166667 C206.996759,133.866804 205.100737,132.003189 202.760877,132 Z" id="Path" fill="#3F3D56"></path>
            <rect id="Rectangle" fill="#3F3D56" transform="translate(186.000000, 155.500000) rotate(-180.000000) translate(-186.000000, -155.500000) " x="184" y="141" width="4" height="29"></rect>
            <path d="M172,169.758867 C172,170.179794 178.715728,169.921681 187,169.921681 C195.284272,169.921681 202,170.179794 202,169.758867 C202,169.33794 195.284272,166 187,166 C178.715728,166 172,169.337946 172,169.758867 Z" id="Path" fill="#3F3D56"></path>
            <polygon id="Path" fill="#FFB8B8" points="176.999226 166 172.256604 165.999654 170 155 177 155.000346"></polygon>
            <path d="M175.999753,170 L163,169.999449 L163,169.810623 C163,168.269529 163.533076,166.79155 164.481997,165.70184 C165.430917,164.61213 166.71793,164 168.059896,164 L168.060225,164 L176,164.000378 L175.999753,170 Z" id="Path" fill="#2F2E41"></path>
            <path d="M170.019911,159.078541 L161.591833,140.142212 C160.132616,136.832465 161.456263,132.954808 164.632792,131.233643 L182.913665,121.411714 L191.255617,120.700795 L198.950501,120 L199.005981,120.094136 C199.076952,120.214255 200.731417,123.077494 199.613063,126.217069 C198.764769,128.598492 196.55821,130.458619 193.05472,131.745827 C184.877185,134.750105 175.430516,137.317789 171.74863,138.282094 C171.419496,138.366418 171.142026,138.587671 170.986138,138.890104 C170.829896,139.188858 170.805357,139.539435 170.91845,139.857115 L178.748454,157.482939 C178.914195,157.936002 178.860585,158.44049 178.603348,158.84843 C178.346111,159.256369 177.91441,159.521514 177.434868,159.566094 L171.584209,159.992914 C171.534539,159.997638 171.485093,160 171.435871,160 C170.823735,160 170.269004,159.638792 170.019911,159.078541 Z" id="Path" fill="#2F2E41"></path>
            <polygon id="Path" fill="#FFB8B8" points="177.999226 166 173.256604 165.999654 171 155 178 155.000346"></polygon>
            <path d="M178.999753,170 L166,169.999449 L166,169.810623 C166,168.269529 166.533076,166.79155 167.481997,165.70184 C168.430917,164.61213 169.71793,164 171.059896,164 L171.060225,164 L179,164.000378 L178.999753,170 Z" id="Path" fill="#2F2E41"></path>
            <path d="M172.019911,160.078541 L163.591833,141.142212 C162.132616,137.832465 163.456263,133.954808 166.632792,132.233643 L184.913665,122.411714 L193.255617,121.700795 L200.950501,121 L201.005981,121.094136 C201.076952,121.214255 202.731417,124.077494 201.613063,127.217069 C200.764769,129.598492 198.55821,131.458619 195.05472,132.745827 C186.877185,135.750105 177.430516,138.317789 173.74863,139.282094 C173.419496,139.366418 173.142026,139.587671 172.986138,139.890104 C172.829896,140.188858 172.805357,140.539435 172.91845,140.857115 L180.748454,158.482939 C180.914195,158.936002 180.860585,159.44049 180.603348,159.84843 C180.346111,160.256369 179.91441,160.521514 179.434868,160.566094 L173.584209,160.992914 C173.534539,160.997638 173.485093,161 173.435871,161 C172.823735,161 172.269004,160.638792 172.019911,160.078541 Z" id="Path" fill="#2F2E41"></path>
            <path d="M168.325943,103.432044 C164.807999,98.8229726 162.026939,93.7107379 160.079349,88.2728873 C159.846352,87.6011547 160.140745,86.8619789 160.775302,86.5254577 L172.813677,80.1720183 C173.208316,79.9621504 173.679179,79.9433241 174.08979,80.1209961 C174.508051,80.3000107 174.819117,80.6590179 174.932867,81.0940057 C176.334048,86.334082 178.967858,91.1757093 182.621212,95.2271837 C182.925979,95.5613441 183.057201,96.0152967 182.976843,96.4574606 C182.899603,96.8926037 182.622889,97.2683223 182.226903,97.4757166 L170.188532,103.829173 C169.5526,104.163169 168.76471,103.99518 168.325943,103.432044 L168.325943,103.432044 Z" id="Path" fill="#CCCCCC"></path>
            <path d="M169.141413,102.835648 C169.275368,103 169.509259,103.047556 169.69848,102.948794 L181.768489,96.5883107 C181.887307,96.527404 181.970253,96.4152766 181.992605,96.2853502 C182.018122,96.1481813 181.97681,96.0071788 181.88099,95.9043933 C178.110106,91.7290359 175.391588,86.7393293 173.945385,81.3389822 C173.911456,81.2037214 173.815123,81.0918675 173.685045,81.0366972 C173.562492,80.9827939 173.421329,80.9885328 173.303718,81.0521998 L161.233976,87.412507 C161.045354,87.5127392 160.955972,87.7308037 161.02118,87.9316639 C162.938925,93.2779832 165.677372,98.3041648 169.141413,102.835648 L169.141413,102.835648 Z" id="Path" fill="#FFFFFF"></path>
            <path d="M207,101.577685 L197.537645,105 L195.227461,98.8922589 C194.594123,97.2178055 195.320255,95.3525977 196.947036,94.4752106 L196.947036,94.4752106 C198.593912,93.5869778 200.675219,93.9737163 201.850157,95.3862851 L207,101.577685 Z" id="Path" fill="#64AAFF"></path>
            <path d="M184.221342,126.694406 C183.82799,126.416688 183.573237,125.983601 183.52196,125.50544 C182.338569,114.479705 183.162846,105.851206 186.0415,99.1268807 C187.068753,96.7771095 189.117971,95.0265504 191.602619,94.3762557 L199.071257,94 L199.109937,94.0186511 C202.570608,95.7104202 204.510434,99.4668442 203.883011,103.261593 C201.480827,109.581362 199.469389,116.161239 201.003374,121.46921 C201.133342,121.917598 201.074692,122.39948 200.840943,122.80377 C200.614229,123.194651 200.235725,123.474623 199.795069,123.577381 L185.56962,126.954838 C185.10358,127.06549 184.612369,126.970608 184.221342,126.694406 Z" id="Path" fill="#64AAFF"></path>
            <circle id="Oval" fill="#FFB8B8" cx="195.5" cy="82.5" r="8.5"></circle>
            <path d="M173.371688,88.6350751 L166.646014,91.9013466 C166.11342,92.1592358 165.491587,91.8941298 165.256017,91.3087491 L165.089671,90.8941589 C164.855263,90.3082141 165.096231,89.6240919 165.628312,89.3649249 L172.353986,86.0986534 C172.88658,85.8407642 173.508413,86.1058702 173.743983,86.6912509 L173.910329,87.1058411 C174.144737,87.6917859 173.903769,88.3759081 173.371688,88.6350751 Z" id="Path" fill="#CCCCCC"></path>
            <path d="M176.371688,92.6350751 L169.646014,95.9013466 C169.11342,96.1592358 168.491587,95.8941298 168.256017,95.3087491 L168.089671,94.8941589 C167.855263,94.3082141 168.096231,93.6240919 168.628312,93.3649249 L175.353986,90.0986534 C175.88658,89.8407642 176.508413,90.1058702 176.743983,90.6912509 L176.910329,91.1058411 C177.144737,91.6917859 176.903769,92.3759081 176.371688,92.6350751 L176.371688,92.6350751 Z" id="Path" fill="#CCCCCC"></path>
            <path d="M180.801779,111.189751 L166.035964,99.4583499 C165.918349,99.5000156 165.798685,99.5355663 165.677447,99.5648615 C164.623445,99.8131535 163.514328,99.598899 162.62636,98.9754654 C161.732194,98.3513843 161.148758,97.3692262 161.02555,96.2806547 C160.821688,94.5096472 161.854678,92.8301714 163.519949,92.2251602 C164.541003,91.8563223 165.669798,91.9436105 166.622969,92.4651129 C167.57614,92.9866152 168.263176,93.8928107 168.511609,94.9562148 C168.549649,95.1228329 168.576125,95.2919158 168.590846,95.4622373 L183.289919,104.002172 L186.94788,101.881268 L191,107.223923 L185.320541,111.300685 C183.955205,112.272627 182.118465,112.227534 180.801776,111.189747 L180.801779,111.189751 Z" id="Path" fill="#FFB8B8"></path>
            <path d="M192.439462,108 L184,102.258873 L187.966199,96.6392859 C189.053546,95.0986686 191.092193,94.5656999 192.793976,95.3771477 L192.793976,95.3771477 C194.516789,96.1986166 195.384037,98.1536411 194.837028,99.9827732 L192.439462,108 Z" id="Path" fill="#64AAFF"></path>
            <path d="M192.765912,81.2091602 C190.606644,82.6646461 187.771473,84.1607999 185.566113,82.6108264 C184.118034,81.5930869 183.661789,79.7084686 184.249012,78.0545951 C185.305012,75.0804418 188.206346,73.7710836 190.980752,72.7674289 C194.587477,71.4626826 198.514673,70.4246966 202.23803,71.3590925 C205.961388,72.2934884 209.25199,75.8439258 208.579853,79.5698028 C208.039337,82.5660755 205.169605,85.0592071 205.576988,88.0758374 C205.986994,91.1118348 209.453721,92.7098977 212.51429,93.2525041 C215.574859,93.7951106 218.999709,93.9694552 221.199216,96.134565 C224.005094,98.8965625 223.304419,103.833328 220.6642,106.749447 C218.023981,109.665567 214.039758,110.987413 210.17904,111.886022 C205.063826,113.076624 199.53132,113.702339 194.673157,111.726416 C189.814994,109.750494 186.034439,104.431543 187.44177,99.4439156 C188.036224,97.3371463 189.43658,95.5566436 190.789949,93.8232669 C192.143318,92.0898901 193.513735,90.2772863 194.029985,88.1506142 C194.46019,86.3783887 194.141774,84.3207497 192.948482,82.9913776 C192.503206,82.514011 192.421096,81.8083865 192.74517,81.2441821 L192.765912,81.2091602 Z" id="Path" fill="#2F2E41"></path>
            <path d="M35.6364045,121.264177 C31.3776966,122.769929 26.6465311,121.931632 23.1556944,119.052767 C18.7842668,115.362219 17.4136926,109.282062 16.2985054,103.652159 C15.1990047,98.101437 14.0995029,92.5507174 13,87 L19.9057636,91.7829046 C24.871976,95.2224835 29.950068,98.7722545 33.3886563,103.754317 C36.8272446,108.73638 38.3281841,115.537341 35.565387,120.928166" id="Path" fill="#E6E6E6"></path>
            <path d="M34.9092754,141.629944 C35.6094914,136.453357 36.3294959,131.210278 35.8383314,125.978202 C35.4021237,121.331559 34.0053709,116.793089 31.1617545,113.071856 C29.6523579,111.100378 27.8157179,109.411215 25.7344033,108.080304 C25.1916628,107.732615 24.6921388,108.605585 25.2325126,108.951764 C28.833791,111.261774 31.6192492,114.672838 33.187286,118.693158 C34.9191497,123.16395 35.1972619,128.037493 34.898821,132.786764 C34.7183417,135.658826 34.335838,138.512066 33.9503875,141.361645 C33.887339,141.629044 34.0390986,141.900321 34.2976499,141.982394 C34.562221,142.054749 34.8349073,141.89761 34.9092621,141.629944 L34.9092754,141.629944 Z" id="Path" fill="#F2F2F2"></path>
            <path d="M29,133.593529 C27.1381463,136.448409 23.934804,138.116405 20.5496559,137.993666 C16.2719464,137.788797 12.705699,134.776718 9.4954084,131.91711 L0,123.458961 L6.28438597,123.155542 C10.803743,122.937341 15.4396961,122.733809 19.744229,124.139867 C24.048762,125.545925 28.0186268,128.929806 28.8057362,133.424902" id="Path" fill="#E6E6E6"></path>
            <path d="M36.9337121,145.291269 C33.52048,138.978663 29.5614285,131.962919 22.4872702,129.720585 C20.5203008,129.099208 18.4578105,128.876619 16.4108676,129.064804 C15.7657335,129.122947 15.926829,130.162372 16.5707916,130.104335 C20.0019158,129.806574 23.4264204,130.753543 26.2677735,132.785814 C29.0019564,134.731053 31.130815,137.435461 32.932662,140.303356 C34.0363489,142.060025 35.0249604,143.891223 36.0137598,145.719966 C36.3297607,146.30439 37.2534022,145.882522 36.9337121,145.291266 L36.9337121,145.291269 Z" id="Path" fill="#F2F2F2"></path>
            <path d="M43.5692542,151.755891 C43.3257018,148.999355 41.5316526,146.604333 38.9155269,145.543252 L38.9155269,142 L32.8310399,142 L32.8310399,145.654908 C30.3468368,146.766689 28.6662024,149.09686 28.4307109,151.755891 L27,168 L45,168 L43.5692542,151.755891 Z" id="Path" fill="#F2F2F2"></path>
        </g>
    </g>
</svg>