<?xml version="1.0" encoding="UTF-8"?>
<svg width="1024px" height="485px" viewBox="0 0 1024 485" version="1.1" xmlns="http://www.w3.org/2000/svg" xmlns:xlink="http://www.w3.org/1999/xlink">
    <title>Artboard Copy 2</title>
    <defs>
        <rect id="path-1" x="0" y="0" width="1024" height="485"></rect>
    </defs>
    <g id="Artboard-Copy-2" stroke="none" stroke-width="1" fill="none" fill-rule="evenodd">
        <g id="Rectangle-Copy-15">
            <mask id="mask-2" fill="white">
                <use xlink:href="#path-1"></use>
            </mask>
            <use id="Mask" fill="#161523" xlink:href="#path-1"></use>
        </g>
        <polygon id="Path-3" fill="#D8D8D8" opacity="0.0361555233" points="-42 -8 1024 485 1024 -8"></polygon>
        <g id="Moodle-logo-Copy-2" transform="translate(370.000000, 213.000000)" fill-rule="nonzero">
            <path d="M67.2693016,72 L67.2693016,46.7727741 C67.2693016,41.5002077 65.1132527,38.8631478 60.801155,38.8615943 C56.4890573,38.8600408 54.3283884,41.4971007 54.3191482,46.7727741 L54.3191482,72 L41.5792095,72 L41.5792095,46.7727741 C41.5792095,41.5002077 39.4562714,38.8631478 35.2103952,38.8615943 C30.8905974,38.8615943 28.7345485,41.4986542 28.7422487,46.7727741 L28.7422487,72 L16,72 L16,45.2837479 C16,39.7797106 17.8942429,35.6140104 21.6827287,32.7866472 C25.0184443,30.2622157 29.5276665,29 35.2103952,29 C40.9716658,29 45.2160019,30.4905797 47.9434037,33.471739 C50.293497,30.4905797 54.576334,29 60.7919148,29 C66.4746436,29 70.9823257,30.2622157 74.3149612,32.7866472 C78.103447,35.6124569 79.99846,39.7781571 80,45.2837479 L80,72 L67.2693016,72 Z" id="Path" fill="#F98012"></path>
            <polygon id="Path" fill="#F98012" points="223 73 223 0 236 0 236 73"></polygon>
            <path d="M206.676139,72.310262 L206.676139,68.050253 C205.545074,69.5840433 203.623489,70.8123225 200.911382,71.7350906 C198.696093,72.5417177 196.364926,72.9691369 194.012499,73 C187.982195,73 183.139585,70.8887003 179.484669,66.6661008 C175.829754,62.4435014 174.001531,57.221756 174,51.0008648 C174,44.8633656 175.781542,39.7078662 179.372175,35.5694382 C182.55186,31.9103196 187.717412,29.3524438 193.672721,29.3524438 C200.381052,29.3524438 204.297689,31.9243482 206.676139,34.8773621 L206.676139,0 L219,0 L219,72.310262 L206.676139,72.310262 Z M206.676139,48.2465889 C206.676139,45.9427861 205.604765,43.7348451 203.462017,41.622766 C201.319269,39.5106869 199.1153,38.4546474 196.85011,38.4546474 C193.611499,38.4546474 191.049385,39.7982726 189.163767,42.485523 C187.503138,44.8703799 186.673588,47.787543 186.675117,51.2370124 C186.675117,54.6163389 187.504668,57.4953131 189.163767,59.873935 C191.046324,62.6406807 193.608438,64.0224948 196.85011,64.0193826 C198.810724,64.0193826 200.940462,63.0786838 203.239325,61.1972968 C205.538187,59.3159097 206.686087,57.3784084 206.683032,55.3847928 L206.676139,48.2465889 Z" id="Shape" fill="#F98012"></path>
            <path d="M150.452337,74.000008 C143.962541,74.000008 138.600361,71.9017841 134.365797,67.7053523 C130.131232,63.5089206 128.0093,58.1067446 128,51.4988243 C128,44.8972169 130.118832,39.49583 134.356497,35.2946636 C138.594161,31.0934973 143.956341,28.9952814 150.443037,29.000008 C156.929733,29.000008 162.311288,31.0982319 166.587702,35.2946636 C170.864116,39.4910954 173.001548,44.8924823 173,51.4988243 C173,58.1083228 170.862566,63.5104987 166.587702,67.7053523 C162.312838,71.9002059 156.934383,73.9984218 150.452337,74.000008 Z M150.452337,39.491883 C147.361663,39.491883 144.986308,40.6834249 143.326272,43.0665058 C141.666236,45.4495866 140.836218,48.2808761 140.836218,51.5603741 C140.836218,54.8398721 141.611211,57.6119791 143.161198,59.876695 C144.937483,62.4554726 147.370963,63.7432831 150.461637,63.7401325 C153.552311,63.7369703 155.985016,62.4491598 157.759751,59.876695 C159.381037,57.6135573 160.191681,54.8414503 160.191681,51.5603741 C160.191681,48.2792979 159.416687,45.5071909 157.8667,43.2440532 C156.090415,40.7410292 153.618961,39.4903063 150.452337,39.491883 Z" id="Shape" fill="#F98012"></path>
            <path d="M104.444185,74.000008 C97.955608,74.000008 92.592379,71.9017841 88.354498,67.7053523 C84.1166171,63.5089206 81.9984516,58.1067446 82.0000008,51.4988243 C82.0000008,44.8972169 84.1181671,39.49583 88.354498,35.2946636 C92.5908289,31.0934973 97.9540579,28.9952814 104.444185,29.000008 C110.928112,29.000008 116.309942,31.0982319 120.589674,35.2946636 C124.869407,39.4910954 127.006173,44.8924823 126.999987,51.4988243 C126.999987,58.1083228 124.863207,63.5104987 120.589674,67.7053523 C116.316142,71.9002059 110.934312,73.9984218 104.444185,74.000008 Z M104.444185,39.491883 C101.353353,39.491883 98.9771016,40.6834249 97.3154307,43.0665058 C95.6537597,45.4495866 94.8236993,48.2808761 94.8252472,51.5603741 C94.8252472,54.8398721 95.6002824,57.6119791 97.1503486,59.876695 C98.9267245,62.4554726 101.361103,63.7432831 104.453485,63.7401325 C107.545867,63.7369703 109.978696,62.4491598 111.751972,59.876695 C113.370241,57.6135573 114.179376,54.8414503 114.179376,51.5603741 C114.179376,48.2792979 113.404343,45.5071909 111.854276,43.2440532 C110.081001,40.7410292 107.61097,39.4903063 104.444185,39.491883 Z" id="Shape" fill="#F98012"></path>
            <path d="M251.659982,55.277941 C251.930759,58.3782139 255.84785,65.0462798 262.28684,65.0462798 C268.553726,65.0462798 271.518507,61.3226467 271.66537,59.8138315 L285,59.6957708 C283.545146,64.2741631 277.633942,74 262.052779,74 C255.572483,74 249.642921,71.9244937 245.383917,67.7782034 C241.124913,63.6319131 239,58.2270962 239,51.5566691 C239,44.6572043 241.127972,39.1728933 245.383917,35.103736 C249.639862,31.0345787 255.159433,29 261.942632,29 C269.323988,29 275.0868,31.5186273 279.231069,36.555882 C283.075493,41.2043236 284.99694,47.4442229 284.995411,55.2755798 L251.659982,55.277941 Z M272.342313,47.2498164 C271.814527,44.4565012 270.683229,42.1755693 268.953008,40.388131 C266.991786,38.4519362 264.731484,37.4830517 262.172104,37.4814776 C259.533174,37.4814776 257.328711,38.4117956 255.558715,40.2724315 C253.788719,42.1330675 252.603113,44.4588624 252.001896,47.2498164 L272.342313,47.2498164 Z" id="Shape" fill="#F98012"></path>
            <path d="M40.3574168,26.9677592 L53,17.5730757 L52.8383301,17 C30.024403,19.8442404 19.649817,21.8594 0,33.4430447 L0.182455987,33.969147 L1.74372494,33.9855877 C1.60053164,35.5850326 1.35109813,39.5378456 1.66981872,45.4823316 C-0.510414851,51.8989004 1.61438905,56.2580335 3.60985707,61 C3.92626808,56.0677912 3.89393411,50.6658482 2.40426181,45.2897406 C2.09246993,39.385182 2.34883214,35.5028291 2.48971588,33.9926337 L15.5156876,34.1194619 C15.480678,36.7134248 15.6095091,39.3069969 15.9013857,41.8841678 C27.5416158,46.0436639 39.2488234,41.8700758 45.4638748,31.6157788 C43.7386265,29.6499413 40.3574168,26.9677592 40.3574168,26.9677592 Z" id="Path" fill="#333333"></path>
        </g>
    </g>
</svg>