<?xml version="1.0" encoding="UTF-8"?>
<svg width="1026px" height="459px" viewBox="0 0 1026 459" version="1.1" xmlns="http://www.w3.org/2000/svg" xmlns:xlink="http://www.w3.org/1999/xlink">
    <title>Group 13</title>
    <defs>
        <filter id="filter-1">
            <feColorMatrix in="SourceGraphic" type="matrix" values="0 0 0 0 0.761084 0 0 0 0 0.812992 0 0 0 0 0.916808 0 0 0 1.000000 0"></feColorMatrix>
        </filter>
        <rect id="path-2" x="0" y="0" width="1026" height="459"></rect>
        <filter id="filter-4">
            <feColorMatrix in="SourceGraphic" type="matrix" values="0 0 0 0 0.784314 0 0 0 0 0.741176 0 0 0 0 0.556863 0 0 0 1.000000 0"></feColorMatrix>
        </filter>
        <filter id="filter-5">
            <feColorMatrix in="SourceGraphic" type="matrix" values="0 0 0 0 0.784314 0 0 0 0 0.741176 0 0 0 0 0.556863 0 0 0 1.000000 0"></feColorMatrix>
        </filter>
    </defs>
    <g id="Page-1" stroke="none" stroke-width="1" fill="none" fill-rule="evenodd">
        <g id="IT-SKILLS-DARK" transform="translate(0.000000, -129.000000)">
            <g id="Group-13" transform="translate(0.000000, 129.000000)">
                <g filter="url(#filter-1)" id="Group-7">
                    <g transform="translate(0.000000, -0.000000)">
                        <g id="Rectangle-Copy-14">
                            <mask id="mask-3" fill="white">
                                <use xlink:href="#path-2"></use>
                            </mask>
                            <use id="Mask" fill="#FFFFFF" xlink:href="#path-2"></use>
                        </g>
                        <g filter="url(#filter-4)" id="next">
                            <g transform="translate(973.000000, 196.127517)">
                                <path d="M18.5991346,17.4688101 L2.32705112,0.418029143 C1.79391529,-0.140292042 0.93075607,-0.139353445 0.39851349,0.420917136 C-0.133316818,0.981115517 -0.13194258,1.88859502 0.401261967,2.4473494 L15.7047822,18.4832898 L0.400712272,34.519158 C-0.132423563,35.0779845 -0.133797802,35.9848864 0.397963795,36.545157 C0.664772204,36.8260143 1.01430977,36.966443 1.36384734,36.966443 C1.71249165,36.966443 2.06065498,36.8269529 2.32698241,36.548045 L18.5991346,19.4976972 C18.8559111,19.2292583 19,18.8639272 19,18.4832898 C19,18.1026523 18.8554988,17.7377545 18.5991346,17.4688101 Z" id="Path" fill="#000000" fill-rule="nonzero"></path>
                            </g>
                        </g>
                        <g filter="url(#filter-5)" id="next-copy">
                            <g transform="translate(42.500000, 222.825503) scale(-1, 1) translate(-42.500000, -222.825503) translate(33.000000, 204.342282)">
                                <path d="M18.5991346,17.4688101 L2.32705112,0.418029143 C1.79391529,-0.140292042 0.93075607,-0.139353445 0.39851349,0.420917136 C-0.133316818,0.981115517 -0.13194258,1.88859502 0.401261967,2.4473494 L15.7047822,18.4832898 L0.400712272,34.519158 C-0.132423563,35.0779845 -0.133797802,35.9848864 0.397963795,36.545157 C0.664772204,36.8260143 1.01430977,36.966443 1.36384734,36.966443 C1.71249165,36.966443 2.06065498,36.8269529 2.32698241,36.548045 L18.5991346,19.4976972 C18.8559111,19.2292583 19,18.8639272 19,18.4832898 C19,18.1026523 18.8554988,17.7377545 18.5991346,17.4688101 Z" id="Path" fill="#000000" fill-rule="nonzero"></path>
                            </g>
                        </g>
                    </g>
                </g>
                <g id="undraw_Social_media_re_w12q-Copy" transform="translate(379.000000, 119.000000)">
                    <path d="M176.414675,214.170117 C174.143661,215.823252 171.681641,217.187432 169.083705,218.232133 C168.403242,218.508565 167.718899,218.765801 167.023113,219 L131.510444,219 C131.36682,218.746604 131.226886,218.489368 131.083262,218.232133 C128.202268,212.99528 125.589694,207.554943 124.848678,201.638528 C123.960163,194.535758 126.451816,186.492352 132.610709,183.002396 C133.417437,182.545639 134.272189,182.182459 135.158852,181.919704 C135.52567,181.804524 135.899883,181.71238 136.27796,181.631754 C140.978612,180.572324 145.876284,182.17269 149.08645,185.817063 C152.296617,189.461436 153.319035,194.581909 151.760298,199.208229 C156.981567,193.771731 156.006105,184.956618 154.206355,177.588934 C152.402927,170.22125 150.217713,162.020431 153.888827,155.401418 C155.926716,151.719496 159.514571,149.435091 163.537358,148.513651 C163.662154,148.486799 163.786949,148.45992 163.907874,148.436864 C168.704013,147.450365 173.690098,148.337435 177.870333,150.920914 C185.567933,155.842941 189.51873,165.184043 190.800461,174.329339 C192.868596,189.049349 188.293831,205.474023 176.414675,214.170117 Z" id="Path" fill="#212429" fill-rule="nonzero"></path>
                    <path d="M138.845926,186.061302 C141.529471,191.969985 142.385428,198.659331 141.286842,205.137185 C140.45797,209.886922 138.631141,214.365693 135.948107,218.225973 C135.76619,218.489143 135.580612,218.748441 135.391394,219 L134.067416,219 C134.270944,218.748441 134.470637,218.489143 134.659873,218.225973 C139.588818,211.567075 141.65878,202.941244 140.348316,194.521412 C139.579593,189.838526 137.8017,185.418798 135.159465,181.62226 C135.505705,181.506156 135.858925,181.413273 136.215793,181.332 C137.220728,182.82027 138.100944,184.403006 138.845926,186.061302 Z" id="Path" fill="#FFFFFF" fill-rule="nonzero"></path>
                    <path d="M173.083401,190.41874 C172.780592,193.683002 172.014333,196.884649 170.8088,199.922665 C169.69745,202.611137 168.199617,205.114504 166.364954,207.349778 C162.619198,211.962772 157.662371,215.433133 152.279322,217.74156 C151.88699,217.911411 151.490913,218.073541 151.091092,218.227951 C150.396868,218.505889 149.695274,218.760665 148.989816,219 L145.168539,219 C146.070167,218.768385 146.967916,218.509749 147.854447,218.227951 C149.962252,217.556753 152.018719,216.727116 154.007056,215.745813 C159.061089,213.294406 163.449687,209.610711 166.78749,205.01819 C170.367289,199.961268 171.948035,193.881381 172.219538,187.701127 C172.506325,181.088526 171.665115,174.356258 170.190093,167.921228 C168.684894,161.325467 166.395695,154.943261 163.373654,148.917238 C163.233168,148.633933 163.334327,148.287665 163.60371,148.129748 C163.712527,148.056017 163.845045,148.028342 163.973393,148.052543 C164.100677,148.085999 164.206158,148.176924 164.26,148.299599 C164.633542,149.044646 164.999536,149.789654 165.350237,150.542402 C168.279598,156.818235 170.437481,163.441441 171.774533,170.260537 C173.0683,176.838396 173.762339,183.721214 173.083401,190.41874 Z" id="Path" fill="#FFFFFF" fill-rule="nonzero"></path>
                    <path d="M15.7977528,109.5 C7.07289485,109.5 0,102.244327 0,93.294 C0,84.3436733 7.07289485,77.088 15.7977528,77.088 C24.5226108,77.088 31.5955056,84.3436733 31.5955056,93.294 C31.5856264,102.240125 24.5185154,109.489866 15.7977528,109.5 L15.7977528,109.5 Z M15.7977528,77.8597143 C7.48836428,77.8597143 0.752273943,84.7698794 0.752273943,93.294 C0.752273943,101.818121 7.48836428,108.728286 15.7977528,108.728286 C24.1071413,108.728286 30.8432317,101.818121 30.8432317,93.294 C30.8338458,84.7738708 24.1032505,77.8693427 15.7977528,77.8597143 Z" id="Shape" fill="#3F3D56" fill-rule="nonzero"></path>
                    <path d="M79.8429275,56.94 C73.4534263,56.94 67.6930766,52.9915926 65.2479203,46.9359139 C62.8027641,40.8802353 64.154333,33.9098476 68.6723926,29.2750318 C73.1904522,24.640216 79.9852481,23.2537197 85.8883774,25.762064 C91.7915068,28.2704082 95.6404494,34.1796175 95.6404494,40.7342368 C95.6305704,49.6802316 88.5635626,56.9298657 79.8429275,56.94 Z M79.8429275,25.3001767 C71.5336604,25.3001767 64.7976685,32.2102408 64.7976685,40.7342368 C64.7976685,49.2582329 71.5336604,56.168297 79.8429275,56.168297 C88.1521946,56.168297 94.8881865,49.2582329 94.8881865,40.7342368 C94.8788007,32.2142322 88.1483038,25.309805 79.8429275,25.3001767 L79.8429275,25.3001767 Z" id="Shape" fill="#3F3D56" fill-rule="nonzero"></path>
                    <path d="M148.157534,32.412 C141.768033,32.412 136.007683,28.4635926 133.562527,22.4079139 C131.117371,16.3522353 132.46894,9.38184761 136.986999,4.74703183 C141.505059,0.112216041 148.299855,-1.27428027 154.202984,1.23406396 C160.106114,3.74240819 163.955056,9.6516175 163.955056,16.2062368 C163.945177,25.1522316 156.878169,32.4018657 148.157534,32.412 Z M148.157534,0.772176701 C139.848267,0.772176701 133.112275,7.6822408 133.112275,16.2062368 C133.112275,24.7302329 139.848267,31.640297 148.157534,31.640297 C156.466801,31.640297 163.202793,24.7302329 163.202793,16.2062368 C163.193422,7.686226 156.462917,0.781790154 148.157534,0.772176701 L148.157534,0.772176701 Z" id="Shape" fill="#3F3D56" fill-rule="nonzero"></path>
                    <path d="M221.595506,57.816 C212.870648,57.816 205.797753,50.5603267 205.797753,41.61 C205.797753,32.6596733 212.870648,25.404 221.595506,25.404 C230.320364,25.404 237.393258,32.6596733 237.393258,41.61 C237.383379,50.5561255 230.316268,57.8058655 221.595506,57.816 L221.595506,57.816 Z M221.595506,26.1757143 C213.286117,26.1757143 206.550027,33.0858794 206.550027,41.61 C206.550027,50.1341206 213.286117,57.0442857 221.595506,57.0442857 C229.904894,57.0442857 236.640984,50.1341206 236.640984,41.61 C236.631613,33.0898646 229.901009,26.1853279 221.595506,26.1757143 L221.595506,26.1757143 Z" id="Shape" fill="#3F3D56" fill-rule="nonzero"></path>
                    <path d="M288.202247,97.236 C279.477389,97.236 272.404494,89.9803267 272.404494,81.03 C272.404494,72.0796733 279.477389,64.824 288.202247,64.824 C296.927105,64.824 304,72.0796733 304,81.03 C303.990121,89.9761255 296.92301,97.2258655 288.202247,97.236 Z M288.202247,65.5957143 C279.892859,65.5957143 273.156768,72.5058794 273.156768,81.03 C273.156768,89.5541206 279.892859,96.4642857 288.202247,96.4642857 C296.511636,96.4642857 303.247726,89.5541206 303.247726,81.03 C303.238355,72.5098646 296.507751,65.6053279 288.202247,65.5957143 L288.202247,65.5957143 Z" id="Shape" fill="#3F3D56" fill-rule="nonzero"></path>
                    <path d="M88.6382022,36.8558007 L90.5168539,36.4712577 C90.5168539,36.4712577 88.9387865,38.2786096 88.6382022,38.3939725 L88.6382022,38.3939725 C88.6101577,38.7779798 88.6101577,39.1635939 88.6382022,39.5476013 C85.031191,55.3907709 71.7303371,48.3920892 71.7303371,48.3920892 C76.5772584,48.5074521 76.9905618,46.4693744 76.9905618,46.4693744 C74.1725843,46.0463772 73.6089888,44.1621167 73.6089888,44.1621167 C74.1324978,44.4447575 74.7799497,44.2790981 75.1119101,43.7775738 C72.0684944,42.9700336 72.4817978,39.9321443 72.4817978,39.9321443 C73.0242552,40.3329825 73.6581879,40.5845586 74.3228764,40.6627759 C73.9847191,40.2397786 71.1291685,36.7404378 72.8575281,34.9330859 C72.8575281,34.9330859 74.961618,38.7785154 80.4848539,39.1246041 L80.8605843,39.0476955 C80.7966997,38.7707319 80.7714006,38.4859146 80.7854382,38.201701 C80.7854382,35.9717403 82.5517503,34.164 84.7306067,34.164 C87.3607191,34.164 87.9243146,35.7021718 87.9243146,35.7021718 L89.8029663,34.548543 C89.7653933,34.548543 89.5775281,36.4712577 88.6382022,36.8558007 Z" id="Path" fill="#3F3D56" fill-rule="nonzero"></path>
                    <polygon id="Path" fill="#FFB8B8" fill-rule="nonzero" points="209.213483 208.165804 213.272065 210.24 222.876404 194.905323 216.88678 191.844"></polygon>
                    <path d="M208.360015,206.736 L216.304006,210.851891 L216.304329,210.852058 C217.647002,211.547733 218.673212,212.778693 219.157192,214.274126 C219.641172,215.769559 219.543274,217.40696 218.885037,218.826098 L218.804389,219 L205.797753,212.261023 L208.360015,206.736 Z" id="Path" fill="#2F2E41" fill-rule="nonzero"></path>
                    <polygon id="Path" fill="#FFB8B8" fill-rule="nonzero" points="250.203002 215.496 254.831813 215.495611 257.033708 197.1 250.202247 197.1"></polygon>
                    <path d="M249.348315,212.868386 L258.214516,212.868 L258.214883,212.868 C259.713431,212.868 261.150615,213.4936 262.210255,214.607283 C263.269896,215.720966 263.865169,217.231458 263.865169,218.806453 L263.865169,218.999433 L249.348586,219 L249.348315,212.868386 Z" id="Path" fill="#2F2E41" fill-rule="nonzero"></path>
                    <ellipse id="Oval" fill="#FFB8B8" fill-rule="nonzero" cx="239.955056" cy="80.592" rx="9.39325843" ry="9.636"></ellipse>
                    <path d="M249.490823,210.24 C248.58917,210.238882 247.847985,209.503436 247.808627,208.570829 L244.252173,159.562306 C244.243713,159.298259 244.064507,159.073246 243.815752,159.014333 C243.566998,158.95542 243.311125,159.077392 243.192626,159.311371 L220.441779,204.278975 C220.012407,205.117631 219.016577,205.45054 218.194553,205.030229 L211.852365,201.746995 C211.024266,201.316158 210.686143,200.274961 211.094634,199.413681 L224.670182,170.933646 L233.66192,149.600126 C237.132587,142.522355 240.818091,138.874943 244.928966,138.449412 C249.146388,138.013475 253.650263,141.015662 258.700418,147.628523 L258.741573,147.682496 L258.740749,147.751241 L257.991521,207.617888 C257.994043,208.51926 257.330235,209.272884 256.463066,209.35315 L249.655814,210.231861 C249.600481,210.237364 249.545484,210.24 249.490823,210.24 Z" id="Path" fill="#2F2E41" fill-rule="nonzero"></path>
                    <path d="M230.829674,152.664821 C231.851813,152.020771 232.542104,150.947452 232.714804,149.733673 C232.887503,148.519894 232.52487,147.290338 231.724483,146.375857 L233.123596,108.624 L226.323591,109.489428 L225.750218,146.216517 C224.30321,147.724573 224.1894,150.099529 225.485304,151.744664 C226.781208,153.389798 229.07721,153.785109 230.829671,152.664821 L230.829674,152.664821 Z" id="Path" fill="#FFB8B8" fill-rule="nonzero"></path>
                    <path d="M234.508178,114.744365 L225.349353,113.706057 C224.822043,113.646269 224.346933,113.360465 224.047828,112.92312 C223.748723,112.485775 223.655248,111.940208 223.791762,111.428581 L226.156308,102.569273 C226.487701,99.8018278 229.001273,97.8237008 231.776243,98.1465062 C234.551212,98.4693116 236.541132,100.971319 236.225376,103.740583 L236.538278,112.873595 C236.556243,113.402733 236.342449,113.913468 235.952608,114.27271 C235.562766,114.631953 235.03549,114.80412 234.508178,114.74435 L234.508178,114.744365 Z" id="Path" fill="#00B0FF" fill-rule="nonzero"></path>
                    <path d="M273.933871,91.5878982 C273.887278,91.7951823 273.856905,92.0058618 273.843036,92.2179782 L257.536976,101.738347 L253.573552,99.4291527 L249.348315,105.027304 L255.972226,109.805372 C257.071426,110.598263 258.555824,110.561662 259.615569,109.715539 L276.429925,96.2905849 C277.983619,96.872646 279.731085,96.4209867 280.818749,95.1562261 C281.906413,93.8914655 282.107313,92.0775203 281.323318,90.6004366 C280.539322,89.1233529 278.934026,88.2913527 277.291558,88.5108378 C275.64909,88.7303228 274.312183,89.9554933 273.933868,91.5878982 L273.933871,91.5878982 Z" id="Path" fill="#FFB8B8" fill-rule="nonzero"></path>
                    <path d="M257.52689,102.602804 L252.183338,109.686659 C251.875683,110.094503 251.409708,110.345172 250.90684,110.373345 C250.403972,110.401518 249.914019,110.204405 249.564656,109.833371 L243.515399,103.408058 C241.423739,101.739772 241.047134,98.6544166 242.673566,96.511301 C244.299999,94.3681854 247.315557,93.9762494 249.414303,95.6351987 L257.001411,99.9746364 C257.440906,100.226185 257.751589,100.66095 257.852503,101.16564 C257.953416,101.67033 257.834564,102.194954 257.526917,102.602804 L257.52689,102.602804 Z" id="Path" fill="#00B0FF" fill-rule="nonzero"></path>
                    <path d="M261.27278,150.568136 L251.115923,100.376388 C250.112626,95.4185108 245.424186,92.1533316 240.503213,92.9853572 L237.115861,93.5581262 C234.739348,93.9599214 232.617511,95.3030682 231.217163,97.2920695 L231.217163,97.2920695 C228.985643,100.461379 228.288859,104.48543 229.322067,108.236579 L234.928454,128.592987 L230.76781,150.401829 C230.67351,150.892588 230.819166,151.399301 231.158708,151.761703 C231.498251,152.124105 231.989685,152.297373 232.477579,152.226706 C234.5606,151.924347 237.994099,151.492772 241.937604,151.257616 L244.074025,142.897135 L244.94296,151.124862 C249.787217,150.987298 255.045843,151.228118 259.383999,152.371491 C259.894242,152.509844 260.438722,152.370589 260.823336,152.00337 C261.207951,151.636152 261.377969,151.093224 261.27278,150.568136 Z" id="Path" fill="#00B0FF" fill-rule="nonzero"></path>
                    <path d="M244.021186,78.2873662 C246.385122,79.9570165 249.489026,81.6733187 251.903421,79.8952776 C253.488757,78.7277849 253.988247,76.5658585 253.34536,74.6686254 C252.189271,71.2568465 249.012933,69.7548256 245.975554,68.6034941 C242.026964,67.1067597 237.727527,65.9160454 233.65125,66.987931 C229.574972,68.0598166 225.972466,72.1326718 226.708315,76.4067851 C227.300064,79.8439381 230.441804,82.7039162 229.995808,86.1644222 C229.546939,89.6471451 225.751617,91.4803555 222.400951,92.1028026 C219.050285,92.7252497 215.300809,92.925244 212.892821,95.4089383 C209.820987,98.5773402 210.588075,104.240516 213.478544,107.585721 C216.369014,110.930927 220.73089,112.447277 224.957548,113.478111 C230.55761,114.843901 236.614517,115.561681 241.933159,113.295016 C247.2518,111.02835 251.390705,104.926754 249.849979,99.2052324 C249.19918,96.7884708 247.66609,94.7459798 246.184442,92.7575451 C244.702793,90.7691104 243.202481,88.6897987 242.637298,86.250202 C242.166316,84.217206 242.514913,81.8568001 243.821312,80.3318203 C244.308793,79.7842126 244.398686,78.9747605 244.043894,78.3275374 L244.021186,78.2873662 Z" id="Path" fill="#2F2E41" fill-rule="nonzero"></path>
                    <path d="M152.497987,8.61385486 C154.657028,8.62047058 156.405674,10.4143053 156.412121,12.6291385 L156.412121,20.6588615 C156.405674,22.8736941 154.657028,24.6675277 152.497987,24.6741413 L144.670552,24.6741413 C142.511511,24.6675277 140.762863,22.8736947 140.756414,20.6588615 L140.756414,12.6291385 C140.762861,10.4143038 142.51151,8.62046849 144.670552,8.61385486 L152.497987,8.61385486 M152.497987,7.008 L144.670552,7.008 C141.647939,7.01703107 139.199815,9.52841792 139.191011,12.6291385 L139.191011,20.6588615 C139.199815,23.7595821 141.647939,26.2709689 144.670552,26.28 L152.497987,26.28 C155.5206,26.2709689 157.968725,23.7595821 157.977528,20.6588615 L157.977528,12.6291385 C157.968725,9.52841792 155.5206,7.01703107 152.497987,7.008 L152.497987,7.008 Z" id="Shape" fill="#3F3D56" fill-rule="nonzero"></path>
                    <path d="M154.132078,12.264 C153.425196,12.2624389 152.853173,11.6737384 152.853933,10.948588 C152.854693,10.2234375 153.427948,9.636 154.134831,9.636 C154.841715,9.636 155.41497,10.2234375 155.41573,10.948588 C155.416489,11.6737384 154.844467,12.2624389 154.137585,12.264 C154.135748,12.264 154.133912,12.264 154.132078,12.264 Z" id="Path" fill="#3F3D56" fill-rule="nonzero"></path>
                    <path d="M149.011319,12.9938333 C150.740622,12.9938333 152.142499,14.4319378 152.142499,16.2059296 C152.142499,17.9799214 150.740622,19.4180259 149.011319,19.4180259 C147.282016,19.4180259 145.880139,17.9799214 145.880139,16.2059296 C145.880139,14.4319378 147.282016,12.9938333 149.011319,12.9938333 M149.011319,11.388 C147.111737,11.388 145.399196,12.5618404 144.672253,14.3621763 C143.94531,16.1625123 144.347123,18.2347919 145.690328,19.6127135 C147.033533,20.9906352 149.053608,21.4028405 150.808595,20.6571187 C152.563581,19.9113968 153.707865,18.154605 153.707865,16.2059334 C153.707865,13.5450712 151.605152,11.388 149.011319,11.388 L149.011319,11.388 Z" id="Shape" fill="#3F3D56" fill-rule="nonzero"></path>
                    <polygon id="Path" fill="#FFB8B8" fill-rule="nonzero" points="61.6872846 213.744 57.2134831 212.663966 59.1498935 194.472 65.752809 196.065933"></polygon>
                    <path d="M61.7876309,218.124 L46.9662921,214.785931 L47.0104514,214.606718 C47.3708411,213.144077 48.3242855,211.878208 49.6610278,211.0876 C50.9977701,210.296993 52.6083054,210.046413 54.1383172,210.390989 L54.1386832,210.391073 L63.1910112,212.429872 L61.7876309,218.124 Z" id="Path" fill="#2F2E41" fill-rule="nonzero"></path>
                    <polygon id="Path" fill="#FFB8B8" fill-rule="nonzero" points="78.5610426 213.744 73.9322316 213.744 71.7303371 195.348 78.5617978 195.348389"></polygon>
                    <path d="M79.4154549,219 L64.8988764,218.999436 L64.8988764,218.806457 C64.8988764,217.231459 65.4941528,215.720964 66.553794,214.607281 C67.6134352,213.493597 69.050619,212.868 70.5491664,212.868 L70.5495336,212.868 L79.4157303,212.868386 L79.4154549,219 Z" id="Path" fill="#2F2E41" fill-rule="nonzero"></path>
                    <path d="M103.574864,141.663163 C104.208996,140.623251 104.35272,139.354167 103.967361,138.197394 C103.582003,137.040621 102.707148,136.114985 101.578201,135.669555 L87.8870294,100.74 L80.2696629,105.392127 L96.122879,138.263898 C95.4909337,140.265502 96.4469254,142.426293 98.3481253,143.293535 C100.249325,144.160777 102.494793,143.460348 103.574864,141.663159 L103.574864,141.663163 Z" id="Path" fill="#FFB8B8" fill-rule="nonzero"></path>
                    <path d="M91.0281074,106.133576 L82.346519,109.38469 C81.8466806,109.571862 81.2910651,109.529662 80.8244544,109.269087 C80.3578438,109.008512 80.0264554,108.555371 79.9166422,108.027745 L78.0157269,98.8910735 C77.0568566,96.2235104 78.4124071,93.2739875 81.0465145,92.2964267 C83.6806218,91.3188659 86.5999576,92.6819078 87.5736679,95.3439635 L91.998982,103.503087 C92.2552254,103.975878 92.295357,104.538091 92.1089192,105.043223 C91.9224814,105.548355 91.5279408,105.946373 91.0281074,106.133561 L91.0281074,106.133576 Z" id="Path" fill="#00B0FF" fill-rule="nonzero"></path>
                    <path d="M78.7076885,207.612 C78.6849977,207.612 78.6622121,207.612 78.6393317,207.610867 L72.0462987,207.341969 C71.1191999,207.30949 70.3893768,206.524405 70.4074421,205.57902 L70.9132796,168.45289 C70.9176697,168.142672 70.6818205,167.883847 70.3779856,167.865448 C70.0741508,167.847049 69.8098968,168.075591 69.7782231,168.384156 L65.9535451,205.551074 C65.8718074,206.328639 65.2927112,206.955916 64.5362515,207.086286 L64.5133736,207.090065 L58.323918,206.594187 C57.8301946,206.670895 57.3282778,206.523377 56.9504153,206.190502 C56.5725529,205.857627 56.3566449,205.372783 56.3595506,204.863719 L56.7296259,141.912 L87.1011236,143.871331 L80.404715,206.061679 C80.3072216,206.942676 79.577468,207.609344 78.7076885,207.612 Z" id="Path" fill="#2F2E41" fill-rule="nonzero"></path>
                    <ellipse id="Oval" fill="#FFB8B8" fill-rule="nonzero" cx="72.5842697" cy="77.088" rx="9.39325843" ry="9.636"></ellipse>
                    <path d="M85.2065056,146.292 C85.1638296,146.292 85.1209671,146.290495 85.0779178,146.287493 L57.0841829,144.205757 C56.1804269,144.138824 55.4866713,143.364036 55.5060127,142.443253 L56.2441058,106.714648 C56.1093556,100.741726 59.236486,95.1830863 64.369418,92.271475 C69.5023501,89.3598637 75.79883,89.5730422 80.729742,92.8253829 C85.660654,96.0777235 88.4168933,101.835555 87.8913575,107.786122 C87.4018508,113.292596 87.0124816,137.348397 86.9047689,144.589959 C86.890476,145.533255 86.1347108,146.290701 85.2065056,146.292 L85.2065056,146.292 Z" id="Path" fill="#00B0FF" fill-rule="nonzero"></path>
                    <path d="M35.189728,88.083901 C35.2363215,88.291185 35.266694,88.5018645 35.280563,88.7139808 L51.5866267,98.2343466 L55.550044,95.9251565 L59.7752809,101.52331 L53.1513692,106.301372 C52.0521691,107.094263 50.5677715,107.057662 49.5080268,106.211539 L32.6936703,92.7865821 C31.1399764,93.368643 29.3925109,92.9169839 28.3048468,91.6522237 C27.2171827,90.3874636 27.0162822,88.5735191 27.8002779,87.0964359 C28.5842736,85.6193527 30.1895696,84.7873528 31.8320374,85.0068378 C33.4745052,85.2263227 34.8114122,86.4514928 35.189728,88.0838971 L35.189728,88.083901 Z" id="Path" fill="#FFB8B8" fill-rule="nonzero"></path>
                    <path d="M52.1251934,97.6598606 C52.2259236,97.1550261 52.5367233,96.7201452 52.9764415,96.4687669 L60.5651703,92.1285475 C62.6644913,90.4724315 65.67806,90.8655755 67.3037516,93.0076489 C68.9294432,95.1497224 68.5544818,98.2333083 66.4653078,99.9027944 L60.4147585,106.329274 C60.0653202,106.700376 59.5752627,106.897523 59.072287,106.869344 C58.5693114,106.841165 58.1032376,106.59045 57.7955172,106.182532 L52.4508239,99.0973945 C52.1428515,98.6895541 52.0239561,98.1646764 52.1251934,97.6598606 L52.1251934,97.6598606 Z" id="Path" fill="#00B0FF" fill-rule="nonzero"></path>
                    <path d="M78.0558314,84.972 C75.2130997,84.9497131 72.5801164,83.389608 71.0823448,80.8400434 C71.0023138,80.7077497 70.5649464,80.0298965 70.058481,79.2452737 C68.6352765,77.0401425 68.301604,76.5155472 68.2733151,76.4385376 C67.8881633,75.3901082 66.665741,74.9852241 65.7080966,74.8300571 C65.5294283,74.8010819 65.3482294,74.7755382 65.1663978,74.7496159 C63.8176264,74.5589892 62.4229771,74.3618858 61.6583416,72.7976334 C61.0974037,71.6496998 60.1801244,66.9752326 60.8845934,65.8330183 C61.7677417,64.4002944 63.4636308,64.8654167 65.1037116,65.3156688 C66.1531412,65.6031255 67.238067,65.9008731 68.1026829,65.7110194 C71.8502917,64.88829 76.0979577,63.9557616 79.8491775,66.3663819 C82.8347813,68.2844351 84.6305879,71.9070414 84.5357465,75.820536 C84.4339458,80.0230177 82.6969332,83.3402441 79.8891949,84.694432 L79.3046816,84.8740144 L78.9758892,84.916712 C78.6704395,84.9534682 78.363261,84.972 78.0558314,84.972 L78.0558314,84.972 Z" id="Path" fill="#2F2E41" fill-rule="nonzero"></path>
                    <path d="M288.631933,70.08 C283.781347,70.0804264 279.59517,73.5675501 278.600749,78.4360676 C277.606329,83.3045851 280.075967,88.221351 284.518653,90.2179347 C284.475599,89.4095065 284.535586,88.5987728 284.697095,87.8062615 C284.893837,86.9523242 286.014809,82.0773659 286.014809,82.0773659 C285.790917,81.5540862 285.678601,80.987801 285.685379,80.4164097 C285.685379,78.8586968 286.563856,77.6950677 287.66195,77.6950677 C288.595331,77.6950677 289.043722,78.4129398 289.043722,79.2715708 C289.043722,80.2334223 288.444342,81.6691665 288.137793,83.0016865 C288.013927,83.5023115 288.129527,84.0335074 288.449198,84.4326276 C288.768869,84.8317478 289.254532,85.0512496 289.757483,85.0239237 C291.697453,85.0239237 293.006017,82.4667865 293.006017,79.4357871 C293.006017,77.1320357 291.49156,75.4100799 288.741747,75.4100799 C285.635052,75.4100799 283.695083,77.7889082 283.695083,80.4445607 C283.66457,81.1934123 283.905832,81.9272801 284.372241,82.5043365 C284.540131,82.6464442 284.599304,82.8834782 284.518653,83.0908333 C284.468324,83.2832044 284.358514,83.7477096 284.308184,83.9353869 C284.290415,84.0505265 284.219536,84.1497875 284.117861,84.2019202 C284.016186,84.254053 283.896223,84.2526442 283.795739,84.1981375 C282.363641,83.597567 281.695633,81.9929128 281.695633,80.1818102 C281.695633,77.1977177 284.152621,73.6177446 289.020844,73.6177446 C292.932809,73.6177446 295.508761,76.522074 295.508761,79.6375418 C295.508761,83.7617871 293.27139,86.8397163 289.977103,86.8397163 C288.869858,86.8397163 287.831245,86.2250685 287.474363,85.5306574 C287.474363,85.5306574 286.879559,87.9517142 286.751448,88.4209094 C286.514802,89.2181358 286.168135,89.976537 285.721984,90.6730562 C289.57192,91.8391472 293.731305,90.5933594 296.363997,87.4856406 C298.996689,84.3779218 299.618107,79.9802884 297.953928,76.2340568 C296.289749,72.4878251 292.646287,70.0825384 288.631933,70.08 L288.631933,70.08 Z" id="Path" fill="#3F3D56" fill-rule="nonzero"></path>
                    <path d="M230.443915,35.012849 L216.919769,30.7445551 C216.573843,30.6162272 216.192332,30.6345646 215.859619,30.7955115 C215.526905,30.9564584 215.270407,31.2467514 215.146855,31.6021843 L210.97683,45.5065514 C210.763308,46.2894325 211.183776,47.1069395 211.934255,47.3680554 L225.454411,51.6350922 C226.203714,51.8389992 226.973566,51.3869477 227.181634,50.6208781 L231.35166,36.716511 C231.462764,36.3670717 231.428324,35.9860823 231.256478,35.6635593 C231.084631,35.3410363 230.790622,35.1055898 230.443915,35.012849 L230.443915,35.012849 Z M216.402584,45.7493829 L214.081102,45.0167098 L216.301768,37.6122035 L218.623254,38.3448766 L216.402584,45.7493829 Z M217.880432,36.8780853 L217.86379,36.8728334 C217.169768,36.6486599 216.78328,35.890816 216.999519,35.1781264 C217.215757,34.4654368 217.953236,34.0664676 218.648684,34.2859427 C219.344132,34.5054178 219.735482,35.2606315 219.523828,35.974768 C219.312174,36.6889045 218.577276,37.0928525 217.880432,36.8780853 L217.880432,36.8780853 Z M224.886945,48.4271082 L222.56546,47.6944351 L223.779678,43.6457955 C224.07059,42.6758444 223.931486,41.9065061 223.091587,41.6414296 C222.551897,41.4758911 221.969119,41.6776305 221.63755,42.1447711 C221.519307,42.3134163 221.432611,42.5031139 221.381868,42.7042225 L220.117015,46.9216896 L217.795533,46.1890165 L220.0162,38.7845102 L222.337686,39.5171833 L222.028647,40.547619 C222.688364,39.9195186 223.629842,39.7112607 224.483257,40.0046516 C226.007159,40.4855835 226.850911,41.879863 226.184654,44.1014001 L224.886945,48.4271082 Z" id="Shape" fill="#3F3D56" fill-rule="nonzero"></path>
                    <path d="M26.4719101,92.918658 C26.4709116,87.2925956 22.2028173,82.652029 16.759467,82.3586196 C11.3161166,82.0652102 6.60293044,86.2216646 6.03417611,91.817016 C5.46542178,97.4123673 9.24018917,102.487988 14.6240083,103.36706 L14.6240083,95.9768302 L12.0215866,95.9768302 L12.0215866,92.918658 L14.6240083,92.918658 L14.6240083,90.5880795 C14.6240083,87.9378433 16.1541739,86.4727404 18.494474,86.4727404 C19.2630395,86.4837904 20.0297896,86.5529096 20.7885748,86.6795435 L20.7885748,89.2825609 L19.4958246,89.2825609 C18.2236604,89.2825609 17.8256803,90.0975046 17.8256803,90.9351064 L17.8256803,92.9191164 L20.6673499,92.9191164 L20.2135605,95.9772886 L17.8256803,95.9772886 L17.8256803,103.368 C22.8054598,102.553931 26.4719101,98.1226372 26.4719101,92.9186426 L26.4719101,92.918658 Z" id="Path" fill="#3F3D56"></path>
                    <path d="M304,218.562 C304,218.803593 303.831289,218.999259 303.623762,219 L0.376237624,219 C0.168447322,219 0,218.803901 0,218.562 C0,218.320099 0.168447322,218.124 0.376237624,218.124 L303.623762,218.124 C303.831289,218.124741 304,218.320407 304,218.562 Z" id="Path" fill="#3F3D56" fill-rule="nonzero"></path>
                </g>
            </g>
        </g>
    </g>
</svg>