<?xml version="1.0" encoding="UTF-8"?>
<svg width="320px" height="459px" viewBox="0 0 320 459" version="1.1" xmlns="http://www.w3.org/2000/svg" xmlns:xlink="http://www.w3.org/1999/xlink">
    <title>Artboard</title>
    <defs>
        <filter id="filter-1">
            <feColorMatrix in="SourceGraphic" type="matrix" values="0 0 0 0 0.755861 0 0 0 0 0.830438 0 0 0 0 0.979591 0 0 0 1.000000 0"></feColorMatrix>
        </filter>
        <rect id="path-2" x="0" y="0" width="1026" height="459"></rect>
    </defs>
    <g id="Artboard" stroke="none" stroke-width="1" fill="none" fill-rule="evenodd">
        <g id="Group-13-Copy" transform="translate(-361.000000, -0.000000)">
            <g filter="url(#filter-1)" id="Group-7">
                <g transform="translate(0.000000, -0.000000)" id="Rectangle-Copy-14">
                    <mask id="mask-3" fill="white">
                        <use xlink:href="#path-2"></use>
                    </mask>
                    <use id="Mask" fill="#FFFFFF" xlink:href="#path-2"></use>
                </g>
            </g>
            <g id="undraw_Social_media_re_w12q-Copy" transform="translate(419.000000, 155.000000)">
                <path d="M118.963844,143.758024 C117.432403,144.867662 115.772159,145.783345 114.020262,146.484582 C113.561397,146.670133 113.099916,146.842798 112.630717,147 L88.6830298,147 C88.5861781,146.829912 88.4918147,146.657247 88.394963,146.484582 C86.4521876,142.969435 84.6904189,139.317701 84.1907205,135.346409 C83.5915571,130.578797 85.271784,125.179798 89.4249849,122.837225 C89.9689954,122.530634 90.5453906,122.286856 91.1433045,122.110486 C91.3906653,122.033173 91.6430131,121.971323 91.8979665,121.917205 C95.0678141,121.206081 98.3705202,122.280299 100.535271,124.726522 C102.700021,127.172745 103.389481,130.609775 102.338359,133.715112 C105.85928,130.065956 105.201485,124.148963 103.987838,119.203531 C102.771711,114.2581 101.298129,108.75344 103.773716,104.310541 C105.14795,101.839114 107.567392,100.305746 110.280126,99.6872453 C110.364281,99.6692211 110.448436,99.6511789 110.52998,99.6357035 C113.764219,98.9735324 117.126547,99.5689632 119.945455,101.303079 C125.13627,104.606906 127.800459,110.87696 128.664784,117.015584 C130.059415,126.896138 126.974459,137.92092 118.963844,143.758024 Z" id="Path" fill="#212429" fill-rule="nonzero"></path>
                <path d="M93.6296543,124.890463 C95.4392815,128.856565 96.016489,133.346674 95.2756664,137.694823 C94.716723,140.883003 93.4848155,143.889301 91.6755324,146.480448 C91.5528583,146.657096 91.4277151,146.831146 91.3001173,147 L90.4073034,147 C90.5445513,146.831146 90.6792122,146.657096 90.806822,146.480448 C94.1306174,142.010776 95.5264803,136.220835 94.6427792,130.569167 C94.1243965,127.42586 92.9254884,124.459193 91.1437185,121.910832 C91.3772026,121.832899 91.6153938,121.770553 91.8560445,121.716 C92.5337148,122.714976 93.1272814,123.77736 93.6296543,124.890463 Z" id="Path" fill="#FFFFFF" fill-rule="nonzero"></path>
                <path d="M116.717425,127.815319 C116.513228,130.006399 115.996508,132.155449 115.183566,134.194666 C114.434136,135.999257 113.424084,137.679599 112.186893,139.179988 C109.660972,142.276381 106.318375,144.605802 102.688359,146.155294 C102.423793,146.269303 102.156701,146.37813 101.887085,146.481775 C101.418941,146.668336 100.945826,146.83935 100.470106,147 L97.8932584,147 C98.5012637,146.844533 99.106654,146.670927 99.704479,146.481775 C101.125861,146.031245 102.512623,145.474366 103.853442,144.815683 C107.26159,143.170218 110.221006,140.697601 112.471827,137.614949 C114.885836,134.220577 115.9518,130.139557 116.134886,125.991168 C116.328278,121.552573 115.761015,117.033652 114.766346,112.714249 C113.751327,108.286957 112.207623,104.003011 110.169734,99.9581462 C110.074998,99.7679827 110.143214,99.5355558 110.32487,99.4295569 C110.39825,99.3800662 110.487613,99.3614897 110.574163,99.3777345 C110.659996,99.4001911 110.731126,99.461223 110.767434,99.5435664 C111.019329,100.043666 111.266135,100.54374 111.502627,101.049009 C113.478018,105.261555 114.93317,109.707269 115.8348,114.28447 C116.707242,118.699745 117.175262,123.319719 116.717425,127.815319 Z" id="Path" fill="#FFFFFF" fill-rule="nonzero"></path>
                <path d="M10.6530899,73.5 C4.7695508,73.5 0,68.6297535 0,62.622 C0,56.6142465 4.7695508,51.744 10.6530899,51.744 C16.536629,51.744 21.3061798,56.6142465 21.3061798,62.622 C21.2995178,68.6269335 16.5338673,73.4931974 10.6530899,73.5 L10.6530899,73.5 Z M10.6530899,52.262 C5.04971933,52.262 0.507289995,56.90033 0.507289995,62.622 C0.507289995,68.34367 5.04971933,72.982 10.6530899,72.982 C16.2564604,72.982 20.7988898,68.34367 20.7988898,62.622 C20.7925605,56.9030092 16.2538367,52.2684629 10.6530899,52.262 Z" id="Shape" fill="#3F3D56" fill-rule="nonzero"></path>
                <path d="M53.8414478,38.22 C49.5327381,38.22 45.6482918,35.5696991 43.99942,31.5049285 C42.3505482,27.4401579 43.261968,22.7614046 46.3086858,19.6503638 C49.3554037,16.5393231 53.9374206,15.6086612 57.9181492,17.2923443 C61.8988779,18.9760274 64.494382,22.942483 64.494382,27.342159 C64.4877202,33.3470047 59.7221393,38.2131975 53.8414478,38.22 Z M53.8414478,16.9823104 C48.2381592,16.9823104 43.6957962,21.6205726 43.6957962,27.342159 C43.6957962,33.0637454 48.2381592,37.7020076 53.8414478,37.7020076 C59.4447365,37.7020076 63.9870994,33.0637454 63.9870994,27.342159 C63.9807702,21.6232517 59.4421128,16.9887732 53.8414478,16.9823104 L53.8414478,16.9823104 Z" id="Shape" fill="#3F3D56" fill-rule="nonzero"></path>
                <path d="M99.9088636,21.756 C95.6001539,21.756 91.7157075,19.1056991 90.0668357,15.0409285 C88.4179639,10.9761579 89.3293837,6.29740456 92.3761015,3.18636383 C95.4228194,0.0753230962 100.004836,-0.855338809 103.985565,0.828344303 C107.966294,2.51202741 110.561798,6.47848298 110.561798,10.878159 C110.555136,16.8830047 105.789555,21.7491975 99.9088636,21.756 Z M99.9088636,0.518310389 C94.3055749,0.518310389 89.7632119,5.15657259 89.7632119,10.878159 C89.7632119,16.5997454 94.3055749,21.2380076 99.9088636,21.2380076 C105.512152,21.2380076 110.054515,16.5997454 110.054515,10.878159 C110.048196,5.15924759 105.509533,0.524763254 99.9088636,0.518310389 L99.9088636,0.518310389 Z" id="Shape" fill="#3F3D56" fill-rule="nonzero"></path>
                <path d="M149.43118,38.808 C143.547641,38.808 138.77809,33.9377535 138.77809,27.93 C138.77809,21.9222465 143.547641,17.052 149.43118,17.052 C155.314719,17.052 160.08427,21.9222465 160.08427,27.93 C160.077608,33.9349335 155.311957,38.8011974 149.43118,38.808 L149.43118,38.808 Z M149.43118,17.57 C143.827809,17.57 139.28538,22.20833 139.28538,27.93 C139.28538,33.65167 143.827809,38.29 149.43118,38.29 C155.03455,38.29 159.57698,33.65167 159.57698,27.93 C159.57066,22.211005 155.031931,17.576453 149.43118,17.57 L149.43118,17.57 Z" id="Shape" fill="#3F3D56" fill-rule="nonzero"></path>
                <path d="M194.34691,65.268 C188.463371,65.268 183.69382,60.3977535 183.69382,54.39 C183.69382,48.3822465 188.463371,43.512 194.34691,43.512 C200.230449,43.512 205,48.3822465 205,54.39 C204.993338,60.3949335 200.227688,65.2611974 194.34691,65.268 Z M194.34691,44.03 C188.74354,44.03 184.20111,48.66833 184.20111,54.39 C184.20111,60.11167 188.74354,64.75 194.34691,64.75 C199.950281,64.75 204.49271,60.11167 204.49271,54.39 C204.48639,48.671005 199.947661,44.036453 194.34691,44.03 L194.34691,44.03 Z" id="Shape" fill="#3F3D56" fill-rule="nonzero"></path>
                <path d="M59.7724719,24.7388251 L61.0393258,24.4807072 C61.0393258,24.4807072 59.9751685,25.6938612 59.7724719,25.7712966 L59.7724719,25.7712966 C59.7535603,26.029055 59.7535603,26.2878918 59.7724719,26.5456502 C57.3401124,37.1801065 48.3707865,32.4823612 48.3707865,32.4823612 C51.6392697,32.5597966 51.9179775,31.1917719 51.9179775,31.1917719 C50.0176966,30.9078422 49.6376404,29.6430647 49.6376404,29.6430647 C49.9906646,29.8327824 50.4272687,29.7215864 50.6511236,29.3849468 C48.5988202,28.8428993 48.8775281,26.8037681 48.8775281,26.8037681 C49.24333,27.0728239 49.6708175,27.24169 50.1190449,27.294192 C49.8910112,27.0102624 47.9653933,24.6613897 49.1308989,23.4482357 C49.1308989,23.4482357 50.5497753,26.0294145 54.2743258,26.2617205 L54.5276966,26.210097 C54.4846166,26.0241899 54.4675563,25.8330111 54.4770225,25.6422376 C54.4770225,24.1454147 55.6681211,22.932 57.1374157,22.932 C58.9110112,22.932 59.2910674,23.9644715 59.2910674,23.9644715 L60.5579213,23.1901179 C60.5325843,23.1901179 60.4058989,24.4807072 59.7724719,24.7388251 Z" id="Path" fill="#3F3D56" fill-rule="nonzero"></path>
                <polygon id="Path" fill="#FFB8B8" fill-rule="nonzero" points="141.081461 139.727731 143.818333 141.12 150.294944 130.826861 146.255888 128.772"></polygon>
                <path d="M140.505931,138.768 L145.862899,141.530722 L145.863117,141.530833 C146.768537,141.997793 147.460554,142.824054 147.786922,143.827838 C148.11329,144.831622 148.047274,145.930699 147.603397,146.883271 L147.549012,147 L138.77809,142.476577 L140.505931,138.768 Z" id="Path" fill="#2F2E41" fill-rule="nonzero"></path>
                <polygon id="Path" fill="#FFB8B8" fill-rule="nonzero" points="168.722419 144.648 171.843822 144.647739 173.328652 132.3 168.72191 132.3"></polygon>
                <path d="M168.146067,142.884259 L174.12492,142.884 L174.125168,142.884 C175.135702,142.884 176.104855,143.303923 176.819416,144.051464 C177.533976,144.799004 177.935393,145.812896 177.935393,146.870085 L177.935393,146.999619 L168.146251,147 L168.146067,142.884259 Z" id="Path" fill="#2F2E41" fill-rule="nonzero"></path>
                <ellipse id="Oval" fill="#FFB8B8" fill-rule="nonzero" cx="161.811798" cy="54.096" rx="6.33426966" ry="6.468"></ellipse>
                <path d="M168.242167,141.12 C167.634145,141.11925 167.134332,140.625594 167.107791,139.999598 L164.709525,107.103466 C164.70382,106.926229 164.582973,106.775193 164.415228,106.735648 C164.247482,106.696104 164.074936,106.777976 163.995028,106.93503 L148.653174,137.118764 C148.36363,137.681697 147.692099,137.905157 147.137774,137.623031 L142.86097,135.419216 C142.302548,135.130024 142.074537,134.431139 142.35,133.853019 L151.504563,114.736283 L157.568071,100.416523 C159.908488,95.6656905 162.393778,93.2174277 165.165914,92.9317972 C168.0099,92.6391819 171.047052,94.6543482 174.452584,99.0931184 L174.480337,99.1293465 L174.479781,99.1754906 L173.974545,139.359952 C173.976246,139.964983 173.528612,140.47084 172.943844,140.524717 L168.353427,141.114537 C168.316114,141.11823 168.279027,141.12 168.242167,141.12 Z" id="Path" fill="#2F2E41" fill-rule="nonzero"></path>
                <path d="M155.658169,102.473647 C156.34744,102.04134 156.812932,101.320892 156.929391,100.506164 C157.045849,99.6914354 156.801311,98.8661174 156.261576,98.2522873 L157.205056,72.912 L152.619527,73.4929036 L152.232877,98.1453332 C151.257099,99.1575898 151.180352,100.751739 152.054234,101.856007 C152.928117,102.960276 154.476408,103.225621 155.658166,102.473647 L155.658169,102.473647 Z" id="Path" fill="#FFB8B8" fill-rule="nonzero"></path>
                <path d="M158.138738,77.0201904 L151.962557,76.3232438 C151.606969,76.2831122 151.286583,76.0912713 151.084884,75.797711 C150.883185,75.5041506 150.820151,75.1379475 150.912208,74.7945269 L152.506721,68.8478682 C152.730193,66.990268 154.425201,65.6624841 156.296479,65.8791617 C158.167758,66.0958393 159.509645,67.7752688 159.296718,69.63409 L159.50772,75.7644677 C159.519835,76.119643 159.375665,76.4624647 159.112778,76.7036 C158.849892,76.9447353 158.494327,77.0603 158.138738,77.0201802 L158.138738,77.0201904 Z" id="Path" fill="#00B0FF" fill-rule="nonzero"></path>
                <path d="M184.725143,61.4768084 C184.693723,61.6159443 184.673242,61.7573593 184.66389,61.8997388 L173.668027,68.2901236 L170.995323,66.7401162 L168.146067,70.4977795 L172.61285,73.7049755 C173.354087,74.2371902 174.355079,74.2126227 175.069709,73.6446766 L186.408338,64.6334063 C187.456059,65.0241048 188.634449,64.7209363 189.367906,63.8719874 C190.101364,63.0230385 190.23684,61.8054589 189.708158,60.8139917 C189.179477,59.8225246 188.096958,59.2640587 186.989373,59.4113843 C185.881788,59.5587098 184.980255,60.3810846 184.725141,61.4768084 L184.725143,61.4768084 Z" id="Path" fill="#FFB8B8" fill-rule="nonzero"></path>
                <path d="M173.661225,68.8703753 L170.057843,73.6252914 C169.850378,73.8990498 169.536152,74.0673069 169.197047,74.0862178 C168.857941,74.1051286 168.527546,73.97282 168.291956,73.7237695 L164.212687,69.4108883 C162.802192,68.2910799 162.548232,66.2200879 163.645004,64.7815582 C164.741776,63.3430286 166.775293,63.0799483 168.190566,64.1934895 L173.306873,67.1062628 C173.603242,67.2751103 173.812749,67.5669392 173.8808,67.9057035 C173.94885,68.2444678 173.868702,68.5966128 173.661243,68.8703753 L173.661225,68.8703753 Z" id="Path" fill="#00B0FF" fill-rule="nonzero"></path>
                <path d="M176.187237,101.066283 L169.33804,67.3759316 C168.661475,64.0480415 165.499862,61.8563459 162.181443,62.4148288 L159.897209,62.7992902 C158.294626,63.0689883 156.863782,63.9705526 155.919468,65.3056357 L155.919468,65.3056357 C154.414661,67.4329806 153.94479,70.1340558 154.641526,72.6519505 L158.422148,86.3158403 L155.616451,100.954653 C155.552861,101.284066 155.651082,101.624188 155.88005,101.867444 C156.109018,102.110701 156.440413,102.227004 156.76942,102.17957 C158.174089,101.976617 160.489442,101.686929 163.148713,101.529084 L164.589392,95.9172549 L165.175352,101.439976 C168.442038,101.347639 171.988151,101.509285 174.913552,102.276754 C175.25763,102.369621 175.624796,102.276149 175.884158,102.02966 C176.143519,101.78317 176.25817,101.418739 176.187237,101.066283 Z" id="Path" fill="#00B0FF" fill-rule="nonzero"></path>
                <path d="M164.553761,52.549054 C166.147862,53.6697782 168.240955,54.8218167 169.869083,53.628337 C170.938142,52.8446776 171.274969,51.3935214 170.841444,50.1200362 C170.061844,47.8299381 167.919905,46.8217322 165.871673,46.0489207 C163.208972,45.0442634 160.309681,44.2450168 157.560876,44.9645016 C154.81207,45.6839865 152.382748,48.4178208 152.878963,51.2867462 C153.278004,53.5938762 155.396612,55.5135876 155.095857,57.836393 C154.793166,60.1741111 152.233821,61.4046222 149.974325,61.8224291 C147.71483,62.2402361 145.186401,62.3744789 143.562593,64.0416161 C141.491126,66.1683516 142.008406,69.9696613 143.957571,72.2150732 C145.906736,74.4604851 148.848133,75.4783094 151.698347,76.1702386 C155.474704,77.0870021 159.559131,77.5687995 163.145715,76.0473392 C166.7323,74.5258789 169.523337,70.4302868 168.484361,66.5898135 C168.0455,64.9676037 167.011673,63.5966166 166.012535,62.2619139 C165.013397,60.9272111 164.001673,59.5315087 163.620546,57.8939712 C163.302944,56.5293575 163.538017,54.9449754 164.418977,53.9213588 C164.747706,53.5537865 164.808324,53.0104557 164.569073,52.5760182 L164.553761,52.549054 Z" id="Path" fill="#2F2E41" fill-rule="nonzero"></path>
                <path d="M102.835814,5.78190257 C104.291746,5.78634327 105.470932,6.9904241 105.475279,8.47709296 L105.475279,13.866907 C105.470932,15.3535755 104.291746,16.5576556 102.835814,16.5620949 L97.5574449,16.5620949 C96.1015125,16.5576556 94.9223257,15.3535759 94.9179768,13.866907 L94.9179768,8.47709296 C94.9223243,6.99042311 96.1015115,5.78634187 97.5574449,5.78190257 L102.835814,5.78190257 M102.835814,4.704 L97.5574449,4.704 C95.5191697,4.71006195 93.8682962,6.39578737 93.8623596,8.47709296 L93.8623596,13.866907 C93.8682962,15.9482126 95.5191697,17.633938 97.5574449,17.64 L102.835814,17.64 C104.874089,17.633938 106.524962,15.9482126 106.530899,13.866907 L106.530899,8.47709296 C106.524962,6.39578737 104.874089,4.71006195 102.835814,4.704 L102.835814,4.704 Z" id="Shape" fill="#3F3D56" fill-rule="nonzero"></path>
                <path d="M103.93775,8.232 C103.46107,8.23095212 103.075331,7.83579701 103.075843,7.34905219 C103.076356,6.86230737 103.462926,6.468 103.939607,6.468 C104.416288,6.468 104.802858,6.86230737 104.803371,7.34905219 C104.803883,7.83579701 104.418144,8.23095212 103.941464,8.232 C103.940225,8.232 103.938987,8.232 103.93775,8.232 Z" id="Path" fill="#3F3D56" fill-rule="nonzero"></path>
                <path d="M100.484607,8.7218881 C101.650749,8.7218881 102.596093,9.68719112 102.596093,10.8779527 C102.596093,12.0687144 101.650749,13.0340174 100.484607,13.0340174 C99.318465,13.0340174 98.3731203,12.0687144 98.3731203,10.8779527 C98.3731203,9.68719112 99.318465,8.7218881 100.484607,8.7218881 M100.484607,7.644 C99.2036384,7.644 98.0488001,8.43192026 97.5585917,9.64036494 C97.0683832,10.8488096 97.339343,12.2397918 98.2451226,13.1646981 C99.1509023,14.0896045 100.513124,14.3662902 101.696585,13.8657372 C102.880046,13.3651841 103.651685,12.1859678 103.651685,10.8779553 C103.651685,9.09189708 102.233737,7.644 100.484607,7.644 L100.484607,7.644 Z" id="Shape" fill="#3F3D56" fill-rule="nonzero"></path>
                <polygon id="Path" fill="#FFB8B8" fill-rule="nonzero" points="41.5983334 143.472 38.5814607 142.747046 39.8872637 130.536 44.3398876 131.605901"></polygon>
                <path d="M41.6660011,146.412 L31.6713483,144.171378 L31.7011267,144.051085 C31.9441527,143.069312 32.5871004,142.219619 33.488522,141.688937 C34.3899437,141.158255 35.4759954,140.990058 36.5077468,141.221348 L36.5079936,141.221405 L42.6123596,142.589914 L41.6660011,146.412 Z" id="Path" fill="#2F2E41" fill-rule="nonzero"></path>
                <polygon id="Path" fill="#FFB8B8" fill-rule="nonzero" points="52.9770189 143.472 49.8556167 143.472 48.3707865 131.124 52.9775281 131.124261"></polygon>
                <path d="M53.5531851,147 L43.7640449,146.999622 L43.7640449,146.870088 C43.7640449,145.812897 44.1654648,144.799003 44.8800256,144.051462 C45.5945863,143.303921 46.5637398,142.884 47.5742734,142.884 L47.574521,142.884 L53.5533708,142.884259 L53.5531851,147 Z" id="Path" fill="#2F2E41" fill-rule="nonzero"></path>
                <path d="M69.8448922,95.0889721 C70.272514,94.3909491 70.3694327,93.5390982 70.1095694,92.7626342 C69.8497061,91.9861701 69.2597546,91.3648529 68.4984581,91.0658656 L59.2659244,67.62 L54.1292135,70.7426607 L64.8197046,92.8072738 C64.3935572,94.1508165 65.0382227,95.6012102 66.3202819,96.1833315 C67.602341,96.7654528 69.1165547,96.2953022 69.8448922,95.0889695 L69.8448922,95.0889721 Z" id="Path" fill="#FFB8B8" fill-rule="nonzero"></path>
                <path d="M61.3840856,71.2403456 L55.529725,73.4226004 C55.1926629,73.548236 54.8179879,73.51991 54.5033328,73.3450035 C54.1886776,73.1700969 53.9652084,72.8659342 53.8911567,72.5117739 L52.6092895,66.3789397 C51.9626829,64.5883837 52.8767877,62.608567 54.6530772,61.952396 C56.4293667,61.2962251 58.3979977,62.2111436 59.0546116,63.9980029 L62.0387872,69.4746746 C62.2115829,69.7920279 62.2386454,70.1694036 62.1129225,70.5084648 C61.9871996,70.847526 61.7211443,71.1146887 61.3840856,71.2403353 L61.3840856,71.2403456 Z" id="Path" fill="#00B0FF" fill-rule="nonzero"></path>
                <path d="M53.0759084,139.356 C53.060607,139.356 53.0452417,139.356 53.0298125,139.355239 L48.5838528,139.174747 C47.958671,139.152945 47.4665206,138.625971 47.4787027,137.991397 L47.8198103,113.071118 C47.8227707,112.86289 47.6637276,112.689158 47.458839,112.676808 C47.2539504,112.664458 47.0757528,112.817862 47.0543939,113.024982 L44.4752525,137.972639 C44.4201333,138.494566 44.0296243,138.915615 43.5195117,139.003124 L43.5040842,139.00566 L39.3302737,138.672811 C38.9973352,138.724299 38.6588715,138.62528 38.404063,138.401844 C38.1492544,138.178407 38.0036586,137.852964 38.005618,137.511263 L38.2551754,95.256 L58.7359551,96.5711677 L54.2202848,138.315373 C54.1545409,138.906728 53.6624373,139.354217 53.0759084,139.356 Z" id="Path" fill="#2F2E41" fill-rule="nonzero"></path>
                <ellipse id="Oval" fill="#FFB8B8" fill-rule="nonzero" cx="48.9466292" cy="51.744" rx="6.33426966" ry="6.468"></ellipse>
                <path d="M57.4583343,98.196 C57.4295562,98.196 57.4006521,98.1949898 57.3716222,98.1929746 L38.494268,96.7956453 C37.8848273,96.7507176 37.4169987,96.2306545 37.4300415,95.6125946 L37.9277687,71.6303803 C37.836901,67.6211587 39.9456567,63.8900168 43.4070089,61.9356476 C46.8683611,59.9812784 51.1143426,60.1243708 54.4394642,62.3074488 C57.7645857,64.4905268 59.623234,68.3553728 59.268843,72.3495889 C58.938748,76.0457151 58.67618,92.1927597 58.6035448,97.0535339 C58.5939065,97.6867054 58.0842622,98.1951284 57.4583343,98.196 L57.4583343,98.196 Z" id="Path" fill="#00B0FF" fill-rule="nonzero"></path>
                <path d="M23.7299152,59.1248102 C23.7613352,59.2639461 23.7818167,59.4053611 23.7911691,59.5477405 L34.7870345,65.9381231 L37.4597336,64.3881188 L40.3089888,68.1457834 L35.8422062,71.3529756 C35.1009693,71.8851901 34.0999775,71.8606227 33.385347,71.2926767 L22.0467185,62.2814044 C20.9989973,62.6721029 19.8206076,62.3689344 19.08715,61.5199858 C18.3536923,60.6710372 18.2182166,59.453458 18.746898,58.4619912 C19.2755793,57.4705244 20.358098,56.9120587 21.4656831,57.0593843 C22.5732683,57.2067098 23.474801,58.0290842 23.7299152,59.1248077 L23.7299152,59.1248102 Z" id="Path" fill="#FFB8B8" fill-rule="nonzero"></path>
                <path d="M35.1502127,65.5525092 C35.2181393,65.2136477 35.4277246,64.9217413 35.7242451,64.7530079 L40.8416444,61.83971 C42.257305,60.7280705 44.2894812,60.9919616 45.3857536,62.4297918 C46.4820259,63.8676219 46.2291736,65.9374261 44.8203556,67.0580401 L40.7402154,71.3717047 C40.5045745,71.6208001 40.1741081,71.7531322 39.8349304,71.7342174 C39.4957527,71.7153026 39.1814596,71.5470145 38.9739507,71.2732062 L35.369799,66.5174292 C35.1621202,66.2436733 35.0819441,65.8913581 35.1502127,65.5525092 L35.1502127,65.5525092 Z" id="Path" fill="#00B0FF" fill-rule="nonzero"></path>
                <path d="M52.6363337,57.036 C50.71936,57.0210403 48.9438285,55.9738464 47.933818,54.2624949 C47.8798498,54.173695 47.5849145,53.7186976 47.2433835,53.192033 C46.2836568,51.7118764 46.0586474,51.3597508 46.0395711,51.3080595 C45.779847,50.6043192 44.9555161,50.3325477 44.3097362,50.2283945 C44.1892527,50.2089454 44.0670626,50.1917996 43.9444459,50.1743997 C43.0349125,50.0464448 42.0944418,49.9141425 41.5788159,48.8641649 C41.2005518,48.0936341 40.5819918,44.9559781 41.0570449,44.1892863 C41.652589,43.2275949 42.7961984,43.5398002 43.902174,43.8420243 C44.6098485,44.0349747 45.3414596,44.2348327 45.9245066,44.1073966 C48.4516769,43.5551536 51.316057,42.9292098 53.8456625,44.5472975 C55.8589808,45.8347578 57.0699688,48.2663702 57.0060133,50.8932365 C56.9373648,53.7140804 55.7660241,55.9407118 53.8726478,56.8496872 L53.478486,56.9702288 L53.2567674,56.9988889 C53.0507898,57.0235608 52.8436464,57.036 52.6363337,57.036 L52.6363337,57.036 Z" id="Path" fill="#2F2E41" fill-rule="nonzero"></path>
                <path d="M194.636666,47.04 C191.365711,47.0402862 188.542795,49.3809583 187.872216,52.6488673 C187.201636,55.9167763 188.867017,59.2170712 191.862908,60.5572438 C191.833874,60.0146002 191.874326,59.4704092 191.983238,58.9384495 C192.11591,58.3652587 192.871828,55.0930264 192.871828,55.0930264 C192.720848,54.7417839 192.645109,54.3616747 192.64968,53.978138 C192.64968,52.9325499 193.242074,52.1514838 193.982565,52.1514838 C194.611983,52.1514838 194.914352,52.6333431 194.914352,53.2096845 C194.914352,53.8553109 194.510165,54.8190296 194.303446,55.7134608 C194.219918,56.0494968 194.297872,56.4060529 194.513439,56.6739555 C194.729007,56.9418581 195.05651,57.0891949 195.395671,57.0708529 C196.703874,57.0708529 197.586294,55.3544183 197.586294,53.3199119 C197.586294,51.7735582 196.565032,50.6177249 194.710718,50.6177249 C192.615743,50.6177249 191.307539,52.2144727 191.307539,53.9970339 C191.286964,54.4996877 191.449656,54.9922839 191.764176,55.3796231 C191.877391,55.4750105 191.917294,55.6341155 191.862908,55.7732991 C191.828968,55.9024249 191.754919,56.2142161 191.720979,56.3401912 C191.708997,56.4174767 191.6612,56.4841039 191.592637,56.5190972 C191.524073,56.5540904 191.443177,56.5531448 191.375416,56.516558 C190.409692,56.1134354 189.959226,55.0363388 189.959226,53.8206671 C189.959226,51.8176461 191.616077,49.4146505 194.898925,49.4146505 C197.536927,49.4146505 199.274,51.3641319 199.274,53.4553363 C199.274,56.2236653 197.765246,58.2896726 195.54377,58.2896726 C194.797109,58.2896726 194.096727,57.8771007 193.856067,57.4109892 C193.856067,57.4109892 193.454966,59.0360822 193.368575,59.3510214 C193.208995,59.886146 192.975222,60.3952097 192.674365,60.8627364 C195.270538,61.6454549 198.075387,60.8092412 199.850722,58.7232382 C201.626057,56.6372352 202.045105,53.6853991 200.922879,51.1708052 C199.800653,48.6562114 197.343713,47.0417038 194.636666,47.04 L194.636666,47.04 Z" id="Path" fill="#3F3D56" fill-rule="nonzero"></path>
                <path d="M155.398035,23.5017753 L146.278134,20.6367561 C146.044861,20.5506183 145.787593,20.562927 145.56323,20.6709598 C145.338867,20.7789926 145.165899,20.9738469 145.082583,21.2124251 L142.270559,30.5454934 C142.126573,31.0709889 142.410112,31.6197265 142.916191,31.7949961 L152.033402,34.6591715 C152.538689,34.7960406 153.057832,34.4926087 153.198142,33.9783977 L156.010166,24.6453293 C156.085088,24.4107742 156.061864,24.1550415 155.94598,23.9385535 C155.830097,23.7220655 155.631834,23.5640261 155.398035,23.5017753 L155.398035,23.5017753 Z M145.929374,30.7084899 L144.363901,30.2166956 L145.86139,25.2465476 L147.426865,25.7383418 L145.929374,30.7084899 Z M146.925949,24.7537833 L146.914727,24.7502581 C146.446718,24.5997854 146.186093,24.0910957 146.331912,23.612715 C146.477731,23.1343343 146.975044,22.866533 147.444014,23.013852 C147.912984,23.1611709 148.176887,23.6680951 148.03416,24.147447 C147.891433,24.6267989 147.39586,24.8979421 146.925949,24.7537833 L146.925949,24.7537833 Z M151.650736,32.5058671 L150.085261,32.0140729 L150.904059,29.2964928 C151.100233,28.6454298 151.00643,28.1290247 150.44005,27.9510966 C150.076115,27.8399817 149.683123,27.9753958 149.459532,28.2889559 C149.379796,28.4021561 149.321333,28.5294874 149.287115,28.6644781 L148.434171,31.4953807 L146.868698,31.0035864 L148.366187,26.0334384 L149.931663,26.5252326 L149.723265,27.2168949 C150.16814,26.7952933 150.803019,26.6555038 151.378512,26.8524374 C152.406144,27.1752547 152.975121,28.1111409 152.525836,29.6023097 L151.650736,32.5058671 Z" id="Shape" fill="#3F3D56" fill-rule="nonzero"></path>
                <path d="M17.8511236,62.3700581 C17.8504503,58.5936601 14.9722946,55.4787592 11.3016142,55.2818131 C7.63093388,55.0848671 4.45263401,57.874816 4.06909902,61.6305998 C3.68556403,65.3863835 6.23104862,68.793307 9.86158455,69.3833691 L9.86158455,64.4228038 L8.10666202,64.4228038 L8.10666202,62.3700581 L9.86158455,62.3700581 L9.86158455,60.8056972 C9.86158455,59.0267716 10.8934397,58.0433463 12.4716025,58.0433463 C12.9898786,58.0507634 13.5069305,58.0971585 14.0186113,58.1821594 L14.0186113,59.9293902 L13.1468554,59.9293902 C12.2889815,59.9293902 12.0206068,60.4764072 12.0206068,61.0386331 L12.0206068,62.3703658 L13.9368642,62.3703658 L13.630855,64.4231115 L12.0206068,64.4231115 L12.0206068,69.384 C15.3786818,68.83757 17.8511236,65.86314 17.8511236,62.3700477 L17.8511236,62.3700581 Z" id="Path" fill="#3F3D56"></path>
                <path d="M205,146.706 C205,146.868165 204.886231,146.999503 204.746287,147 L0.253712871,147 C0.113591122,147 0,146.868372 0,146.706 C0,146.543628 0.113591122,146.412 0.253712871,146.412 L204.746287,146.412 C204.886231,146.412497 205,146.543835 205,146.706 Z" id="Path" fill="#3F3D56" fill-rule="nonzero"></path>
            </g>
        </g>
    </g>
</svg>