<?xml version="1.0" encoding="UTF-8"?>
<svg width="1024px" height="485px" viewBox="0 0 1024 485" version="1.1" xmlns="http://www.w3.org/2000/svg" xmlns:xlink="http://www.w3.org/1999/xlink">
    <title>Artboard Copy</title>
    <defs>
        <rect id="path-1" x="0" y="0" width="1024" height="485"></rect>
        <linearGradient x1="12.7939646%" y1="12.0393928%" x2="79.7711766%" y2="78.2008538%" id="linearGradient-3">
            <stop stop-color="#387EB8" offset="0%"></stop>
            <stop stop-color="#366994" offset="100%"></stop>
        </linearGradient>
        <linearGradient x1="18.9896686%" y1="20.5791813%" x2="90.923458%" y2="88.4290372%" id="linearGradient-4">
            <stop stop-color="#FFE052" offset="0%"></stop>
            <stop stop-color="#FFC331" offset="100%"></stop>
        </linearGradient>
        <filter color-interpolation-filters="auto" id="filter-5">
            <feColorMatrix in="SourceGraphic" type="matrix" values="0 0 0 0 1.000000 0 0 0 0 0.333975 0 0 0 0 0.333975 0 0 0 1.000000 0"></feColorMatrix>
        </filter>
    </defs>
    <g id="Artboard-Copy" stroke="none" stroke-width="1" fill="none" fill-rule="evenodd">
        <g id="Rectangle-Copy-15">
            <mask id="mask-2" fill="white">
                <use xlink:href="#path-1"></use>
            </mask>
            <use id="Mask" fill="#161523" xlink:href="#path-1"></use>
        </g>
        <polygon id="Path-3" fill="#D8D8D8" opacity="0.0361555233" points="-42 -8 1024 485 1024 -8"></polygon>
        <g id="python-seeklogo.com-copy" transform="translate(295.000000, 170.000000)" fill-rule="nonzero">
            <path d="M74.9716484,0 C36.6303003,0 39.0245812,16.5901236 39.0245812,16.5901236 L39.0673244,33.777321 L75.655541,33.777321 L75.655541,38.9377451 L24.5346217,38.9377451 C24.5346217,38.9377451 0,36.1614868 0,74.7621761 C0,113.362858 21.4143649,111.993996 21.4143649,111.993996 L34.1945947,111.993996 L34.1945947,94.0817806 C34.1945947,94.0817806 33.5057076,72.715066 55.2670136,72.715066 L91.5560271,72.715066 C91.5560271,72.715066 111.944554,73.0439141 111.944554,53.054277 L111.944554,20.0019742 C111.944554,20.0019715 115.040096,0 74.9716484,0 L74.9716484,0 L74.9716484,0 Z M54.796838,11.5576439 C58.4370974,11.5576439 61.3792977,14.4932971 61.3792977,18.1254564 C61.3792977,21.7576156 58.4370974,24.6932688 54.796838,24.6932688 C51.1565785,24.6932688 48.2143785,21.7576156 48.2143785,18.1254564 C48.2143785,14.4932971 51.1565785,11.5576439 54.796838,11.5576439 L54.796838,11.5576439 L54.796838,11.5576439 Z" id="Shape" fill="url(#linearGradient-3)"></path>
            <path d="M72.028353,146 C110.369711,146 107.97542,129.409877 107.97542,129.409877 L107.932677,112.222682 L71.344461,112.222682 L71.344461,107.062258 L122.465379,107.062258 C122.465379,107.062258 147,109.838508 147,71.2378165 C147,32.6371422 125.585636,34.0060039 125.585636,34.0060039 L112.805406,34.0060039 L112.805406,51.9182139 C112.805406,51.9182139 113.494304,73.2849265 91.7329877,73.2849265 L55.4439718,73.2849265 C55.4439718,73.2849265 35.0554456,72.956079 35.0554456,92.9457276 L35.0554456,125.998028 C35.0554456,125.998028 31.9599048,146 72.028353,146 L72.028353,146 L72.028353,146 Z M92.2031628,134.442357 C88.5629028,134.442357 85.6207039,131.506705 85.6207039,127.874545 C85.6207039,124.242384 88.5629028,121.306733 92.2031628,121.306733 C95.843424,121.306733 98.7856222,124.242384 98.7856222,127.874545 C98.7856222,131.506705 95.843424,134.442357 92.2031628,134.442357 L92.2031628,134.442357 L92.2031628,134.442357 Z" id="Shape" fill="url(#linearGradient-4)"></path>
        </g>
        <g filter="url(#filter-5)" id="iconmonstr-heart-thin">
            <g transform="translate(523.000000, 181.000000)">
                <path d="M69,121.685909 C36.6275,88.9554545 5.75,60.84 5.75,36.5831818 C5.75,14.1818182 23.391,5.90909091 36.11575,5.90909091 C43.65975,5.90909091 59.984,8.86954545 69,32.2459091 C78.1425,8.79863636 94.668,5.96818182 101.9245,5.96818182 C116.5295,5.96818182 132.25,15.5468182 132.25,36.5831818 C132.25,60.6272727 102.718,87.5490909 69,121.685909 M101.9245,0.0590909091 C89.25725,0.0590909091 76.36,6.21636364 69,19.1927273 C61.61125,6.15727273 48.7485,0 36.11575,0 C17.8135,0 0,12.9231818 0,36.5831818 C0,64.1254545 32.03325,92.3 69,130 C105.9725,92.3 138,64.1254545 138,36.5831818 C138,12.8818182 120.20375,0.0590909091 101.9245,0.0590909091" id="Shape" fill="#000000"></path>
            </g>
        </g>
    </g>
</svg>