<?xml version="1.0" encoding="UTF-8"?>
<svg width="1026px" height="450px" viewBox="0 0 1026 450" version="1.1" xmlns="http://www.w3.org/2000/svg" xmlns:xlink="http://www.w3.org/1999/xlink">
    <title>Artboard</title>
    <defs>
        <filter id="filter-1">
            <feColorMatrix in="SourceGraphic" type="matrix" values="0 0 0 0 0.980392 0 0 0 0 0.909804 0 0 0 0 0.752941 0 0 0 1.000000 0"></feColorMatrix>
        </filter>
        <rect id="path-2" x="0" y="0" width="1026" height="447"></rect>
        <filter id="filter-4">
            <feColorMatrix in="SourceGraphic" type="matrix" values="0 0 0 0 0.784314 0 0 0 0 0.741176 0 0 0 0 0.556863 0 0 0 1.000000 0"></feColorMatrix>
        </filter>
        <filter id="filter-5">
            <feColorMatrix in="SourceGraphic" type="matrix" values="0 0 0 0 0.784314 0 0 0 0 0.741176 0 0 0 0 0.556863 0 0 0 1.000000 0"></feColorMatrix>
        </filter>
    </defs>
    <g id="Artboard" stroke="none" stroke-width="1" fill="none" fill-rule="evenodd">
        <g filter="url(#filter-1)" id="Group-7-Copy">
            <g transform="translate(0.000000, 0.000000)">
                <g id="Rectangle-Copy-14">
                    <mask id="mask-3" fill="white">
                        <use xlink:href="#path-2"></use>
                    </mask>
                    <use id="Mask" fill="#FFFFFF" xlink:href="#path-2"></use>
                </g>
                <g filter="url(#filter-4)" id="next">
                    <g transform="translate(973.000000, 191.000000)">
                        <path d="M18.5991346,17.0121092 L2.32705112,0.407100277 C1.79391529,-0.136624277 0.93075607,-0.135710217 0.39851349,0.409912766 C-0.133316818,0.955465438 -0.13194258,1.83921998 0.401261967,2.38336641 L15.7047822,18.0000665 L0.400712272,33.6166963 C-0.132423563,34.160913 -0.133797802,35.0441051 0.397963795,35.5897281 C0.664772204,35.8632427 1.01430977,36 1.36384734,36 C1.71249165,36 2.06065498,35.8641568 2.32698241,35.5925406 L18.5991346,18.9879535 C18.8559111,18.7265326 19,18.3707526 19,18.0000665 C19,17.6293804 18.8554988,17.2740223 18.5991346,17.0121092 Z" id="Path" fill="#000000" fill-rule="nonzero"></path>
                    </g>
                </g>
                <g filter="url(#filter-5)" id="next-copy">
                    <g transform="translate(42.500000, 217.000000) scale(-1, 1) translate(-42.500000, -217.000000) translate(33.000000, 199.000000)">
                        <path d="M18.5991346,17.0121092 L2.32705112,0.407100277 C1.79391529,-0.136624277 0.93075607,-0.135710217 0.39851349,0.409912766 C-0.133316818,0.955465438 -0.13194258,1.83921998 0.401261967,2.38336641 L15.7047822,18.0000665 L0.400712272,33.6166963 C-0.132423563,34.160913 -0.133797802,35.0441051 0.397963795,35.5897281 C0.664772204,35.8632427 1.01430977,36 1.36384734,36 C1.71249165,36 2.06065498,35.8641568 2.32698241,35.5925406 L18.5991346,18.9879535 C18.8559111,18.7265326 19,18.3707526 19,18.0000665 C19,17.6293804 18.8554988,17.2740223 18.5991346,17.0121092 Z" id="Path" fill="#000000" fill-rule="nonzero"></path>
                    </g>
                </g>
            </g>
        </g>
        <g id="undraw_Social_media_re_w12q-Copy-2" transform="translate(339.000000, 87.000000)">
            <path d="M206.59087,244.486435 C203.931392,246.373575 201.048238,247.930859 198.005918,249.12344 C197.20906,249.439001 196.407659,249.732649 195.592856,250 L154.005652,250 C153.83746,249.710735 153.67359,249.417087 153.505399,249.12344 C150.131604,243.145297 147.072142,236.934866 146.204373,230.180968 C145.163875,222.072783 148.081732,212.890812 155.29412,208.906845 C156.238841,208.385433 157.2398,207.970844 158.278129,207.670895 C158.707692,207.539411 159.145915,207.434223 159.588664,207.342185 C165.093375,206.13279 170.828806,207.959692 174.58808,212.119935 C178.347354,216.280178 179.544659,222.125467 177.719296,227.406654 C183.833677,221.200606 182.69136,211.137691 180.583758,202.727094 C178.471849,194.316496 175.912848,184.95483 180.211916,177.398879 C182.598391,173.195771 186.799958,170.588004 191.510853,169.536131 C191.656996,169.505478 191.803138,169.474794 191.944747,169.448475 C197.561278,168.322334 203.400247,169.334971 208.295522,172.284148 C217.309816,177.902901 221.936407,188.566259 223.437382,199.006094 C225.859277,215.809759 220.501987,234.559387 206.59087,244.486435 Z" id="Path" fill="#212429" fill-rule="nonzero"></path>
            <path d="M162.595887,212.398747 C165.73846,219.143819 166.74083,226.780058 165.454328,234.174869 C164.483675,239.596943 162.344363,244.709696 159.202388,249.116408 C158.989354,249.416829 158.772032,249.712833 158.550448,250 L157,250 C157.238343,249.712833 157.472193,249.416829 157.693798,249.116408 C163.465853,241.514926 165.889888,231.668087 164.355265,222.056406 C163.455049,216.710646 161.373043,211.665294 158.278848,207.331347 C158.684313,207.198808 159.097952,207.092777 159.515863,207 C160.692695,208.698939 161.723474,210.505715 162.595887,212.398747 Z" id="Path" fill="#FFFFFF" fill-rule="nonzero"></path>
            <path d="M202.689772,217.372991 C202.335167,221.099318 201.437838,224.754165 200.026094,228.222221 C198.724645,231.291253 196.970604,234.148977 194.822117,236.70066 C190.43564,241.966635 184.630935,245.928234 178.327101,248.563425 C177.867659,248.757318 177.403833,248.942398 176.935621,249.118665 C176.122649,249.435946 175.301044,249.726786 174.474916,250 L170,250 C171.055853,249.7356 172.107165,249.440352 173.145339,249.118665 C175.61369,248.352458 178.021921,247.405384 180.350368,246.285174 C186.268907,243.486765 191.408186,239.281634 195.31693,234.03903 C199.509062,228.266288 201.360199,221.325777 201.678143,214.270693 C202.013986,206.722062 201.028884,199.036824 199.301557,191.6909 C197.538889,184.161492 194.858116,176.875868 191.319147,169.996847 C191.154631,169.67344 191.273093,169.278156 191.588555,169.097886 C191.715986,169.013718 191.871171,168.982125 192.021474,169.009752 C192.170529,169.047944 192.294054,169.15174 192.357105,169.29178 C192.794543,170.14229 193.223141,170.992755 193.63383,171.852057 C197.064266,179.01625 199.591261,186.576988 201.157019,194.361344 C202.672089,201.870315 203.484845,209.727413 202.689772,217.372991 Z" id="Path" fill="#FFFFFF" fill-rule="nonzero"></path>
            <path d="M18.5,125 C8.28273213,125 0,116.717268 0,106.5 C0,96.2827321 8.28273213,88 18.5,88 C28.7172679,88 37,96.2827321 37,106.5 C36.988431,116.712472 28.712472,124.988431 18.5,125 L18.5,125 Z M18.5,88.8809524 C8.76926869,88.8809524 0.880952381,96.7692687 0.880952381,106.5 C0.880952381,116.230731 8.76926869,124.119048 18.5,124.119048 C28.2307313,124.119048 36.1190476,116.230731 36.1190476,106.5 C36.1080562,96.7738251 28.2261749,88.8919438 18.5,88.8809524 Z" id="Shape" fill="#3F3D56" fill-rule="nonzero"></path>
            <path d="M93.5002704,65 C86.0178282,65 79.2721555,60.4926856 76.4087488,53.5798104 C73.5453422,46.6669352 75.1281005,38.7098717 80.4189861,33.4189861 C85.7098717,28.1281005 93.6669352,26.5453422 100.57981,29.4087488 C107.492686,32.2721555 112,39.0178282 112,46.5002704 C111.988431,56.7125931 103.712593,64.9884311 93.5002704,65 Z M93.5002704,28.8814803 C83.7696813,28.8814803 75.8814803,36.7696813 75.8814803,46.5002704 C75.8814803,56.2308595 83.7696813,64.1190605 93.5002704,64.1190605 C103.230859,64.1190605 111.11906,56.2308595 111.11906,46.5002704 C111.108069,36.7742376 103.226303,28.8924715 93.5002704,28.8814803 L93.5002704,28.8814803 Z" id="Shape" fill="#3F3D56" fill-rule="nonzero"></path>
            <path d="M173.50027,37 C166.017828,37 159.272155,32.4926856 156.408749,25.5798104 C153.545342,18.6669352 155.128101,10.7098717 160.418986,5.4189861 C165.709872,0.128100504 173.666935,-1.45465784 180.57981,1.40874881 C187.492686,4.27215547 192,11.0178282 192,18.5002704 C191.988431,28.7125931 183.712593,36.9884311 173.50027,37 Z M173.50027,0.881480253 C163.769681,0.881480253 155.88148,8.76968128 155.88148,18.5002704 C155.88148,28.2308595 163.769681,36.1190605 173.50027,36.1190605 C183.230859,36.1190605 191.11906,28.2308595 191.11906,18.5002704 C191.108086,8.77423059 183.22631,0.892454514 173.50027,0.881480253 L173.50027,0.881480253 Z" id="Shape" fill="#3F3D56" fill-rule="nonzero"></path>
            <path d="M259.5,66 C249.282732,66 241,57.7172679 241,47.5 C241,37.2827321 249.282732,29 259.5,29 C269.717268,29 278,37.2827321 278,47.5 C277.988431,57.712472 269.712472,65.988431 259.5,66 L259.5,66 Z M259.5,29.8809524 C249.769269,29.8809524 241.880952,37.7692687 241.880952,47.5 C241.880952,57.2307313 249.769269,65.1190476 259.5,65.1190476 C269.230731,65.1190476 277.119048,57.2307313 277.119048,47.5 C277.108073,37.7738181 269.226182,29.8919268 259.5,29.8809524 L259.5,29.8809524 Z" id="Shape" fill="#3F3D56" fill-rule="nonzero"></path>
            <path d="M337.5,111 C327.282732,111 319,102.717268 319,92.5 C319,82.2827321 327.282732,74 337.5,74 C347.717268,74 356,82.2827321 356,92.5 C355.988431,102.712472 347.712472,110.988431 337.5,111 Z M337.5,74.8809524 C327.769269,74.8809524 319.880952,82.7692687 319.880952,92.5 C319.880952,102.230731 327.769269,110.119048 337.5,110.119048 C347.230731,110.119048 355.119048,102.230731 355.119048,92.5 C355.108073,82.7738181 347.226182,74.8919268 337.5,74.8809524 L337.5,74.8809524 Z" id="Shape" fill="#3F3D56" fill-rule="nonzero"></path>
            <path d="M103.8,42.0728318 L106,41.6338558 C106,41.6338558 104.152,43.6970429 103.8,43.8287357 L103.8,43.8287357 C103.767158,44.2671003 103.767158,44.707299 103.8,45.1456636 C99.576,63.2314736 84,55.2421109 84,55.2421109 C89.676,55.3738037 90.16,53.0472311 90.16,53.0472311 C86.86,52.5643575 86.2,50.4133753 86.2,50.4133753 C86.8130566,50.7360245 87.5712569,50.5469156 87.96,49.9743993 C84.396,49.0525497 84.88,45.5846396 84.88,45.5846396 C85.5152462,46.0422175 86.2576148,46.3294048 87.036,46.4186939 C86.64,45.9358204 83.296,41.941139 85.32,39.8779519 C85.32,39.8779519 87.784,44.2677117 94.252,44.66279 L94.692,44.5749948 C94.6171878,44.2588264 94.5875612,43.9336924 94.604,43.6092477 C94.604,41.0636305 96.6724445,39 99.224,39 C102.304,39 102.964,40.7559039 102.964,40.7559039 L105.164,39.438976 C105.12,39.438976 104.9,41.6338558 103.8,42.0728318 Z" id="Path" fill="#3F3D56" fill-rule="nonzero"></path>
            <polygon id="Path" fill="#FFB8B8" fill-rule="nonzero" points="245 237.632196 249.752813 240 261 222.494661 253.985834 219"></polygon>
            <path d="M244.000544,236 L253.303376,240.698506 L253.303754,240.698696 C254.876094,241.492846 256.07784,242.898052 256.644606,244.605167 C257.211372,246.312282 257.096729,248.181461 256.325899,249.801482 L256.231455,250 L241,242.307104 L244.000544,236 Z" id="Path" fill="#2F2E41" fill-rule="nonzero"></path>
            <polygon id="Path" fill="#FFB8B8" fill-rule="nonzero" points="293.000884 246 298.421466 245.999556 301 225 293 225"></polygon>
            <path d="M292,243.000441 L302.382788,243 L302.383218,243 C304.138097,243 305.821115,243.714155 307.062009,244.985483 C308.302904,246.25681 309,247.981116 309,249.779056 L309,249.999352 L292.000318,250 L292,243.000441 Z" id="Path" fill="#2F2E41" fill-rule="nonzero"></path>
            <circle id="Oval" fill="#FFB8B8" fill-rule="nonzero" cx="281" cy="92" r="11"></circle>
            <path d="M292.166885,240 C291.111002,239.998724 290.243035,239.159174 290.196944,238.094554 L286.03215,182.148752 C286.022243,181.847328 285.812383,181.590464 285.521079,181.523212 C285.229774,181.455959 284.930133,181.595197 284.791365,181.862296 L258.148926,233.195177 C257.646108,234.152547 256.479938,234.53258 255.517305,234.052773 L248.09027,230.304789 C247.120522,229.812965 246.724562,228.624385 247.202926,227.641189 L263.100607,195.129732 L273.630406,170.7764 C277.69474,162.696753 282.010659,158.53304 286.82471,158.047274 C291.763533,157.549629 297.037807,160.976783 302.951805,168.525712 L303,168.587324 L302.999035,168.6658 L302.12165,237.006721 C302.124603,238.035685 301.347249,238.895986 300.331749,238.987614 L292.360098,239.990709 C292.2953,239.99699 292.230896,240 292.166885,240 Z" id="Path" fill="#2F2E41" fill-rule="nonzero"></path>
            <path d="M270.313698,174.27491 C271.510676,173.539693 272.319043,172.314443 272.521283,170.92885 C272.723523,169.543258 272.298861,168.139655 271.361566,167.095727 L273,124 L265.036836,124.987931 L264.365387,166.913832 C262.670864,168.635357 262.537587,171.346494 264.055158,173.224502 C265.57273,175.102509 268.26147,175.553777 270.313693,174.27491 L270.313698,174.27491 Z" id="Path" fill="#FFB8B8" fill-rule="nonzero"></path>
            <path d="M274.621419,130.986718 L263.895953,129.801435 C263.278445,129.733184 262.722066,129.406924 262.371798,128.907672 C262.02153,128.408419 261.912067,127.785625 262.071932,127.201576 L264.84094,117.088211 C265.229019,113.929027 268.172544,111.670891 271.422179,112.039391 C274.671814,112.40789 277.002115,115.264063 276.632349,118.425323 L276.998773,128.851136 C277.019811,129.455175 276.769447,130.038205 276.312922,130.448299 C275.856397,130.858393 275.23893,131.054932 274.621419,130.986701 L274.621419,130.986718 Z" id="Path" fill="#00B0FF" fill-rule="nonzero"></path>
            <path d="M320.790981,104.552395 C320.736417,104.789021 320.700849,105.029523 320.684608,105.271665 L301.589354,116.139666 L296.947975,113.503599 L292,119.894183 L299.756949,125.348598 C301.04417,126.253725 302.782478,126.211943 304.023495,125.246049 L323.713991,109.920759 C325.533449,110.585212 327.579823,110.069619 328.853535,108.625829 C330.127247,107.182038 330.362512,105.111325 329.444411,103.425156 C328.526311,101.738987 326.646425,100.789215 324.723009,101.039769 C322.799593,101.290323 321.234004,102.688919 320.790976,104.552395 L320.790981,104.552395 Z" id="Path" fill="#FFB8B8" fill-rule="nonzero"></path>
            <path d="M301.577542,117.126489 L295.319962,125.213081 C294.959681,125.678656 294.414,125.964808 293.825115,125.996969 C293.23623,126.02913 292.66247,125.804116 292.253347,125.38056 L285.169349,118.045728 C282.719904,116.141292 282.27888,112.619197 284.183519,110.172718 C286.088157,107.726239 289.619534,107.278824 292.077276,109.172601 L300.962179,114.126297 C301.47685,114.413453 301.840677,114.909761 301.958852,115.48589 C302.077027,116.06202 301.937844,116.660906 301.577573,117.126489 L301.577542,117.126489 Z" id="Path" fill="#00B0FF" fill-rule="nonzero"></path>
            <path d="M305.964177,171.881434 L294.069963,114.584918 C292.895049,108.925241 287.404639,105.197867 281.64192,106.147668 L277.675153,106.801514 C274.892131,107.260184 272.407348,108.793457 270.767467,111.064006 L270.767467,111.064006 C268.15424,114.68194 267.338269,119.275605 268.54821,123.557739 L275.113585,146.795647 L270.241252,171.691586 C270.130821,172.251813 270.301391,172.830252 270.699014,173.243953 C271.096636,173.657654 271.672131,173.855449 272.24348,173.774779 C274.682808,173.42962 278.703616,172.936954 283.321668,172.668511 L285.823529,163.124583 L286.841098,172.516965 C292.513977,172.359929 298.672106,172.634838 303.752314,173.940059 C304.349836,174.097995 304.987451,173.939029 305.437855,173.519829 C305.888258,173.10063 306.087358,172.480849 305.964177,171.881434 Z" id="Path" fill="#00B0FF" fill-rule="nonzero"></path>
            <path d="M285.761652,89.3691395 C288.529945,91.275133 292.16478,93.2343821 294.992164,91.2046548 C296.848676,89.8719006 297.433605,87.403948 296.680751,85.2381568 C295.326909,81.3434321 291.60725,79.6287963 288.05032,78.314491 C283.426313,76.6058901 278.391446,75.2466272 273.617911,76.4702409 C268.844375,77.6938545 264.625651,82.3432327 265.487369,87.2223574 C266.180338,91.146048 269.859481,94.4108633 269.337196,98.3612126 C268.811547,102.336924 264.367025,104.42963 260.443219,105.140186 C256.519412,105.850742 252.128579,106.079046 249.308698,108.914313 C245.711419,112.53121 246.609719,118.996023 249.994611,122.81475 C253.379503,126.633478 258.48749,128.364472 263.437129,129.541222 C269.995096,131.100344 277.088052,131.919727 283.316462,129.33221 C289.544872,126.744692 294.391746,119.779399 292.587476,113.247982 C291.825356,110.489122 290.030027,108.157511 288.294939,105.887609 C286.55985,103.617706 284.802906,101.244062 284.141046,98.4591347 C283.589502,96.138363 283.997727,93.4438358 285.527589,91.7029912 C286.098455,91.0778683 286.203724,90.1538362 285.788245,89.414997 L285.761652,89.3691395 Z" id="Path" fill="#2F2E41" fill-rule="nonzero"></path>
            <path d="M178.583169,9.83316764 C181.11152,9.84071984 183.159276,11.8884764 183.166826,14.4168248 L183.166826,23.5831752 C183.159276,26.1115229 181.111519,28.1592782 178.583169,28.166828 L169.416831,28.166828 C166.88848,28.1592782 164.840722,26.1115236 164.833169,23.5831752 L164.833169,14.4168248 C164.840719,11.8884747 166.888479,9.84071746 169.416831,9.83316764 L178.583169,9.83316764 M178.583169,8 L169.416831,8 C165.877192,8.01030944 163.010309,10.8771894 163,14.4168248 L163,23.5831752 C163.010309,27.1228106 165.877192,29.9896906 169.416831,30 L178.583169,30 C182.122808,29.9896906 184.989691,27.1228106 185,23.5831752 L185,14.4168248 C184.989691,10.8771894 182.122808,8.01030944 178.583169,8 L178.583169,8 Z" id="Shape" fill="#3F3D56" fill-rule="nonzero"></path>
            <path d="M180.496775,14 C179.66898,13.9982179 178.999111,13.3261854 179,12.4983881 C179.000891,11.6705908 179.672203,11 180.5,11 C181.327797,11 181.999109,11.6705908 182,12.4983881 C182.000889,13.3261854 181.33102,13.9982179 180.503225,14 C180.501073,14 180.498923,14 180.496775,14 Z" id="Path" fill="#3F3D56" fill-rule="nonzero"></path>
            <path d="M174.500098,14.833143 C176.525203,14.833143 178.166874,16.4748148 178.166874,18.4999196 C178.166874,20.5250244 176.525203,22.1666962 174.500098,22.1666962 C172.474993,22.1666962 170.833321,20.5250244 170.833321,18.4999196 C170.833321,16.4748148 172.474993,14.833143 174.500098,14.833143 M174.500098,13 C172.275587,13 170.270111,14.3400004 169.418823,16.3951785 C168.567534,18.4503565 169.038079,20.8159725 170.611042,22.3889424 C172.184006,23.9619123 174.54962,24.4324664 176.604801,23.5811857 C178.659983,22.729905 180,20.724435 180,18.499924 C180,15.46241 177.537612,13 174.500098,13 L174.500098,13 Z" id="Shape" fill="#3F3D56" fill-rule="nonzero"></path>
            <polygon id="Path" fill="#FFB8B8" fill-rule="nonzero" points="72.2390569 244 67 242.767085 69.2676384 222 77 223.819559"></polygon>
            <path d="M72.3565678,249 L55,245.189419 L55.0517128,244.984838 C55.4737481,243.315157 56.5902817,241.8701 58.1556773,240.96758 C59.7210729,240.06506 61.6070945,239.77901 63.3988189,240.172361 L63.3992474,240.172458 L74,242.499854 L72.3565678,249 Z" id="Path" fill="#2F2E41" fill-rule="nonzero"></path>
            <polygon id="Path" fill="#FFB8B8" fill-rule="nonzero" points="91.9991157 244 86.5785343 244 84 223 92 223.000444"></polygon>
            <path d="M92.9996775,250 L76,249.999357 L76,249.77906 C76,247.981117 76.6970999,246.256808 77.9379956,244.98548 C79.1788913,243.714152 80.8619091,243 82.6167869,243 L82.617217,243 L93,243.000441 L92.9996775,250 Z" id="Path" fill="#2F2E41" fill-rule="nonzero"></path>
            <path d="M121.291618,161.715939 C122.034219,160.528825 122.202527,159.080099 121.751252,157.759582 C121.299977,156.439065 120.275476,155.382403 118.95342,154.873921 L102.920337,115 L94,120.310648 L112.56495,157.8355 C111.824909,160.120436 112.944426,162.587092 115.170831,163.577094 C117.397236,164.567097 120.026797,163.767521 121.291618,161.715935 L121.291618,161.715939 Z" id="Path" fill="#FFB8B8" fill-rule="nonzero"></path>
            <path d="M106.598705,121.15705 L96.4321078,124.868368 C95.8467707,125.082034 95.1961157,125.03386 94.6496901,124.7364 C94.1032645,124.43894 93.7151912,123.921657 93.5865941,123.319343 L91.3605223,112.889353 C90.2376347,109.84419 91.8250557,106.477155 94.909734,105.361218 C97.9944123,104.245281 101.413108,105.801265 102.553374,108.840141 L107.73565,118.154209 C108.035725,118.693925 108.082721,119.33572 107.864392,119.912355 C107.646064,120.48899 107.184036,120.943348 106.598705,121.157033 L106.598705,121.15705 Z" id="Path" fill="#00B0FF" fill-rule="nonzero"></path>
            <path d="M92.1708457,237 C92.1442737,237 92.1175905,237 92.0907963,236.998706 L84.3700077,236.691746 C83.2843262,236.654669 82.429665,235.758453 82.4508203,234.679246 L83.0431827,192.29782 C83.0483237,191.94369 82.7721318,191.648227 82.4163253,191.627224 C82.0605187,191.606221 81.7510634,191.867113 81.7139718,192.219357 L77.2350725,234.647345 C77.1393534,235.534976 76.4612012,236.251045 75.5753472,236.39987 L75.5485559,236.404183 L68.3003777,235.838113 C67.7222016,235.925679 67.1344306,235.75728 66.6919338,235.377285 C66.2494369,234.997291 65.9965974,234.443816 66,233.862693 L66.4333777,162 L102,164.23668 L94.1581531,235.230227 C94.0439832,236.235931 93.1894033,236.996968 92.1708457,237 Z" id="Path" fill="#2F2E41" fill-rule="nonzero"></path>
            <circle id="Oval" fill="#FFB8B8" fill-rule="nonzero" cx="85" cy="88" r="11"></circle>
            <path d="M99.7813026,167 C99.7313268,167 99.6811325,166.998282 99.6307195,166.994855 L66.8485826,164.618444 C65.7902368,164.542037 64.9778124,163.657576 65.0004622,162.606453 L65.8648081,121.820375 C65.7070086,115.001971 69.3690428,108.656491 75.3799764,105.332734 C81.3909099,102.008977 88.7644193,102.252331 94.5387768,105.965049 C100.313134,109.677767 103.540836,116.250634 102.925405,123.043519 C102.352167,129.329447 101.896196,156.790408 101.770058,165.05703 C101.753321,166.133853 100.86828,166.998518 99.7813026,167 L99.7813026,167 Z" id="Path" fill="#00B0FF" fill-rule="nonzero"></path>
            <path d="M41.2090235,100.552398 C41.2635871,100.789024 41.2991548,101.029526 41.3153961,101.271668 L60.410655,112.139665 L65.0520252,109.503603 L70,115.894189 L62.2430508,121.348598 C60.9558297,122.253725 59.2175219,122.211943 57.9765051,121.246049 L38.2860086,105.920756 C36.4665513,106.585209 34.4201772,106.069616 33.1464653,104.625826 C31.8727534,103.182036 31.6374884,101.111323 32.5555886,99.4251551 C33.4736889,97.7389871 35.353575,96.7892155 37.2769912,97.0397691 C39.2004074,97.2903228 40.7659958,98.6889187 41.2090235,100.552394 L41.2090235,100.552398 Z" id="Path" fill="#FFB8B8" fill-rule="nonzero"></path>
            <path d="M61.041345,111.483859 C61.1593053,110.907564 61.5232681,110.411125 62.0382012,110.124163 L70.925002,105.169575 C73.3834175,103.279031 76.912465,103.727826 78.8162354,106.173115 C80.7200059,108.618405 80.2809063,112.13848 77.8343736,114.044286 L70.7488619,121.38045 C70.3396513,121.804082 69.7657682,122.029136 69.1767572,121.996968 C68.5877462,121.9648 68.0419493,121.678596 67.6815925,121.212936 L61.4226754,113.12488 C61.0620234,112.659308 60.9227907,112.060133 61.041345,111.483859 L61.041345,111.483859 Z" id="Path" fill="#00B0FF" fill-rule="nonzero"></path>
            <path d="M91.4074868,97 C88.0784983,96.9745583 84.9951364,95.1936164 83.2411669,92.2831546 C83.1474465,92.1321344 82.6352661,91.3583293 82.0421685,90.4626412 C80.3755211,87.9453681 79.9847731,87.346515 79.9516454,87.2586045 C79.5006123,86.0617674 78.0690914,85.5995709 76.9476395,85.4224396 C76.7384095,85.3893629 76.526216,85.3602035 76.3132816,85.3306118 C74.7337993,85.1130014 73.1005916,84.8879975 72.2051632,83.1023212 C71.5482753,81.7918948 70.4740931,76.455745 71.2990633,75.1518474 C72.3332765,73.5163178 74.3192518,74.0472793 76.2398728,74.5612657 C77.4688101,74.8894127 78.7393153,75.2293072 79.751826,75.0125793 C84.1404731,74.0733904 89.1147137,73.0088603 93.5075895,75.76071 C97.0038887,77.9502684 99.1068726,82.0856637 98.9958084,86.5531233 C98.8765945,91.3504768 96.8424613,95.137265 93.5544519,96.6831415 L92.8699561,96.8881443 L92.4849229,96.9368859 C92.1272252,96.978845 91.767503,97 91.4074868,97 L91.4074868,97 Z" id="Path" fill="#2F2E41" fill-rule="nonzero"></path>
            <path d="M338.003185,80 C332.322893,80.0004867 327.420659,83.9812216 326.25614,89.53889 C325.091622,95.0965584 327.983698,100.709305 333.186318,102.98851 C333.135899,102.065647 333.206146,101.140152 333.395282,100.235458 C333.625677,99.2606441 334.938395,93.6956232 334.938395,93.6956232 C334.676205,93.0982719 334.544677,92.4518277 334.552614,91.7995544 C334.552614,90.0213434 335.581358,88.6929996 336.867284,88.6929996 C337.960322,88.6929996 338.485412,89.5124883 338.485412,90.4926608 C338.485412,91.5906647 337.783505,93.2296421 337.424521,94.7507837 C337.279467,95.3222734 337.41484,95.9286614 337.789192,96.3842781 C338.163544,96.8398948 338.732281,97.0904675 339.321263,97.0592737 C341.593069,97.0592737 343.125467,94.1401673 343.125467,90.6801222 C343.125467,88.0502691 341.351958,86.0845661 338.131783,86.0845661 C334.49368,86.0845661 332.221873,88.8001236 332.221873,91.8316903 C332.186142,92.6865437 332.468672,93.5242923 333.014861,94.1830325 C333.21147,94.345256 333.280764,94.6158427 333.186318,94.8525495 C333.127379,95.0721511 332.998786,95.6024083 332.939847,95.8166518 C332.919039,95.9480896 332.836036,96.0614012 332.716969,96.1209135 C332.597902,96.1804258 332.457419,96.1788176 332.339747,96.1165953 C330.662684,95.4310126 329.880412,93.5992156 329.880412,91.5317468 C329.880412,88.1252485 332.757674,84.0385212 338.45862,84.0385212 C343.039736,84.0385212 346.056312,87.3539657 346.056312,90.9104358 C346.056312,95.6184784 343.436233,99.1320963 339.57845,99.1320963 C338.281808,99.1320963 337.065536,98.4304435 336.647609,97.6377368 C336.647609,97.6377368 335.951063,100.4015 335.801038,100.937111 C335.523913,101.847187 335.117947,102.712942 334.595482,103.508055 C339.103959,104.839209 343.974818,103.417077 347.057839,99.8694527 C350.14086,96.3218285 350.868573,91.3016991 348.919731,87.025179 C346.97089,82.7486588 342.704205,80.0028977 338.003185,80 L338.003185,80 Z" id="Path" fill="#3F3D56" fill-rule="nonzero"></path>
            <path d="M269.861953,39.9690057 L254.024467,35.0965241 C253.619369,34.9500311 253.1726,34.9709642 252.782975,35.1546935 C252.393349,35.3384228 252.092976,35.6698076 251.948291,36.0755528 L247.064971,51.9481181 C246.814927,52.8418179 247.307316,53.7750451 248.186167,54.0731227 L264.018981,58.9441692 C264.896455,59.1769398 265.797991,58.6608992 266.041651,57.7863906 L270.92497,41.9138253 C271.055079,41.514922 271.014748,41.0800026 270.813507,40.7118257 C270.612266,40.3436488 270.267965,40.0748743 269.861953,39.9690057 L269.861953,39.9690057 Z M253.418815,52.2253229 L250.700237,51.3889381 L253.300755,42.9363054 L256.019337,43.7726902 L253.418815,52.2253229 Z M255.149453,42.0982709 L255.129965,42.0922756 C254.317228,41.8363697 253.864631,40.9712511 254.117857,40.1576785 C254.371084,39.344106 255.23471,38.8886616 256.049117,39.139204 C256.863523,39.3897464 257.321814,40.2518625 257.073956,41.0670868 C256.826099,41.882311 255.965494,42.3434389 255.149453,42.0982709 L255.149453,42.0982709 Z M263.354449,55.282087 L260.635867,54.4457022 L262.057781,49.8239674 C262.398454,48.7167173 262.235557,47.8384773 261.25199,47.5358786 C260.619985,47.3469077 259.937521,47.5772037 259.549236,48.1104692 C259.410767,48.3029866 259.309242,48.5195364 259.249819,48.7491124 L257.76861,53.5635726 L255.050032,52.7271878 L257.65055,44.274555 L260.369132,45.1109398 L260.007231,46.2872363 C260.779795,45.5702267 261.882315,45.3324894 262.881709,45.6674105 C264.666279,46.2164195 265.654356,47.8080627 264.874134,50.344064 L263.354449,55.282087 Z" id="Shape" fill="#3F3D56" fill-rule="nonzero"></path>
            <path d="M31,106.071527 C30.9988307,99.6490817 26.0006677,94.3516313 19.6262179,94.016689 C13.2517681,93.6817468 7.73237907,98.4265578 7.06633781,104.813945 C6.40029656,111.201333 10.8207478,116.99542 17.1254834,117.998927 L17.1254834,109.562592 L14.0779106,109.562592 L14.0779106,106.071527 L17.1254834,106.071527 L17.1254834,103.41105 C17.1254834,100.385666 18.9173879,98.7131739 21.6580024,98.7131739 C22.558033,98.7257881 23.4559378,98.8046913 24.3445152,98.9492506 L24.3445152,101.920732 L22.8306367,101.920732 C21.3408654,101.920732 20.8748099,102.851033 20.8748099,103.807199 L20.8748099,106.072051 L24.2025544,106.072051 L23.6711432,109.563115 L20.8748099,109.563115 L20.8748099,118 C26.7063938,117.070697 31,112.012143 31,106.07151 L31,106.071527 Z" id="Path" fill="#3F3D56"></path>
            <path d="M356,249.5 C356,249.775791 355.80243,249.999154 355.559406,250 L0.440594059,250 C0.19726068,250 0,249.776142 0,249.5 C0,249.223858 0.19726068,249 0.440594059,249 L355.559406,249 C355.80243,249.000846 356,249.224209 356,249.5 Z" id="Path" fill="#3F3D56" fill-rule="nonzero"></path>
        </g>
    </g>
</svg>