<?xml version="1.0" encoding="UTF-8"?>
<svg width="1024px" height="485px" viewBox="0 0 1024 485" version="1.1" xmlns="http://www.w3.org/2000/svg" xmlns:xlink="http://www.w3.org/1999/xlink">
    <title>Artboard</title>
    <defs>
        <rect id="path-1" x="0" y="0" width="1024" height="485"></rect>
        <linearGradient x1="12.7939646%" y1="12.0393928%" x2="79.7711766%" y2="78.2008538%" id="linearGradient-3">
            <stop stop-color="#387EB8" offset="0%"></stop>
            <stop stop-color="#366994" offset="100%"></stop>
        </linearGradient>
        <linearGradient x1="18.9896686%" y1="20.5791813%" x2="90.923458%" y2="88.4290372%" id="linearGradient-4">
            <stop stop-color="#FFE052" offset="0%"></stop>
            <stop stop-color="#FFC331" offset="100%"></stop>
        </linearGradient>
    </defs>
    <g id="Artboard" stroke="none" stroke-width="1" fill="none" fill-rule="evenodd">
        <g id="Rectangle-Copy-15">
            <mask id="mask-2" fill="white">
                <use xlink:href="#path-1"></use>
            </mask>
            <use id="Mask" fill="#161523" xlink:href="#path-1"></use>
        </g>
        <g id="python-seeklogo.com-copy" transform="translate(336.691558, 183.409091)" fill-rule="nonzero">
            <path d="M65.9086339,0.590909091 C32.3599543,0.590909091 34.4549501,15.1072673 34.4549501,15.1072673 L34.4923504,30.146065 L66.5070399,30.146065 L66.5070399,34.6614361 L21.7762355,34.6614361 C21.7762355,34.6614361 0.308441558,32.23221 0.308441558,66.0078132 C0.308441558,99.7834096 19.0460109,98.5856557 19.0460109,98.5856557 L30.2287119,98.5856557 L30.2287119,82.9124671 C30.2287119,82.9124671 29.6259357,64.2165918 48.6670785,64.2165918 L80.4199652,64.2165918 C80.4199652,64.2165918 98.2599266,64.5043339 98.2599266,47.0134014 L98.2599266,18.0926365 C98.2599266,18.0926341 100.968525,0.590909091 65.9086339,0.590909091 L65.9086339,0.590909091 L65.9086339,0.590909091 Z M48.2556748,10.7038475 C51.4409018,10.7038475 54.015327,13.272544 54.015327,16.4506834 C54.015327,19.6288228 51.4409018,22.1975193 48.2556748,22.1975193 C45.0704478,22.1975193 42.4960227,19.6288228 42.4960227,16.4506834 C42.4960227,13.272544 45.0704478,10.7038475 48.2556748,10.7038475 L48.2556748,10.7038475 L48.2556748,10.7038475 Z" id="Shape" fill="url(#linearGradient-3)"></path>
            <path d="M63.7082504,128.590909 C97.256939,128.590909 95.1619338,114.074552 95.1619338,114.074552 L95.1245337,99.0357558 L63.1098449,99.0357558 L63.1098449,94.5203849 L107.840648,94.5203849 C107.840648,94.5203849 129.308442,96.9496039 129.308442,63.1739986 C129.308442,29.3984086 110.570873,30.5961625 110.570873,30.5961625 L99.3881717,30.5961625 L99.3881717,46.2693463 C99.3881717,46.2693463 99.9909576,64.9652198 80.9498058,64.9652198 L49.1969169,64.9652198 C49.1969169,64.9652198 31.3569565,64.6774782 31.3569565,82.1684207 L31.3569565,111.089183 C31.3569565,111.089183 28.6483583,128.590909 63.7082504,128.590909 L63.7082504,128.590909 L63.7082504,128.590909 Z M81.361209,118.477972 C78.1759815,118.477972 75.6015575,115.909276 75.6015575,112.731136 C75.6015575,109.552995 78.1759815,106.984301 81.361209,106.984301 C84.5464375,106.984301 87.120861,109.552995 87.120861,112.731136 C87.120861,115.909276 84.5464375,118.477972 81.361209,118.477972 L81.361209,118.477972 L81.361209,118.477972 Z" id="Shape" fill="url(#linearGradient-4)"></path>
        </g>
        <g id="java-seeklogo.com-copy" transform="translate(565.159091, 167.500000)" fill-rule="nonzero">
            <path d="M34.6804949,110.5 C34.6804949,110.5 29.2432659,113.727993 38.5499857,114.820303 C49.8248152,116.133425 55.5872501,115.945109 68.0121891,113.544375 C68.0121891,113.544375 71.2788214,115.635426 75.8409091,117.446547 C47.9874783,129.633445 12.8031072,116.740656 34.6804949,110.5" id="Path" fill="#5382A1"></path>
            <path d="M30.5346334,93.5 C30.5346334,93.5 24.4076541,98.2014209 33.7649563,99.2047316 C45.8655673,100.49881 55.4216823,100.604653 71.9574368,97.3039534 C71.9574368,97.3039534 74.244555,99.7075849 77.8409091,101.022034 C44.0065131,111.278009 6.32108233,101.830833 30.5346334,93.5" id="Path" fill="#5382A1"></path>
            <path d="M58.1874619,66.4834831 C65.1068441,74.3874379 56.3694618,81.5 56.3694618,81.5 C56.3694618,81.5 73.9389548,72.5012146 65.8700797,61.2325936 C58.3340002,50.7239089 52.5548314,45.5025576 83.8409091,27.5 C83.8409091,27.5 34.7320863,39.66896 58.1874619,66.4834831" id="Path" fill="#E76F00"></path>
            <path d="M97.0880127,119.613424 C97.0880127,119.613424 101.125232,122.680854 92.6417614,125.053898 C76.5102005,129.560129 25.5004837,130.920869 11.3301987,125.233438 C6.2363456,123.190022 15.7887631,120.35429 18.79359,119.759255 C21.9273216,119.132641 23.7181353,119.249377 23.7181353,119.249377 C18.0532536,115.569525 -12.8973486,126.474958 7.99676091,129.598095 C64.9780375,138.119128 111.86819,125.761057 97.0880127,119.613424" id="Path" fill="#5382A1"></path>
            <path d="M36.0069027,76.5221938 C36.0069027,76.5221938 9.95908143,82.4082065 26.7827191,84.545635 C33.8861787,85.4504403 48.0467434,85.2457384 61.2369513,84.1942971 C72.0167187,83.3291826 82.8409091,81.4898036 82.8409091,81.4898036 C82.8409091,81.4898036 79.0398302,83.0384836 76.2898422,84.8249413 C49.8387357,91.4433977 -1.2598961,88.3644134 13.4507433,81.5945435 C25.8915515,75.8731744 36.0069027,76.5221938 36.0069027,76.5221938" id="Path" fill="#5382A1"></path>
            <path d="M82.3866211,103.800972 C109.538812,89.9312303 96.984707,76.6025356 88.2221109,78.3982281 C86.0743695,78.837661 85.1167406,79.2184262 85.1167406,79.2184262 C85.1167406,79.2184262 85.9140499,77.9906218 87.4368942,77.4591612 C104.772122,71.4681505 118.104031,95.1288845 81.8409091,104.5 C81.8409091,104.500383 82.2610175,104.131121 82.3866211,103.800972" id="Path" fill="#5382A1"></path>
            <path d="M66.1184554,-0.5 C66.1184554,-0.5 80.6270064,14.0885379 52.357725,36.5215879 C29.6886312,54.5167536 47.1884654,64.777115 52.348316,76.5 C39.1159904,64.49944 29.4052346,53.9353004 35.9199693,44.1031786 C45.4820644,29.6705021 71.9723077,22.6730127 66.1184554,-0.5" id="Path" fill="#E76F00"></path>
            <path d="M38.1860317,142.035527 C64.1017917,143.738818 103.898377,141.090494 104.840909,128.5 C104.840909,128.5 103.029153,133.272958 83.4229287,137.063447 C61.3032853,141.337405 34.0218231,140.838405 17.8409091,138.099281 C17.8409091,138.098883 21.1533478,140.914071 38.1860317,142.035527" id="Path" fill="#5382A1"></path>
        </g>
        <text id="+" font-family="OpenSans-Bold, Open Sans" font-size="120" font-weight="bold" fill="#A2945F">
            <tspan x="482.144951" y="299.513965">+</tspan>
        </text>
        <polygon id="Path-3" fill="#D8D8D8" opacity="0.0361555233" points="0 0 1024 483 1024 0"></polygon>
    </g>
</svg>