<?xml version="1.0" encoding="UTF-8"?>
<svg width="1020px" height="459px" viewBox="0 0 1020 459" version="1.1" xmlns="http://www.w3.org/2000/svg" xmlns:xlink="http://www.w3.org/1999/xlink">
    <title>slide1</title>
    <defs>
        <filter color-interpolation-filters="auto" id="filter-1">
            <feColorMatrix in="SourceGraphic" type="matrix" values="0 0 0 0 0.128451 0 0 0 0 0.140510 0 0 0 0 0.160609 0 0 0 1.000000 0"></feColorMatrix>
        </filter>
        <rect id="path-2" x="0" y="0" width="1026" height="459"></rect>
        <filter color-interpolation-filters="auto" id="filter-4">
            <feColorMatrix in="SourceGraphic" type="matrix" values="0 0 0 0 0.784314 0 0 0 0 0.741176 0 0 0 0 0.556863 0 0 0 1.000000 0"></feColorMatrix>
        </filter>
        <filter color-interpolation-filters="auto" id="filter-5">
            <feColorMatrix in="SourceGraphic" type="matrix" values="0 0 0 0 0.784314 0 0 0 0 0.741176 0 0 0 0 0.556863 0 0 0 1.000000 0"></feColorMatrix>
        </filter>
    </defs>
    <g id="slide1" stroke="none" stroke-width="1" fill="none" fill-rule="evenodd">
        <g id="Group-13-Copy" transform="translate(-6.000000, -0.000000)">
            <g filter="url(#filter-1)" id="Group-7">
                <g>
                    <g id="Rectangle-Copy-14">
                        <mask id="mask-3" fill="white">
                            <use xlink:href="#path-2"></use>
                        </mask>
                        <use id="Mask" fill="#FFFFFF" xlink:href="#path-2"></use>
                    </g>
                    <g filter="url(#filter-4)" id="next">
                        <g transform="translate(973.000000, 196.127517)">
                            <path d="M18.5991346,17.4688101 L2.32705112,0.418029143 C1.79391529,-0.140292042 0.93075607,-0.139353445 0.39851349,0.420917136 C-0.133316818,0.981115517 -0.13194258,1.88859502 0.401261967,2.4473494 L15.7047822,18.4832898 L0.400712272,34.519158 C-0.132423563,35.0779845 -0.133797802,35.9848864 0.397963795,36.545157 C0.664772204,36.8260143 1.01430977,36.966443 1.36384734,36.966443 C1.71249165,36.966443 2.06065498,36.8269529 2.32698241,36.548045 L18.5991346,19.4976972 C18.8559111,19.2292583 19,18.8639272 19,18.4832898 C19,18.1026523 18.8554988,17.7377545 18.5991346,17.4688101 Z" id="Path" fill="#000000" fill-rule="nonzero"></path>
                        </g>
                    </g>
                    <g filter="url(#filter-5)" id="next-copy">
                        <g transform="translate(42.500000, 222.825503) scale(-1, 1) translate(-42.500000, -222.825503) translate(33.000000, 204.342282)">
                            <path d="M18.5991346,17.4688101 L2.32705112,0.418029143 C1.79391529,-0.140292042 0.93075607,-0.139353445 0.39851349,0.420917136 C-0.133316818,0.981115517 -0.13194258,1.88859502 0.401261967,2.4473494 L15.7047822,18.4832898 L0.400712272,34.519158 C-0.132423563,35.0779845 -0.133797802,35.9848864 0.397963795,36.545157 C0.664772204,36.8260143 1.01430977,36.966443 1.36384734,36.966443 C1.71249165,36.966443 2.06065498,36.8269529 2.32698241,36.548045 L18.5991346,19.4976972 C18.8559111,19.2292583 19,18.8639272 19,18.4832898 C19,18.1026523 18.8554988,17.7377545 18.5991346,17.4688101 Z" id="Path" fill="#000000" fill-rule="nonzero"></path>
                        </g>
                    </g>
                </g>
            </g>
            <g id="undraw_Social_media_re_w12q-Copy" transform="translate(523.000000, 127.000000)">
                <path d="M15.755132,110.04898 C7.05381285,110.04898 0,102.779546 0,93.8122449 C0,84.8449439 7.05381285,77.5755102 15.755132,77.5755102 C24.4564511,77.5755102 31.5102639,84.8449439 31.5102639,93.8122449 C31.5004114,102.775337 24.4523668,110.038826 15.755132,110.04898 L15.755132,110.04898 Z M15.755132,78.348688 C7.46816138,78.348688 0.750244379,85.2719583 0.750244379,93.8122449 C0.750244379,102.352532 7.46816138,109.275802 15.755132,109.275802 C24.0421026,109.275802 30.7600196,102.352532 30.7600196,93.8122449 C30.750659,85.2759573 24.0382222,78.3583348 15.755132,78.348688 Z" id="Shape" fill="#3F3D56" fill-rule="nonzero"></path>
                <path d="M80.5764766,56.8285714 C74.2042137,56.8285714 68.4594048,52.8726758 66.0208454,46.8055126 C63.5822859,40.7383493 64.9302084,33.7547423 69.4360788,29.1111366 C73.9419491,24.4675309 80.7184132,23.0784051 86.6056165,25.5915064 C92.4928197,28.1046077 96.3313783,34.0250238 96.3313783,40.592074 C96.3215259,49.5550348 89.2735843,56.8184179 80.5764766,56.8285714 Z M80.5764766,25.1287432 C72.2896271,25.1287432 65.5718083,32.0519122 65.5718083,40.592074 C65.5718083,49.1322358 72.2896271,56.0554049 80.5764766,56.0554049 C88.8633261,56.0554049 95.5811449,49.1322358 95.5811449,40.592074 C95.5717844,32.0559111 88.8594457,25.1383897 80.5764766,25.1287432 L80.5764766,25.1287432 Z" id="Shape" fill="#3F3D56" fill-rule="nonzero"></path>
                <path d="M149.899057,32.4734694 C143.526794,32.4734694 137.781985,28.5175738 135.343426,22.4504105 C132.904867,16.3832473 134.252789,9.3996403 138.758659,4.75603458 C143.26453,0.112428859 150.040994,-1.27669694 155.928197,1.23640436 C161.8154,3.74950567 165.653959,9.6699218 165.653959,16.236972 C165.644107,25.1999328 158.596165,32.4633158 149.899057,32.4734694 Z M149.899057,0.773641135 C141.612208,0.773641135 134.894389,7.69681018 134.894389,16.236972 C134.894389,24.7771338 141.612208,31.7003028 149.899057,31.7003028 C158.185907,31.7003028 164.903726,24.7771338 164.903726,16.236972 C164.894389,7.70080293 158.182032,0.78327282 149.899057,0.773641135 L149.899057,0.773641135 Z" id="Shape" fill="#3F3D56" fill-rule="nonzero"></path>
                <path d="M223.722874,57.7306122 C215.021555,57.7306122 207.967742,50.4611785 207.967742,41.4938776 C207.967742,32.5265766 215.021555,25.2571429 223.722874,25.2571429 C232.424193,25.2571429 239.478006,32.5265766 239.478006,41.4938776 C239.468153,50.4569693 232.420109,57.7204585 223.722874,57.7306122 L223.722874,57.7306122 Z M223.722874,26.0303207 C215.435903,26.0303207 208.717986,32.9535909 208.717986,41.4938776 C208.717986,50.0341642 215.435903,56.9574344 223.722874,56.9574344 C232.009844,56.9574344 238.727761,50.0341642 238.727761,41.4938776 C238.718415,32.9575837 232.00597,26.0399525 223.722874,26.0303207 L223.722874,26.0303207 Z" id="Shape" fill="#3F3D56" fill-rule="nonzero"></path>
                <path d="M291.244868,97.4204082 C282.543549,97.4204082 275.489736,90.1509744 275.489736,81.1836735 C275.489736,72.2163725 282.543549,64.9469388 291.244868,64.9469388 C299.946187,64.9469388 307,72.2163725 307,81.1836735 C306.990147,90.1467653 299.942103,97.4102545 291.244868,97.4204082 Z M291.244868,65.7201166 C282.957897,65.7201166 276.23998,72.6433868 276.23998,81.1836735 C276.23998,89.7239601 282.957897,96.6472303 291.244868,96.6472303 C299.531839,96.6472303 306.249756,89.7239601 306.249756,81.1836735 C306.240409,72.6473797 299.527964,65.7297484 291.244868,65.7201166 L291.244868,65.7201166 Z" id="Shape" fill="#3F3D56" fill-rule="nonzero"></path>
                <path d="M89.0390029,36.1473299 L90.9296188,35.7513557 C90.9296188,35.7513557 89.3415015,37.6124346 89.0390029,37.7312269 L89.0390029,37.7312269 C89.0107798,38.1266496 89.0107798,38.5237269 89.0390029,38.9191496 C85.4090205,55.2332885 72.0234604,48.0265572 72.0234604,48.0265572 C76.9012493,48.1453495 77.3171848,46.046686 77.3171848,46.046686 C74.481261,45.6111143 73.9140762,43.6708405 73.9140762,43.6708405 C74.4409192,43.9618833 75.0924944,43.7912994 75.4265689,43.2748663 C72.3637713,42.4433204 72.7797067,39.3151239 72.7797067,39.3151239 C73.3256188,39.7278778 73.9635887,39.9869325 74.6325103,40.0674749 C74.2921994,39.6319033 71.4184633,36.0285376 73.1578299,34.1674587 C73.1578299,34.1674587 75.2753196,38.1272011 80.8337302,38.4835779 L81.2118534,38.4043831 C81.1475619,38.1191862 81.1221017,37.8259021 81.1362287,37.5332398 C81.1362287,35.2369891 82.9137896,33.3755102 85.106522,33.3755102 C87.7533842,33.3755102 88.3205689,34.9594072 88.3205689,34.9594072 L90.2111848,33.7714844 C90.1733724,33.7714844 89.9843109,35.7513557 89.0390029,36.1473299 Z" id="Path" fill="#73709A" fill-rule="nonzero"></path>
                <polygon id="Path" fill="#FFB8B8" fill-rule="nonzero" points="211.568915 209.843736 215.580408 211.979592 225.073314 196.189062 219.153183 193.036735"></polygon>
                <path d="M210.500275,208.371429 L218.352098,212.609673 L218.352417,212.609844 C219.679511,213.3262 220.693815,214.593753 221.17218,216.13364 C221.650544,217.673528 221.553783,219.359604 220.903182,220.820929 L220.82347,221 L207.967742,214.060693 L210.500275,208.371429 Z" id="Path" fill="#2F2E41" fill-rule="nonzero"></path>
                <polygon id="Path" fill="#FFB8B8" fill-rule="nonzero" points="252.983201 217.391837 257.863314 217.391436 260.184751 198.44898 252.982405 198.44898"></polygon>
                <path d="M252.082111,214.686112 L260.87981,214.685714 L260.880174,214.685714 C262.367144,214.685714 263.793223,215.329912 264.844677,216.476701 C265.89613,217.62349 266.486804,219.178885 266.486804,220.8007 L266.486804,220.999416 L252.082381,221 L252.082111,214.686112 Z" id="Path" fill="#2F2E41" fill-rule="nonzero"></path>
                <ellipse id="Oval" fill="#FFB8B8" fill-rule="nonzero" cx="242.629032" cy="81.1836735" rx="9.45307918" ry="9.92244898"></ellipse>
                <path d="M252.580677,211.979592 C251.664024,211.978455 250.910507,211.230382 250.870493,210.281762 L247.254869,160.431797 C247.246269,160.163217 247.064081,159.93434 246.811188,159.874416 C246.558295,159.814491 246.298165,159.938557 246.177694,160.176553 L223.048329,205.91622 C222.611813,206.769275 221.599414,207.1079 220.763714,206.680373 L214.316008,203.340768 C213.474131,202.902533 213.130383,201.84346 213.54567,200.967393 L227.347082,171.998374 L236.48842,150.298573 C240.01683,143.099282 243.763652,139.389246 247.942922,138.956409 C252.230512,138.512987 256.80932,141.566719 261.943497,148.293119 L261.985337,148.348018 L261.984499,148.417944 L261.222806,209.31246 C261.22537,210.229308 260.550518,210.995871 259.668922,211.077515 L252.748414,211.971314 C252.69216,211.97691 252.636248,211.979592 252.580677,211.979592 Z" id="Path" fill="#2F2E41" fill-rule="nonzero"></path>
                <path d="M233.458373,153.607743 C234.536004,152.957552 235.263772,151.873997 235.445847,150.648643 C235.627923,149.423289 235.245602,148.182008 234.401762,147.258806 L235.876833,109.146939 L228.70765,110.020619 L228.103149,147.097947 C226.577582,148.620384 226.457593,151.017988 227.823852,152.678811 C229.190112,154.339634 231.610766,154.738714 233.458369,153.607743 L233.458373,153.607743 Z" id="Path" fill="#FFB8B8" fill-rule="nonzero"></path>
                <path d="M237.479347,115.449244 L228.46702,114.38007 C227.948144,114.318505 227.480633,114.024205 227.186312,113.573859 C226.891992,113.123513 226.800012,112.561727 226.934343,112.034891 L229.261068,102.912223 C229.58716,100.06251 232.060527,98.0255796 234.791109,98.357981 C237.521692,98.6903824 239.479783,101.266767 239.169078,104.118353 L239.476975,113.522861 C239.494652,114.067729 239.284278,114.593646 238.900672,114.963568 C238.517067,115.333489 237.998225,115.510775 237.479347,115.449228 L237.479347,115.449244 Z" id="Path" fill="#00B0FF" fill-rule="nonzero"></path>
                <path d="M276.63821,91.6044055 C276.591672,91.8178515 276.561336,92.0347939 276.547483,92.2532159 L260.260962,102.056597 L256.302286,99.6787566 L252.082111,105.443324 L258.698086,110.363429 C259.795969,111.179891 261.278588,111.142202 262.337063,110.270925 L279.131273,96.4468887 C280.683105,97.0462527 282.428477,96.581167 283.514838,95.2788089 C284.601198,93.9764508 284.801858,92.1085826 284.018802,90.5875897 C283.235746,89.0665967 281.632373,88.2098637 279.991873,88.4358734 C278.351373,88.6618831 277.016068,89.9234742 276.638206,91.6044055 L276.63821,91.6044055 Z" id="Path" fill="#FFB8B8" fill-rule="nonzero"></path>
                <path d="M260.724725,102.946751 L255.387576,110.241187 C255.08029,110.661155 254.614874,110.919276 254.112608,110.948286 C253.610342,110.977297 253.120977,110.774325 252.772032,110.392261 L246.730023,103.775943 C244.640869,102.058064 244.264715,98.88099 245.889199,96.6741661 C247.513684,94.4673422 250.525628,94.0637551 252.62186,95.7720199 L260.199877,100.240456 C260.638845,100.499482 260.949156,100.947172 261.049948,101.466864 C261.150741,101.986557 261.032031,102.526777 260.724752,102.946751 L260.724725,102.946751 Z" id="Path" fill="#00B0FF" fill-rule="nonzero"></path>
                <path d="M263.75537,151.464009 L253.610683,100.540269 C252.608587,95.5100863 247.925766,92.197288 243.010689,93.0414478 L239.627396,93.6225701 C237.25373,94.030225 235.134435,95.3929601 233.735765,97.4109688 L233.735765,97.4109688 C231.50692,100.6265 230.81097,104.709237 231.84294,108.515092 L237.44261,129.168376 L233.286951,151.295277 C233.192764,151.793193 233.338245,152.307296 233.677381,152.674983 C234.016516,153.04267 234.507362,153.218465 234.994671,153.146768 C237.075197,152.839999 240.504581,152.40213 244.443361,152.163544 L246.577222,143.681135 L247.445116,152.028854 C252.283568,151.889284 257.535894,152.133616 261.868852,153.293664 C262.378483,153.434035 262.922311,153.292749 263.306465,152.920175 C263.690618,152.547601 263.860432,151.996754 263.75537,151.464009 Z" id="Path" fill="#00B0FF" fill-rule="nonzero"></path>
                <path d="M246.870482,78.5912661 C249.263066,80.2792903 252.404586,82.0144798 254.848242,80.216872 C256.452791,79.0365315 256.958335,76.8508138 256.307657,74.9327023 C255.137556,71.483378 251.922724,69.9648278 248.848534,68.8008264 C244.852091,67.287621 240.500548,66.0838033 236.37487,67.1674846 C232.249191,68.2511659 228.603026,72.3688415 229.347793,76.6899899 C229.946713,80.1649675 233.126529,83.0564187 232.675127,86.5550064 C232.220819,90.0760554 228.3795,91.9294396 224.988227,92.5587365 C221.596954,93.1880335 217.802038,93.3902287 215.364867,95.9012551 C212.255805,99.1045242 213.032189,104.830021 215.957689,108.212039 C218.883188,111.594058 223.297927,113.127095 227.575808,114.169272 C233.243738,115.550093 239.374049,116.275772 244.757149,113.984162 C250.140248,111.692553 254.329312,105.523811 252.769915,99.7393261 C252.111228,97.2959689 250.559559,95.231001 249.059954,93.2206843 C247.560349,91.2103676 246.041854,89.1081738 245.469821,86.6417301 C244.993132,84.5863617 245.345953,82.1999804 246.668185,80.6582187 C247.161574,80.1045848 247.252556,79.286225 246.893465,78.6318794 L246.870482,78.5912661 Z" id="Path" fill="#2F2E41" fill-rule="nonzero"></path>
                <path d="M153.837469,7.96787775 C156.01026,7.97469014 157.770042,9.82185011 157.77653,12.1025236 L157.77653,20.3709458 C157.770042,22.6516186 156.010259,24.4987775 153.837469,24.5055877 L145.960185,24.5055877 C143.787394,24.4987775 142.02761,22.6516193 142.02112,20.3709458 L142.02112,12.1025236 C142.027608,9.82184858 143.787393,7.97468799 145.960185,7.96787775 L153.837469,7.96787775 M153.837469,6.31428571 L145.960185,6.31428571 C142.918323,6.32358525 140.454607,8.909628 140.445748,12.1025236 L140.445748,20.3709458 C140.454607,23.5638414 142.918323,26.1498841 145.960185,26.1591837 L153.837469,26.1591837 C156.879331,26.1498841 159.343047,23.5638414 159.351906,20.3709458 L159.351906,12.1025236 C159.343047,8.909628 156.879331,6.32358525 153.837469,6.31428571 L153.837469,6.31428571 Z" id="Shape" fill="#73709A" fill-rule="nonzero"></path>
                <path d="M153.049853,10.3720154 C153.050655,9.62530841 153.655033,9.02040816 154.400293,9.02040816 C155.145554,9.02040816 155.749931,9.62530841 155.750734,10.3720154 C155.751533,11.1187223 155.148455,11.7249231 154.403197,11.7265306 C153.652131,11.7249231 153.049053,11.1187223 153.049853,10.3720154 Z" id="Path" fill="#73709A" fill-rule="nonzero"></path>
                <path d="M153.200089,16.6876826 C153.200089,18.5144098 151.722103,19.9952647 149.898915,19.9952647 C148.075727,19.9952647 146.597741,18.5144098 146.597741,16.6876826 C146.597741,14.8609554 148.075727,13.3801004 149.898915,13.3801004 C151.722103,13.3801004 153.200089,14.8609554 153.200089,16.6876826 Z M145.324277,14.7891202 C144.557868,16.6429746 144.981496,18.7768568 146.397625,20.1957399 C147.813753,21.614623 149.9435,22.0390819 151.793766,21.271192 C153.644031,20.5033021 154.85044,18.6942862 154.85044,16.6876865 C154.85044,13.9477249 152.633568,11.7265306 149.898915,11.7265306 C147.896203,11.7265306 146.090687,12.9352657 145.324277,14.7891202 Z" id="Shape" fill="#73709A" fill-rule="nonzero"></path>
                <polygon id="Path" fill="#FFB8B8" fill-rule="nonzero" points="62.335456 215.587755 57.6187683 214.475615 59.6603079 195.742857 66.6217009 197.384173"></polygon>
                <path d="M62.5191223,220.097959 L47.7155425,216.660659 L47.7596488,216.47612 C48.1196067,214.969998 49.0719088,213.666498 50.4070494,212.852389 C51.74219,212.038279 53.3507955,211.78025 54.8789741,212.135069 L54.8793396,212.135156 L63.9208211,214.234562 L62.5191223,220.097959 Z" id="Path" fill="#2F2E41" fill-rule="nonzero"></path>
                <polygon id="Path" fill="#FFB8B8" fill-rule="nonzero" points="79.2250103 215.587755 74.3448975 215.587755 72.0234604 196.644898 79.2258065 196.645299"></polygon>
                <path d="M80.1258264,221 L65.7214076,220.99942 L65.7214076,220.800703 C65.7214076,219.178885 66.3120847,217.623488 67.3635388,216.476698 C68.4149929,215.329909 69.8410725,214.685714 71.3280416,214.685714 L71.328406,214.685714 L80.1260997,214.686112 L80.1258264,221 Z" id="Path" fill="#2F2E41" fill-rule="nonzero"></path>
                <path d="M104.719336,142.308262 C105.364018,141.25929 105.510133,139.97915 105.118363,138.812299 C104.726593,137.645448 103.837183,136.711748 102.689453,136.262437 L88.7704937,101.028571 L81.026393,105.721229 L97.1433676,138.879382 C96.5009082,140.898425 97.4728053,143.07804 99.4056365,143.952838 C101.338468,144.827635 103.621295,144.121105 104.719336,142.308258 L104.719336,142.308262 Z" id="Path" fill="#FFB8B8" fill-rule="nonzero"></path>
                <path d="M91.542839,106.582482 L82.9283273,109.930242 C82.4323508,110.122978 81.8810281,110.079523 81.4180227,109.811202 C80.9550173,109.542881 80.6261892,109.07627 80.5172245,108.532959 L78.6309963,99.1246819 C77.6795345,96.3778203 79.0246116,93.3406171 81.638367,92.3339964 C84.2521224,91.3273757 87.1489024,92.7309366 88.1150896,95.4721272 L92.5062123,103.873796 C92.7604759,104.360642 92.8002974,104.939568 92.6153001,105.459716 C92.4303028,105.979864 92.0388105,106.389714 91.542839,106.582466 L91.542839,106.582482 Z" id="Path" fill="#00B0FF" fill-rule="nonzero"></path>
                <path d="M79.6254266,209.273469 C79.6021685,209.273469 79.5788131,209.273469 79.5553606,209.272318 L72.7974693,208.999119 C71.8471884,208.96612 71.0991162,208.168476 71.1176332,207.207967 L71.6361191,169.487921 C71.640619,169.17274 71.3988723,168.909774 71.0874401,168.891081 C70.7760079,168.872388 70.5051463,169.104586 70.4726806,169.418087 L66.5523668,207.179575 C66.4685852,207.969578 65.8750087,208.606889 65.0996339,208.739346 L65.0761839,208.743184 L58.7319614,208.239374 C58.2258925,208.317309 57.7114253,208.167431 57.3241144,207.829231 C56.9368035,207.491031 56.7154968,206.998431 56.7184751,206.481223 L57.0978041,142.522449 L88.228739,144.513124 L81.3648872,207.698347 C81.264956,208.593438 80.5169549,209.27077 79.6254266,209.273469 Z" id="Path" fill="#2F2E41" fill-rule="nonzero"></path>
                <ellipse id="Oval" fill="#FFB8B8" fill-rule="nonzero" cx="73.3739003" cy="77.5755102" rx="9.45307918" ry="9.92244898"></ellipse>
                <path d="M86.383775,147.032653 C86.3411502,147.032653 86.298339,147.031128 86.2553413,147.028084 L58.2951485,144.917959 C57.3924754,144.850113 56.6995511,144.064759 56.7188693,143.131419 L57.456078,106.915566 C57.3214893,100.861189 60.4448727,95.2267428 65.5716545,92.2754245 C70.6984362,89.3241061 76.9873717,89.5401919 81.9123754,92.8368863 C86.8373792,96.1335806 89.590316,101.969935 89.0654099,108.001652 C88.5764897,113.58322 88.1875871,137.967082 88.0800034,145.3074 C88.0657277,146.263561 87.3108681,147.031337 86.383775,147.032653 L86.383775,147.032653 Z" id="Path" fill="#00B0FF" fill-rule="nonzero"></path>
                <path d="M35.7635537,87.996245 C35.8100914,88.2096911 35.8404274,88.4266333 35.8542798,88.6450552 L52.1408056,98.4484326 L56.0994738,96.0705973 L60.3196481,101.835167 L53.7036732,106.755266 C52.6057902,107.571727 51.1231712,107.534039 50.0646963,106.662762 L33.2704868,92.8387226 C31.7186545,93.4380864 29.9732828,92.9730008 28.8869219,91.6706432 C27.8005611,90.3682856 27.5999014,88.500418 28.3829577,86.9794256 C29.166014,85.4584332 30.7693865,84.6017005 32.4098863,84.8277101 C34.0503861,85.0537197 35.3856911,86.3153104 35.7635537,87.9962411 L35.7635537,87.996245 Z" id="Path" fill="#FFB8B8" fill-rule="nonzero"></path>
                <path d="M53.1525656,97.8568689 C53.2531751,97.3370272 53.5636023,96.8892186 54.0027936,96.6303676 L61.5824296,92.1611267 C63.6792352,90.4557794 66.689193,90.8606103 68.3129367,93.0663611 C69.9366804,95.2721119 69.5621683,98.4473634 67.4754975,100.166478 L61.432198,106.783998 C61.0831785,107.166131 60.5937081,107.369139 60.0913351,107.340122 C59.5889621,107.311106 59.1234468,107.052938 58.8160951,106.632893 L53.4778059,99.3371363 C53.1702024,98.917172 53.0514495,98.3766913 53.1525656,97.8568689 L53.1525656,97.8568689 Z" id="Path" fill="#00B0FF" fill-rule="nonzero"></path>
                <path d="M78.9364954,85.6938776 C76.0464676,85.6709281 73.369678,84.0644458 71.8469871,81.4390905 C71.7656246,81.3028641 71.3209804,80.6048603 70.8060887,79.7969131 C69.3592056,77.52623 69.0199816,76.9860401 68.9912221,76.9067412 C68.5996623,75.8271453 67.3569018,75.4102252 66.3833246,75.2504455 C66.2016837,75.220609 66.0174701,75.194306 65.8326132,75.1676131 C64.4614016,74.9713196 63.0435488,74.7683569 62.2661916,73.157604 C61.6959211,71.9755459 60.7633805,67.162121 61.4795701,65.9859522 C62.3774119,64.5106377 64.1015164,64.9895867 65.7688841,65.4532234 C66.8357737,65.7492254 67.9387499,66.0558241 68.8177509,65.8603266 C72.6277107,65.0131399 76.9460475,64.0528903 80.7596784,66.535171 C83.7949553,68.5102421 85.6206396,72.2405374 85.5242204,76.2703683 C85.420726,80.5977771 83.6548138,84.0136145 80.8003615,85.4080583 L80.2061234,85.5929791 L79.8718607,85.6369461 C79.5613291,85.6747948 79.2490398,85.6938776 78.9364954,85.6938776 L78.9364954,85.6938776 Z" id="Path" fill="#2F2E41" fill-rule="nonzero"></path>
                <path d="M291.247616,70.3591837 C286.346768,70.3596227 282.117213,73.950408 281.112489,78.9636518 C280.107764,83.9768955 282.602993,89.0398219 287.091714,91.0957579 C287.048214,90.2632976 287.108822,89.4284633 287.272004,88.6123931 C287.470785,87.7330708 288.603373,82.7131948 288.603373,82.7131948 C288.377161,82.1743596 288.263681,81.5912405 288.270529,81.0028634 C288.270529,79.3988444 289.158109,78.2006242 290.267582,78.2006242 C291.210635,78.2006242 291.663672,78.9398364 291.663672,79.823992 C291.663672,80.8144364 291.058081,82.2928609 290.748356,83.6649926 C290.623205,84.1804997 290.740003,84.7274864 291.062987,85.1384712 C291.38597,85.5494561 291.876666,85.775483 292.384829,85.7473448 C294.3449,85.7473448 295.667024,83.1141917 295.667024,79.9930898 C295.667024,77.620855 294.136874,75.8477107 291.358568,75.8477107 C288.219682,75.8477107 286.25961,78.2972543 286.25961,81.0318513 C286.228781,81.8029639 286.472543,82.5586474 286.943785,83.1528579 C287.113415,83.2991901 287.173201,83.5432704 287.091714,83.7567895 C287.040863,83.9548792 286.929915,84.4331928 286.879064,84.6264491 C286.861111,84.7450114 286.789498,84.8472232 286.686769,84.9009057 C286.584041,84.9545882 286.462834,84.9531375 286.361309,84.8970104 C284.914371,84.2785869 284.239442,82.6262312 284.239442,80.76129 C284.239442,77.6884894 286.721889,74.0020947 291.640557,74.0020947 C295.593057,74.0020947 298.195701,76.9927609 298.195701,80.2008421 C298.195701,84.4476887 295.935146,87.6171154 292.606725,87.6171154 C291.488007,87.6171154 290.438631,86.9841959 290.078051,86.2691422 C290.078051,86.2691422 289.477084,88.7621696 289.347645,89.2453126 C289.108547,90.0662381 288.758287,90.8471842 288.307514,91.5644089 C292.197343,92.7651641 296.399827,91.4823429 299.0598,88.282241 C301.719772,85.0821392 302.347629,80.5537776 300.666205,76.6961818 C298.984782,72.8385861 295.303567,70.3617975 291.247616,70.3591837 L291.247616,70.3591837 Z" id="Path" fill="#73709A" fill-rule="nonzero"></path>
                <path d="M233.094361,34.2495929 L219.430078,29.8544156 C219.080568,29.7222729 218.695104,29.7411555 218.358942,29.9068868 C218.022781,30.0726181 217.763625,30.3715407 217.638793,30.7375395 L213.425558,45.0552412 C213.209824,45.8613949 213.634648,46.7032039 214.392904,46.9720821 L228.053156,51.3659648 C228.810223,51.5759334 229.588052,51.1104437 229.798277,50.3216013 L234.011512,36.0038996 C234.123768,35.6440725 234.088971,35.2517574 233.915344,34.9196468 C233.741716,34.5875362 233.44466,34.3450907 233.094361,34.2495929 L233.094361,34.2495929 Z M218.907533,45.3052913 L216.561996,44.5508381 L218.805673,36.9262183 L221.151214,37.6806716 L218.907533,45.3052913 Z M220.400695,36.170277 L220.383881,36.164869 C219.682667,35.9340315 219.292175,35.1536592 219.510654,34.4197835 C219.729133,33.6859078 220.474253,33.2750785 221.176908,33.5010779 C221.879562,33.7270773 222.274967,34.5047413 222.06112,35.2401068 C221.847273,35.9754724 221.10476,36.3914285 220.400695,36.170277 L220.400695,36.170277 Z M227.47981,48.0626172 L225.134269,47.308164 L226.361069,43.1391706 C226.654995,42.1403858 226.514451,41.3481775 225.665848,41.0752211 C225.120566,40.9047616 224.531749,41.1124981 224.196744,41.5935253 C224.077276,41.7671838 223.989682,41.9625206 223.938413,42.1696075 L222.660454,46.5124471 L220.314916,45.7579939 L222.558594,38.1333741 L224.904135,38.8878274 L224.591894,39.9488948 C225.258447,39.3021229 226.209681,39.0876741 227.071939,39.3897866 C228.611632,39.8850152 229.464126,41.3207423 228.790965,43.608319 L227.47981,48.0626172 Z" id="Shape" fill="#73709A" fill-rule="nonzero"></path>
                <path d="M26.1085044,93.8767655 C26.1074956,88.0834574 21.7951753,83.3049408 16.2954209,83.0028093 C10.7956665,82.7006777 6.0336423,86.9806909 5.45899454,92.742375 C4.88434678,98.5040592 8.69822831,103.730563 14.1378346,104.635767 L14.1378346,97.0258479 L11.5084466,97.0258479 L11.5084466,93.8767655 L14.1378346,93.8767655 L14.1378346,91.4769061 C14.1378346,88.7478864 15.6838558,87.2392304 18.0484061,87.2392304 C18.8249354,87.2506089 19.5996306,87.3217828 20.3662784,87.4521812 L20.3662784,90.1325783 L19.0601326,90.1325783 C17.7747863,90.1325783 17.3726824,90.9717479 17.3726824,91.834249 L17.3726824,93.8772375 L20.2437973,93.8772375 L19.7853058,97.0263199 L17.3726824,97.0263199 L17.3726824,104.636735 C22.4040624,103.798466 26.1085044,99.2354432 26.1085044,93.8767496 L26.1085044,93.8767655 Z" id="Path" fill="#73709A"></path>
            </g>
        </g>
        <text id="APRENDE-NUEVAS-HABIL" font-family="OpenSans-ExtraBold, Open Sans" font-size="29" font-weight="600" fill="#A2945F">
            <tspan x="197" y="206">APRENDE NUEVAS </tspan>
            <tspan x="197" y="245.63">HABILIDADES CON</tspan>
            <tspan x="197" y="285.26">IT SKILLS</tspan>
        </text>
    </g>
</svg>