<?xml version="1.0" encoding="UTF-8"?>
<svg width="320px" height="450px" viewBox="0 0 320 450" version="1.1" xmlns="http://www.w3.org/2000/svg" xmlns:xlink="http://www.w3.org/1999/xlink">
    <title>Artboard</title>
    <g id="Artboard" stroke="none" stroke-width="1" fill="none" fill-rule="evenodd">
        <g id="undraw_Social_media_re_w12q-Copy-2" transform="translate(49.000000, 138.000000)">
            <path d="M128.286689,152.596565 C126.650088,153.761466 124.875838,154.722752 123.003642,155.458913 C122.513267,155.653705 122.020098,155.834969 121.51868,156 L95.9265549,156 C95.8230526,155.821441 95.7222095,155.640177 95.6187072,155.458913 C93.5425255,151.768702 91.6597798,147.935103 91.1257681,143.766029 C90.4854614,138.760977 92.281066,133.093094 96.7194586,130.633855 C97.3008251,130.311996 97.9168002,130.056077 98.5557715,129.870923 C98.8201182,129.78976 99.0897941,129.724829 99.3622546,129.668015 C102.749769,128.921476 106.279265,130.049193 108.592665,132.617244 C110.906064,135.185295 111.642867,138.793498 110.519567,142.05349 C114.282263,138.222596 113.579298,132.010921 112.282313,126.819194 C110.982676,121.627467 109.407906,115.848661 112.053487,111.184493 C113.522087,108.589982 116.107666,106.980249 119.006679,106.330945 C119.096613,106.312024 119.186546,106.293083 119.27369,106.276837 C122.730017,105.581688 126.323229,106.206772 129.335706,108.027252 C134.882964,111.495618 137.730097,118.077938 138.653773,124.522281 C140.14417,134.894913 136.847377,146.468758 128.286689,152.596565 Z" id="Path" fill="#F2F2F2" fill-rule="nonzero"></path>
            <path d="M101.108826,132.389911 C102.8547,136.625189 103.411572,141.420037 102.696849,146.06329 C102.157597,149.467848 100.96909,152.678181 99.2235489,155.445186 C99.1051966,155.633823 98.9844623,155.819686 98.8613598,156 L98,156 C98.1324126,155.819686 98.2623293,155.633823 98.3854434,155.445186 C101.59214,150.672163 102.938826,144.489264 102.086259,138.454022 C101.586139,135.097382 100.429468,131.929371 98.7104709,129.208055 C98.9357293,129.124833 99.165529,129.058255 99.3977014,129 C100.051497,130.066776 100.624152,131.201263 101.108826,132.389911 Z" id="Path" fill="#FFFFFF" fill-rule="nonzero"></path>
            <path d="M126.802582,135.859871 C126.576925,138.160073 126.005897,140.416152 125.107515,142.556926 C124.27932,144.451391 123.163112,146.215418 121.795893,147.790531 C119.004498,151.041133 115.310595,153.486564 111.299064,155.113225 C111.006692,155.232912 110.71153,155.34716 110.413577,155.455966 C109.896231,155.651818 109.373392,155.83135 108.847674,156 L106,156 C106.671907,155.83679 107.340923,155.654539 108.001579,155.455966 C109.572348,154.982999 111.104859,154.398385 112.586598,153.706898 C116.352941,151.979484 119.623391,149.383725 122.110773,146.147549 C124.778494,142.584128 125.956491,138.299862 126.158818,133.944872 C126.372537,129.285224 125.745654,124.541249 124.646445,120.006728 C123.524748,115.358946 121.818801,110.861647 119.56673,106.615338 C119.462038,106.415704 119.537423,106.171701 119.738171,106.060423 C119.819264,106.008468 119.918018,105.988966 120.013665,106.00602 C120.108519,106.029595 120.187125,106.093667 120.227249,106.180111 C120.505618,106.705117 120.778362,107.230096 121.03971,107.760529 C123.222715,112.182871 124.830802,116.849993 125.827194,121.65515 C126.791329,126.290318 127.308538,131.140379 126.802582,135.859871 Z" id="Path" fill="#FFFFFF" fill-rule="nonzero"></path>
            <path d="M11.5,78 C5.14872538,78 0,72.8512746 0,66.5 C0,60.1487254 5.14872538,55 11.5,55 C17.8512746,55 23,60.1487254 23,66.5 C22.9928084,72.8482934 17.8482934,77.9928084 11.5,78 L11.5,78 Z M11.5,55.547619 C5.45116703,55.547619 0.547619048,60.451167 0.547619048,66.5 C0.547619048,72.548833 5.45116703,77.452381 11.5,77.452381 C17.548833,77.452381 22.452381,72.548833 22.452381,66.5 C22.4455485,60.4539994 17.5460006,55.5544515 11.5,55.547619 Z" id="Shape" fill="#3F3D56" fill-rule="nonzero"></path>
            <path d="M57.5001681,40 C52.8489202,40 48.6556642,37.1981559 46.8757087,32.9009632 C45.0957532,28.6037705 46.07963,23.6574878 49.3685589,20.3685589 C52.6574878,17.07963 57.6037705,16.0957532 61.9009632,17.8757087 C66.1981559,19.6556642 69,23.8489202 69,28.5001681 C68.9928085,34.8483687 63.8483687,39.9928085 57.5001681,40 Z M57.5001681,17.5479472 C51.4514235,17.5479472 46.5479472,22.4514235 46.5479472,28.5001681 C46.5479472,34.5489126 51.4514235,39.452389 57.5001681,39.452389 C63.5489126,39.452389 68.452389,34.5489126 68.452389,28.5001681 C68.4455566,22.4542558 63.5460803,17.5547796 57.5001681,17.5479472 L57.5001681,17.5479472 Z" id="Shape" fill="#3F3D56" fill-rule="nonzero"></path>
            <path d="M107.500168,23 C102.84892,23 98.6556642,20.1981559 96.8757087,15.9009632 C95.0957532,11.6037705 96.07963,6.65748782 99.3685589,3.36855893 C102.657488,0.0796300428 107.603771,-0.904246765 111.900963,0.875708722 C116.198156,2.65566421 119,6.84892023 119,11.5001681 C118.992809,17.8483687 113.848369,22.9928085 107.500168,23 Z M107.500168,0.547947184 C101.451423,0.547947184 96.5479472,5.4514235 96.5479472,11.5001681 C96.5479472,17.5489126 101.451423,22.452389 107.500168,22.452389 C113.548913,22.452389 118.452389,17.5489126 118.452389,11.5001681 C118.445567,5.45425145 113.546085,0.554769022 107.500168,0.547947184 L107.500168,0.547947184 Z" id="Shape" fill="#3F3D56" fill-rule="nonzero"></path>
            <path d="M161.5,41 C155.148725,41 150,35.8512746 150,29.5 C150,23.1487254 155.148725,18 161.5,18 C167.851275,18 173,23.1487254 173,29.5 C172.992808,35.8482934 167.848293,40.9928084 161.5,41 L161.5,41 Z M161.5,18.547619 C155.451167,18.547619 150.547619,23.451167 150.547619,29.5 C150.547619,35.548833 155.451167,40.452381 161.5,40.452381 C167.548833,40.452381 172.452381,35.548833 172.452381,29.5 C172.445559,23.453995 167.546005,18.554441 161.5,18.547619 L161.5,18.547619 Z" id="Shape" fill="#3F3D56" fill-rule="nonzero"></path>
            <path d="M209.5,69 C203.148725,69 198,63.8512746 198,57.5 C198,51.1487254 203.148725,46 209.5,46 C215.851275,46 221,51.1487254 221,57.5 C220.992808,63.8482934 215.848293,68.9928084 209.5,69 Z M209.5,46.547619 C203.451167,46.547619 198.547619,51.451167 198.547619,57.5 C198.547619,63.548833 203.451167,68.452381 209.5,68.452381 C215.548833,68.452381 220.452381,63.548833 220.452381,57.5 C220.445559,51.453995 215.546005,46.554441 209.5,46.547619 L209.5,46.547619 Z" id="Shape" fill="#3F3D56" fill-rule="nonzero"></path>
            <path d="M63.1727273,24.5485545 L64.5909091,24.2559039 C64.5909091,24.2559039 63.3996364,25.6313619 63.1727273,25.7191571 L63.1727273,25.7191571 C63.1515567,26.0114002 63.1515567,26.304866 63.1727273,26.5971091 C60.4498182,38.6543158 50.4090909,33.328074 50.4090909,33.328074 C54.068,33.4158692 54.38,31.8648207 54.38,31.8648207 C52.2527273,31.542905 51.8272727,30.1089168 51.8272727,30.1089168 C52.2224662,30.3240163 52.7112234,30.1979437 52.9618182,29.8162662 C50.6643636,29.2016998 50.9763636,26.8897597 50.9763636,26.8897597 C51.3858612,27.1948117 51.8644128,27.3862698 52.3661818,27.4457959 C52.1109091,27.1238802 49.9552727,24.4607593 51.26,23.0853013 C51.26,23.0853013 52.8483636,26.0118078 57.0178182,26.2751934 L57.3014545,26.2166632 C57.2532285,26.0058842 57.2341304,25.7891283 57.2447273,25.5728318 C57.2447273,23.8757537 58.5781047,22.5 60.2229091,22.5 C62.2083636,22.5 62.6338182,23.6706026 62.6338182,23.6706026 L64.052,22.7926506 C64.0236364,22.7926506 63.8818182,24.2559039 63.1727273,24.5485545 Z" id="Path" fill="#3F3D56" fill-rule="nonzero"></path>
            <polygon id="Path" fill="#FFB8B8" fill-rule="nonzero" points="152 148.534217 154.970508 150 162 139.163362 157.616146 137"></polygon>
            <path d="M150.87534,147 L156.68961,150.020468 L156.689846,150.02059 C157.672559,150.531115 158.42365,151.434462 158.777879,152.531893 C159.132108,153.629324 159.060456,154.830939 158.578687,155.872381 L158.51966,156 L149,151.054567 L150.87534,147 Z" id="Path" fill="#2F2E41" fill-rule="nonzero"></path>
            <polygon id="Path" fill="#FFB8B8" fill-rule="nonzero" points="182.000553 154 185.388416 153.999725 187 141 182 141"></polygon>
            <path d="M182,152.000252 L188.107523,152 L188.107775,152 C189.140057,152 190.130068,152.408089 190.860006,153.134562 C191.589944,153.861034 192,154.846352 192,155.873747 L192,155.99963 L182.000187,156 L182,152.000252 Z" id="Path" fill="#2F2E41" fill-rule="nonzero"></path>
            <circle id="Oval" fill="#FFB8B8" fill-rule="nonzero" cx="174.5" cy="56.5" r="6.5"></circle>
            <path d="M181.229303,150 C180.569376,149.999206 180.026897,149.477047 179.99809,148.814905 L177.395094,114.019346 C177.388902,113.831875 177.257739,113.672118 177.075674,113.63029 C176.893609,113.588462 176.706333,113.675061 176.619603,113.841184 L159.968079,145.767732 C159.653818,146.363169 158.924961,146.599531 158.323316,146.301115 L153.681419,143.970052 C153.075326,143.664161 152.827851,142.924923 153.126829,142.313422 L163.06288,122.092882 L169.644004,106.946297 C172.184212,101.921151 174.881662,99.331525 177.890444,99.0294022 C180.977208,98.7198913 184.27363,100.851414 187.969878,105.546479 L188,105.584799 L187.999397,105.633608 L187.451031,148.138327 C187.452877,148.778292 186.967031,149.313357 186.332343,149.370345 L181.350061,149.994222 C181.309563,149.998128 181.26931,150 181.229303,150 Z" id="Path" fill="#2F2E41" fill-rule="nonzero"></path>
            <path d="M167.388219,108.545041 C168.106405,108.083729 168.591426,107.314944 168.71277,106.445553 C168.834114,105.576162 168.579317,104.69547 168.016939,104.040456 L169,77 L164.222102,77.6198784 L163.819232,103.926326 C162.802519,105.006498 162.722552,106.707604 163.633095,107.885962 C164.543638,109.06432 166.156882,109.347468 167.388216,108.545041 L167.388219,108.545041 Z" id="Path" fill="#FFB8B8" fill-rule="nonzero"></path>
            <path d="M169.572851,81.9916116 L163.137572,81.2430116 C162.767067,81.1999057 162.43324,80.9938468 162.223079,80.6785295 C162.012918,80.3632122 161.94724,79.9698685 162.043159,79.6009956 L163.704564,73.2136071 C163.937411,71.2183329 165.703526,69.7921419 167.653307,70.0248783 C169.603088,70.2576147 171.001269,72.0615132 170.779409,74.0580988 L170.999264,80.6428224 C171.011886,81.0243212 170.861668,81.3925507 170.587753,81.6515574 C170.313838,81.9105642 169.943358,82.0346939 169.572851,81.9916007 L169.572851,81.9916116 Z" id="Path" fill="#00B0FF" fill-rule="nonzero"></path>
            <path d="M200.183777,66.1314371 C200.149316,66.2734125 200.126852,66.4177136 200.116595,66.5629988 L188.056434,73.0837996 L185.125037,71.5021594 L182,75.3365097 L186.899126,78.6091587 C187.712108,79.1522349 188.809986,79.1271661 189.593786,78.5476292 L202.029889,69.3524554 C203.17902,69.7511274 204.471467,69.4417717 205.275917,68.5754973 C206.080366,67.7092229 206.228955,66.4667947 205.649102,65.4550936 C205.069249,64.4433924 203.881953,63.8735293 202.667163,64.0238615 C201.452374,64.1741937 200.463582,65.0133516 200.183775,66.1314371 L200.183777,66.1314371 Z" id="Path" fill="#FFB8B8" fill-rule="nonzero"></path>
            <path d="M187.733184,73.5772986 L183.781028,78.5191048 C183.553483,78.8036232 183.208842,78.9784936 182.836915,78.9981477 C182.464987,79.0178019 182.102612,78.8802929 181.844219,78.6214536 L177.370115,74.1390562 C175.823097,72.9752343 175.544556,70.8228426 176.747485,69.3277721 C177.950415,67.8327017 180.180758,67.5592811 181.733017,68.7165896 L187.344534,71.7438483 C187.66959,71.9193324 187.899375,72.2226314 187.974012,72.5747108 C188.048648,72.9267901 187.960744,73.292776 187.733204,73.5772986 L187.733184,73.5772986 Z" id="Path" fill="#00B0FF" fill-rule="nonzero"></path>
            <path d="M189.977375,107.691474 L182.46524,72.3024492 C181.723189,68.8067663 178.255562,66.504565 174.61595,67.0912067 L172.110623,67.4950528 C170.352925,67.7783491 168.783588,68.7253704 167.747874,70.1277686 L167.747874,70.1277686 C166.097415,72.3623746 165.582065,75.1996384 166.346238,77.8444858 L170.49279,92.1973112 L167.415527,107.574215 C167.345782,107.920237 167.45351,108.277509 167.70464,108.53303 C167.95577,108.788551 168.319241,108.910719 168.680093,108.860893 C170.220721,108.647707 172.760178,108.343413 175.676843,108.17761 L177.256966,102.282831 L177.899641,108.084008 C181.482512,107.987015 185.371856,108.156812 188.580409,108.962977 C188.957791,109.060527 189.360495,108.962341 189.644961,108.703424 C189.929426,108.444507 190.055174,108.061701 189.977375,107.691474 Z" id="Path" fill="#00B0FF" fill-rule="nonzero"></path>
            <path d="M177.032225,55.2645589 C178.748566,56.4428095 181.002164,57.6539817 182.755142,56.3992412 C183.906179,55.5753567 184.268835,54.0497133 183.802066,52.7108606 C182.962684,50.3032126 180.656495,49.2432559 178.451198,48.4307763 C175.584314,47.3745503 172.462697,46.5342786 169.503105,47.2906944 C166.543513,48.0471101 163.927903,50.9212711 164.462169,53.9374573 C164.89181,56.3630115 167.172879,58.3812609 166.849062,60.8232951 C166.523159,63.2810073 163.767556,64.5746801 161.334796,65.0139329 C158.902036,65.4531858 156.179719,65.5943192 154.431393,67.3470299 C152.20108,69.58293 152.758026,73.5793594 154.856659,75.9400275 C156.955292,78.3006956 160.122244,79.3707644 163.19102,80.09821 C167.256959,81.0620306 171.654592,81.5685586 175.516206,79.9690023 C179.37782,78.369446 182.382883,74.0636287 181.264235,70.0260253 C180.791721,68.3205481 179.678617,66.8791888 178.602862,65.4759762 C177.527107,64.0727637 176.437801,62.6054204 176.027448,60.8838287 C175.685491,59.4491699 175.93859,57.7834621 176.887105,56.7073037 C177.241042,56.320864 177.306309,55.7496442 177.048712,55.2929072 L177.032225,55.2645589 Z" id="Path" fill="#2F2E41" fill-rule="nonzero"></path>
            <path d="M110.208236,6.08323543 C111.702262,6.08769809 112.9123,7.29773603 112.916761,8.79176008 L112.916761,14.2082399 C112.9123,15.7022635 111.702261,16.9123008 110.208236,16.916762 L104.791764,16.916762 C103.297738,16.9123008 102.087699,15.702264 102.083236,14.2082399 L102.083236,8.79176008 C102.087698,7.29773504 103.297737,6.08769668 104.791764,6.08323543 L110.208236,6.08323543 M110.208236,5 L104.791764,5 C102.700159,5.00609194 101.006092,6.70015738 101,8.79176008 L101,14.2082399 C101.006092,16.2998426 102.700159,17.9939081 104.791764,18 L110.208236,18 C112.299841,17.9939081 113.993908,16.2998426 114,14.2082399 L114,8.79176008 C113.993908,6.70015738 112.299841,5.00609194 110.208236,5 L110.208236,5 Z" id="Shape" fill="#3F3D56" fill-rule="nonzero"></path>
            <path d="M110.99785,9 C110.445986,8.99881193 109.999407,8.55079026 110,7.99892539 C110.000594,7.44706051 110.448135,7 111,7 C111.551865,7 111.999406,7.44706051 112,7.99892539 C112.000593,8.55079026 111.554014,8.99881193 111.00215,9 C111.000716,9 110.999282,9 110.99785,9 Z" id="Path" fill="#3F3D56" fill-rule="nonzero"></path>
            <path d="M107.500062,9.16654556 C108.788765,9.16654556 109.833465,10.2112458 109.833465,11.4999488 C109.833465,12.7886519 108.788765,13.8333521 107.500062,13.8333521 C106.211359,13.8333521 105.166659,12.7886519 105.166659,11.4999488 C105.166659,10.2112458 106.211359,9.16654556 107.500062,9.16654556 M107.500062,8 C106.084464,8 104.808253,8.85272756 104.266523,10.1605681 C103.724794,11.4684087 104.024232,12.9738007 105.025209,13.9747815 C106.026186,14.9757624 107.531576,15.2752059 108.839419,14.7334818 C110.147262,14.1917577 111,12.9155495 111,11.4999516 C111,9.56698818 109.433026,8 107.500062,8 L107.500062,8 Z" id="Shape" fill="#3F3D56" fill-rule="nonzero"></path>
            <polygon id="Path" fill="#FFB8B8" fill-rule="nonzero" points="44.1434342 152 41 151.271459 42.360583 139 47 140.075194"></polygon>
            <path d="M44.9620428,155 L34,152.88301 L34.0326607,152.769355 C34.2992093,151.841754 35.0043885,151.038944 35.9930594,150.537544 C36.9817302,150.036144 38.1729018,149.877228 39.3045172,150.095756 L39.3047878,150.09581 L46,151.388808 L44.9620428,155 Z" id="Path" fill="#2F2E41" fill-rule="nonzero"></path>
            <polygon id="Path" fill="#FFB8B8" fill-rule="nonzero" points="56.9994473 152 53.611584 152 52 139 57 139.000275"></polygon>
            <path d="M57.9998103,156 L48,155.999632 L48,155.873749 C48,154.846353 48.4100588,153.861033 49.1399974,153.13456 C49.869936,152.408087 50.8599465,152 51.8922276,152 L51.8924806,152 L58,152.000252 L57.9998103,156 Z" id="Path" fill="#2F2E41" fill-rule="nonzero"></path>
            <path d="M75.5699107,101.554982 C76.0207761,100.80395 76.1229628,99.8874096 75.8489745,99.0519804 C75.5749863,98.2165512 74.9529677,97.5480508 74.1502906,97.2263583 L64.4159189,72 L59,75.3597974 L70.2715771,99.10001 C69.8222663,100.545582 70.5019728,102.10612 71.8537188,102.732447 C73.2054648,103.358775 74.8019841,102.852921 75.5699107,101.554979 L75.5699107,101.554982 Z" id="Path" fill="#FFB8B8" fill-rule="nonzero"></path>
            <path d="M66.1757086,75.6942302 L60.1953575,77.9210208 C59.8510416,78.0492204 59.4683033,78.0203163 59.1468765,77.8418403 C58.8254497,77.6633642 58.5971713,77.3529941 58.521526,76.991606 L57.2120719,70.733612 C56.5515498,68.9065139 57.4853269,66.8862928 59.2998435,66.2167306 C61.1143602,65.5471685 63.1253578,66.4807587 63.7961025,68.3040846 L66.8445,73.8925251 C67.0210144,74.216355 67.0486593,74.6014323 66.9202307,74.9474131 C66.7918022,75.2933938 66.5200212,75.5660089 66.1757086,75.6942197 L66.1757086,75.6942302 Z" id="Path" fill="#00B0FF" fill-rule="nonzero"></path>
            <path d="M57.7202626,148 C57.703286,148 57.6862384,148 57.6691199,147.999189 L52.7363938,147.806827 C52.0427639,147.783593 51.4967304,147.221964 51.5102463,146.545661 L51.8887001,119.986634 C51.8919846,119.764712 51.7155287,119.579556 51.4882078,119.566394 C51.2608869,119.553232 51.0631794,119.716724 51.039482,119.937463 L48.177963,146.52567 C48.1168091,147.081918 47.6835452,147.530655 47.1175829,147.623919 L47.1004663,147.626622 L42.4696857,147.271884 C42.1002955,147.326759 41.7247751,147.221229 41.4420688,146.983099 C41.1593625,146.744969 40.9978261,146.398125 41,146.033954 L41.2768802,101 L64,102.401653 L58.9899312,146.890942 C58.9169893,147.521184 58.3710076,147.9981 57.7202626,148 Z" id="Path" fill="#2F2E41" fill-rule="nonzero"></path>
            <circle id="Oval" fill="#FFB8B8" fill-rule="nonzero" cx="53.5" cy="54.5" r="6.5"></circle>
            <path d="M61.9671385,105 C61.9355748,105 61.9038731,104.998926 61.8720334,104.996784 L41.1675258,103.511528 C40.4990969,103.463773 39.9859868,102.910985 40.0002919,102.254033 L40.5461946,76.7627341 C40.4465317,72.5012316 42.7593954,68.535307 46.5557745,66.4579588 C50.3521537,64.3806105 55.0091069,64.5327071 58.6560695,66.8531556 C62.3030322,69.1736041 64.3415804,73.2816463 63.9528877,77.5271991 C63.5908425,81.4559046 63.3028603,98.6190048 63.2231947,103.785644 C63.2126235,104.458658 62.6536504,104.999074 61.9671385,105 L61.9671385,105 Z" id="Path" fill="#00B0FF" fill-rule="nonzero"></path>
            <path d="M24.8162254,63.131439 C24.8506866,63.2734144 24.8731504,63.4177154 24.8834081,63.5630005 L36.9435716,70.083799 L39.8749633,68.502162 L43,72.3365136 L38.1008742,75.6091588 C37.2878924,76.1522348 36.1900138,76.127166 35.4062137,75.5476293 L22.9701107,66.3524535 C21.8209798,66.7511254 20.528533,66.4417698 19.7240834,65.5754957 C18.9196337,64.7092216 18.7710453,63.4667939 19.3508981,62.4550931 C19.9307509,61.4433922 21.1180474,60.8735293 22.3328366,61.0238615 C23.5476257,61.1741937 24.5364184,62.0133512 24.8162254,63.1314364 L24.8162254,63.131439 Z" id="Path" fill="#FFB8B8" fill-rule="nonzero"></path>
            <path d="M37.0261126,69.5734695 C37.1006139,69.2212892 37.3304851,68.9179095 37.655706,68.7425442 L43.2684223,65.7147402 C44.8211058,64.5594081 47.0499779,64.8336714 48.2523592,66.3280149 C49.4547406,67.8223584 49.1774145,69.9735154 47.6322359,71.1381747 L43.1571759,75.6213863 C42.8987272,75.8802722 42.5362746,76.0178055 42.1642677,75.9981473 C41.7922608,75.9784891 41.4475469,75.8035865 41.2199531,75.5190163 L37.2669529,70.5763153 C37.0391727,70.2917996 36.9512362,69.9256368 37.0261126,69.5734695 L37.0261126,69.5734695 Z" id="Path" fill="#00B0FF" fill-rule="nonzero"></path>
            <path d="M57.3902598,60 C55.3690883,59.9845138 53.4970471,58.9004621 52.4321371,57.1288767 C52.3752354,57.0369514 52.0642687,56.5659396 51.7041737,56.0207381 C50.6922807,54.4884849 50.4550408,54.1239657 50.4349275,54.0704549 C50.161086,53.3419454 49.2919483,53.0606084 48.6110668,52.9527893 C48.4840343,52.9326557 48.3552026,52.9149065 48.225921,52.8968941 C47.2669496,52.7644356 46.2753592,52.6274767 45.7317062,51.5405434 C45.3328814,50.7428925 44.6806994,47.4948013 45.1815742,46.7011245 C45.8094893,45.7055847 47.01526,46.0287787 48.1813514,46.34164 C48.9274919,46.5413817 49.69887,46.748274 50.3136087,46.6163526 C52.9781444,46.0446724 55.998219,45.3966976 58.6653222,47.0717365 C60.7880753,48.4045112 62.064887,50.9217083 61.9974551,53.6410316 C61.9250752,56.5611598 60.6900658,58.8661613 58.6937744,59.8071296 L58.2781876,59.9319139 L58.0444175,59.9615827 C57.8272439,59.987123 57.6088411,60 57.3902598,60 L57.3902598,60 Z" id="Path" fill="#2F2E41" fill-rule="nonzero"></path>
            <path d="M209.501991,50 C205.951808,50.0003042 202.887912,52.4882635 202.160088,55.9618062 C201.432264,59.435349 203.239811,62.9433155 206.491449,64.3678187 C206.459937,63.7910292 206.503841,63.2125948 206.622051,62.6471615 C206.766048,62.0379026 207.586497,58.5597645 207.586497,58.5597645 C207.422628,58.1864199 207.340423,57.7823923 207.345384,57.3747215 C207.345384,56.2633396 207.988349,55.4331248 208.792053,55.4331248 C209.475201,55.4331248 209.803382,55.9453052 209.803382,56.557913 C209.803382,57.2441655 209.364691,58.2685263 209.140326,59.2192398 C209.049667,59.5764209 209.134275,59.9554134 209.368245,60.2401738 C209.602215,60.5249342 209.957676,60.6815422 210.325789,60.6620461 C211.745668,60.6620461 212.703417,58.8376045 212.703417,56.6750764 C212.703417,55.0314182 211.594974,53.8028538 209.582364,53.8028538 C207.30855,53.8028538 205.888671,55.5000772 205.888671,57.3948064 C205.866339,57.9290898 206.04292,58.4526827 206.384288,58.8643953 C206.507169,58.965785 206.550478,59.1349017 206.491449,59.2828434 C206.454612,59.4200944 206.374241,59.7515052 206.337404,59.8854074 C206.324399,59.967556 206.272522,60.0383758 206.198106,60.075571 C206.123689,60.1127661 206.035887,60.111761 205.962342,60.0728721 C204.914178,59.6443829 204.425258,58.4995097 204.425258,57.2073417 C204.425258,55.0782803 206.223547,52.5240758 209.786638,52.5240758 C212.649835,52.5240758 214.535195,54.5962286 214.535195,56.8190224 C214.535195,59.761549 212.897645,61.9575602 210.486531,61.9575602 C209.67613,61.9575602 208.91596,61.5190272 208.654755,61.0235855 C208.654755,61.0235855 208.219414,62.7509377 208.125648,63.0856945 C207.952446,63.6544919 207.698717,64.1955886 207.372176,64.6925344 C210.189974,65.5245057 213.234261,64.6356731 215.161149,62.418408 C217.088037,60.2011428 217.542858,57.0635619 216.324832,54.3907368 C215.106806,51.7179117 212.440128,50.0018111 209.501991,50 L209.501991,50 Z" id="Path" fill="#3F3D56" fill-rule="nonzero"></path>
            <path d="M168.288721,25.1056285 L158.390292,22.0603275 C158.137106,21.9687694 157.857875,21.9818526 157.614359,22.0966834 C157.370843,22.2115142 157.18311,22.4186297 157.092682,22.6722205 L154.040607,32.5925738 C153.884329,33.1511362 154.192073,33.7344032 154.741354,33.9207017 L164.636863,36.9651057 C165.185284,37.1105873 165.748745,36.788062 165.901032,36.2414941 L168.953107,26.3211408 C169.034425,26.0718263 169.009218,25.8000016 168.883442,25.569891 C168.757666,25.3397805 168.542478,25.1717964 168.288721,25.1056285 L168.288721,25.1056285 Z M158.011759,32.7658268 L156.312648,32.2430863 L157.937972,26.9601909 L159.637086,27.4829314 L158.011759,32.7658268 Z M159.093408,26.4364193 L159.081228,26.4326722 C158.573267,26.2727311 158.290394,25.7320319 158.448661,25.2235491 C158.606927,24.7150662 159.146694,24.4304135 159.655698,24.5870025 C160.164702,24.7435915 160.451134,25.282414 160.296223,25.7919292 C160.141312,26.3014444 159.603434,26.5896493 159.093408,26.4364193 L159.093408,26.4364193 Z M164.221531,34.6763043 L162.522417,34.1535638 L163.411113,31.2649796 C163.624034,30.5729483 163.522223,30.0240483 162.907494,29.8349241 C162.512491,29.7168173 162.085951,29.8607523 161.843272,30.1940433 C161.75673,30.3143666 161.693276,30.4497103 161.656137,30.5931953 L160.730381,33.6022329 L159.03127,33.0794924 L160.656594,27.7965969 L162.355707,28.3193374 L162.129519,29.0545227 C162.612372,28.6063917 163.301447,28.4578059 163.926068,28.6671316 C165.041424,29.0102622 165.658973,30.0050392 165.171334,31.59004 L164.221531,34.6763043 Z" id="Shape" fill="#3F3D56" fill-rule="nonzero"></path>
            <path d="M19,66.5447046 C18.9992692,62.5306761 15.8754173,59.2197695 11.8913862,59.0104306 C7.90735506,58.8010917 4.45773692,61.7665986 4.04146113,65.7587157 C3.62518535,69.7508329 6.3879674,73.3721376 10.3284271,73.9993294 L10.3284271,68.7266197 L8.42369414,68.7266197 L8.42369414,66.5447046 L10.3284271,66.5447046 L10.3284271,64.8819061 C10.3284271,62.9910412 11.4483674,61.9457337 13.1612515,61.9457337 C13.7237707,61.9536176 14.2849611,62.0029321 14.840322,62.0932816 L14.840322,63.9504572 L13.8941479,63.9504572 C12.9630409,63.9504572 12.6717562,64.5318954 12.6717562,65.1294994 L12.6717562,66.5450316 L14.7515965,66.5450316 L14.4194645,68.7269468 L12.6717562,68.7269468 L12.6717562,74 C16.3164961,73.4191858 19,70.2575893 19,66.5446936 L19,66.5447046 Z" id="Path" fill="#3F3D56"></path>
        </g>
    </g>
</svg>